<?xml version="1.0" encoding="UTF-8"?>
<svg width="134px" height="90px" viewBox="0 0 134 90" version="1.1" xmlns="http://www.w3.org/2000/svg" xmlns:xlink="http://www.w3.org/1999/xlink">
    <title>military</title>
    <defs>
        <path d="M0,0 L3456,0 L3456,16440 L0,16440 L0,0 Z" id="path-1"></path>
        <filter x="-0.3%" y="-0.1%" width="100.8%" height="100.2%" filterUnits="objectBoundingBox" id="filter-2">
            <feOffset dx="4" dy="4" in="SourceAlpha" result="shadowOffsetOuter1"></feOffset>
            <feGaussianBlur stdDeviation="4" in="shadowOffsetOuter1" result="shadowBlurOuter1"></feGaussianBlur>
            <feComposite in="shadowBlurOuter1" in2="SourceAlpha" operator="out" result="shadowBlurOuter1"></feComposite>
            <feColorMatrix values="0 0 0 0 0   0 0 0 0 0   0 0 0 0 0  0 0 0 0.25 0" type="matrix" in="shadowBlurOuter1"></feColorMatrix>
        </filter>
    </defs>
    <g id="Argon-Website" stroke="none" stroke-width="1" fill="none" fill-rule="evenodd">
        <g id="Frame-3-Copy-5" transform="translate(-1452, -4761)" xlink:href="#path-1">
            <use fill="black" fill-opacity="1" filter="url(#filter-2)" xlink:href="#path-1"></use>
            <path stroke-opacity="0.20703125" stroke="#4E4E4E" stroke-width="1" d="M3455.5,0.5 L3455.5,16439.5 L0.5,16439.5 L0.5,0.5 L3455.5,0.5 Z" stroke-linejoin="square"></path>
            <g id="military" stroke-width="1" fill-rule="evenodd" transform="translate(1452, 4760.174)">
                <rect id="background" fill-opacity="0" fill="#FFFFFF" x="0" y="1" width="134" height="89"></rect>
                <path d="M115.430704,1.30886476 C115.964576,1.61550262 116.353882,2.1182407 116.513556,2.71070388 L118.919815,11.6406642 C119.252177,12.8741531 118.516331,14.1326171 117.276363,14.4630737 L69.9560587,27.0269008 L67.908426,31.0633742 L101.335275,31.0633742 C102.215687,31.0633742 103.020562,31.5966373 103.414284,32.3801132 L107.572304,40.6924041 C112.236304,41.6668927 119,44.9393152 119,49.6399394 L119,51.9524421 C119,53.2296373 117.958752,54.1879384 116.675321,54.1879384 L115.835118,54.1879384 C115.977592,56.2691908 115.815827,58.1631305 115.230125,59.3982382 C110.470599,69.4344998 102.729803,75 93.4331788,75 L25.5663563,75 C16.2699643,75 8.52893647,69.4344998 3.76964303,59.3984695 C3.18370863,58.1633618 3.02194332,56.2691908 3.16441765,54.1879384 L2.32421421,54.1879384 C1.0405507,54.1879384 0,53.2294061 0,51.9524421 L0,49.6399394 C0,46.6880298 1.47657329,44.0069142 3.71874274,42.3000559 L3.71874274,38.078351 C3.71874274,35.6085982 4.68608069,33.2473017 6.44248937,31.4997434 C8.19889805,29.7524164 10.5333388,28.7511028 13.0155996,28.7511028 L18.5525751,28.7511028 L16.7473579,25.1882299 C16.4201086,24.5372604 16.4201086,23.800497 16.7473579,23.1495275 L21.3957863,13.8800918 C21.7895082,13.0963846 22.5941512,12.5638153 23.4745635,12.5638153 L64.1476149,12.5638153 C64.9536524,12.5638153 65.6920553,13.0193783 66.1139002,13.6904666 L75.3805422,11.2655763 C75.5781004,11.2123887 75.7803071,11.1869512 75.9801895,11.1869512 C77.0305019,11.1869512 77.9532149,11.8920333 78.225148,12.9025969 C78.5554188,14.1351608 77.8160863,15.4044936 76.5798368,15.7328689 L68.2512476,17.9461653 L70.3732551,22.1681014 L102.601739,13.600279 L101.399423,9.12951756 L94.5460126,10.9450634 C94.3458978,10.9450634 94.1436911,11.0322448 93.9414845,11.0322448 C92.8911721,11.0322448 91.968459,10.3310939 91.6988502,9.32053028 C91.5384794,8.72390459 91.6198269,8.10161012 91.9312716,7.567422 C92.2427163,7.03323388 92.7447466,6.64912719 93.3443939,6.4895645 L113.66709,1.079002 C114.262089,0.920595563 114.8966,1.00199566 115.430704,1.30886476 Z M15.1815348,54.1879384 L7.8121488,54.1879384 C7.67013932,55.8066903 7.78356097,57.0237605 7.97368169,57.4247484 C10.7669223,63.3151552 16.0865838,70.3749947 25.5663563,70.3749947 L93.4329464,70.3749947 C102.912719,70.3749947 108.232613,63.3151552 111.025853,57.4247484 C111.215974,57.0237605 111.329396,55.8066903 111.188548,54.1874759 L103.819395,54.1874759 C103.866809,54.6499765 103.893072,54.929558 103.893072,55.2956272 C103.893072,59.7582949 100.243824,63.4180616 95.7583227,63.4180616 C91.2728217,63.4180616 87.623573,59.7677761 87.623573,55.3051085 C87.623573,54.9390393 87.6496042,54.6499765 87.6972506,54.1874759 L82.4521964,54.1874759 C82.4893838,54.6499765 82.5100693,54.9309455 82.5100693,55.2956272 C82.5100693,61.0336401 77.8184105,65.7305643 72.0511054,65.7305643 C66.2838002,65.7305643 61.5921414,61.0433526 61.5921414,55.3053397 C61.5921414,54.9408893 61.6128269,54.6502077 61.6500144,54.1877072 L56.8856076,54.1877072 C56.9227951,54.6502077 56.9434806,54.9311768 56.9434806,55.2958585 C56.9434806,61.0338713 52.2515894,65.7307955 46.4845166,65.7307955 C40.7174439,65.7307955 36.0255527,61.0435839 36.0255527,55.305571 C36.0255527,54.9411205 36.0462382,54.650439 36.0834256,54.1879384 L31.3032143,54.1879384 C31.3508606,54.650439 31.3771243,54.9300205 31.3771243,55.2960897 C31.3771243,59.7587574 27.7278755,63.4185241 23.2423745,63.4185241 C18.7568735,63.4185241 15.1076248,59.7682386 15.1076248,55.305571 C15.1076248,54.9395018 15.1338884,54.650439 15.1815348,54.1879384 Z M52.1925543,54.1879384 L40.7755493,54.1879384 C40.7088443,54.650439 40.6735163,54.9367268 40.6735163,55.305571 C40.6735163,58.4933559 43.2801225,61.0868277 46.4840518,61.0865964 C49.6879811,61.0865964 52.2945873,58.4933559 52.2945873,55.305571 C52.2945873,54.936958 52.2592593,54.650439 52.1925543,54.1879384 Z M77.7589106,54.1879384 L66.3419056,54.1879384 C66.2752006,54.650439 66.2398726,54.9367268 66.2398726,55.305571 C66.2398726,58.4933559 68.8464788,61.0865964 72.0504081,61.0865964 C75.2543374,61.0865964 77.8609436,58.4933559 77.8609436,55.305571 C77.8609436,54.936958 77.8256156,54.650439 77.7589106,54.1879384 Z M26.5534501,54.1879384 L19.9308341,54.1879384 C19.8185746,54.650439 19.7558208,54.928633 19.7558208,55.305571 C19.7558208,57.2184732 21.3197845,58.774325 23.2421421,58.774325 C25.1644997,58.774325 26.7284634,57.2182419 26.7284634,55.305571 C26.7284634,54.928633 26.6657096,54.650439 26.5534501,54.1879384 Z M99.0684686,54.1879384 L92.4458526,54.1879384 C92.3335931,54.650439 92.2708393,54.928633 92.2708393,55.305571 C92.2708393,57.2184732 93.8348031,58.774325 95.7571606,58.774325 C97.6795182,58.774325 99.2434819,57.2182419 99.2434819,55.305571 C99.2434819,54.928633 99.1807282,54.650439 99.0684686,54.1879384 Z M105.054017,44.9379277 L9.29685684,44.9379277 C6.63632884,44.9379277 4.64842842,47.4816807 4.64842842,49.5629331 L114.350874,49.5629331 C114.350874,49.3316828 113.583651,48.0618876 111.212488,46.7999549 C109.152304,45.7033661 106.619841,44.9379277 105.054017,44.9379277 Z M99.8986779,35.6883795 L24.6366706,35.6883795 L24.6366706,40.3133849 L102.222892,40.3133849 L99.8986779,35.6883795 Z M19.9882422,33.3758769 L13.0155996,33.3758769 C11.774934,33.3758769 10.6079461,33.8959587 9.72939311,34.7700847 C8.85107256,35.6439795 8.36717116,36.8439371 8.36717116,38.078351 L8.36717116,40.3131536 L19.9882422,40.3131536 L19.9882422,33.3758769 Z M62.711483,17.1885894 L24.9109279,17.1885894 L21.4246066,24.1258662 L24.9109279,31.0633742 L62.711483,31.0633742 L66.1978043,24.1258662 L62.711483,17.1885894 Z M48.5758446,21.8912948 C49.8594726,21.8912948 50.9000588,22.9266375 50.9000588,24.2037975 C50.9000588,25.4809575 49.8594726,26.5163002 48.5758446,26.5163002 C47.2922165,26.5163002 46.2516304,25.4809575 46.2516304,24.2037975 C46.2516304,22.9266375 47.2922165,21.8912948 48.5758446,21.8912948 Z M39.2789877,21.8133635 C40.5596298,21.8133635 41.6032019,22.8493647 41.6032019,24.1258662 C41.6032019,25.4000551 40.5596298,26.4383688 39.2789877,26.4383688 L34.6305593,26.4383688 C33.3499173,26.4383688 32.3063451,25.4000551 32.3063451,24.1258662 C32.3063451,22.8493647 33.3499173,21.8133635 34.6305593,21.8133635 Z M84.9616505,8.80044843 C86.2452785,8.80044843 87.2858647,9.83579114 87.2858647,11.1129511 C87.2858647,12.3901111 86.2452785,13.4254538 84.9616505,13.4254538 C83.6780224,13.4254538 82.6374363,12.3901111 82.6374363,11.1129511 C82.6374363,9.83579114 83.6780224,8.80044843 84.9616505,8.80044843 Z M112.625378,6.14592661 L105.890502,7.94135368 L107.093748,12.4086464 L113.828623,10.6132193 L112.625378,6.14592661 Z" fill="#000000" fill-rule="nonzero"></path>
            </g>
        </g>
    </g>
</svg>