<?xml version="1.0" encoding="UTF-8"?>
<svg viewBox="0 0 111 110" version="1.1" xmlns="http://www.w3.org/2000/svg" xmlns:xlink="http://www.w3.org/1999/xlink">
    <title>Combined Shape</title>
    <defs>
        <path d="M0,0 L3456,0 L3456,16440 L0,16440 L0,0 Z" id="path-1"></path>
        <filter x="-0.3%" y="-0.1%" width="100.8%" height="100.2%" filterUnits="objectBoundingBox" id="filter-2">
            <feOffset dx="4" dy="4" in="SourceAlpha" result="shadowOffsetOuter1"></feOffset>
            <feGaussianBlur stdDeviation="4" in="shadowOffsetOuter1" result="shadowBlurOuter1"></feGaussianBlur>
            <feComposite in="shadowBlurOuter1" in2="SourceAlpha" operator="out" result="shadowBlurOuter1"></feComposite>
            <feColorMatrix values="0 0 0 0 0   0 0 0 0 0   0 0 0 0 0  0 0 0 0.25 0" type="matrix" in="shadowBlurOuter1"></feColorMatrix>
        </filter>
    </defs>
    <g id="Argon-Website" stroke="none" stroke-width="1" fill="none" fill-rule="evenodd">
        <g id="Frame-3-Copy-5" transform="translate(-1512, -5114)" xlink:href="#path-1">
            <use fill="black" fill-opacity="1" filter="url(#filter-2)" xlink:href="#path-1"></use>
            <path stroke-opacity="0.20703125" stroke="#4E4E4E" stroke-width="1" d="M3455.5,0.5 L3455.5,16439.5 L0.5,16439.5 L0.5,0.5 L3455.5,0.5 Z" stroke-linejoin="square"></path>
            <path d="M1596.51281,5114 C1597.77271,5114 1598.79406,5115.02135 1598.79406,5116.28125 L1598.794,5121.74899 L1598.79399,5122.74892 L1599.79392,5122.749 L1612.3043,5122.75 C1613.56427,5122.75 1614.58562,5123.77135 1614.58562,5125.03125 L1614.585,5137.22995 L1614.58495,5138.2298 L1615.5848,5138.23 L1620.21855,5138.23094 C1621.47865,5138.23094 1622.5,5139.25229 1622.5,5140.51219 L1622.5,5189.97812 C1622.5,5191.23802 1621.47865,5192.25937 1620.21875,5192.25937 L1599.79502,5192.259 L1598.79499,5192.25898 L1598.795,5193.25901 L1598.79516,5221.71876 C1598.79516,5222.97865 1597.77381,5224 1596.51391,5224 L1538.48631,5224 C1537.22641,5224 1536.20506,5222.97865 1536.20506,5221.71875 L1536.205,5193.259 L1536.205,5192.25898 L1535.20498,5192.259 L1514.78123,5192.25938 C1513.52135,5192.25937 1512.5,5191.23802 1512.5,5189.97812 L1512.5,5140.51219 C1512.5,5139.25229 1513.52135,5138.23094 1514.78125,5138.23094 L1519.4142,5138.23 L1520.41397,5138.2298 L1520.414,5137.23003 L1520.41437,5125.03128 C1520.41438,5123.77135 1521.43573,5122.75 1522.69563,5122.75 L1535.20508,5122.749 L1536.20483,5122.74892 L1536.205,5121.74917 L1536.20594,5116.28142 C1536.20594,5115.02135 1537.22729,5114 1538.48719,5114 Z M1594.23269,5169.09375 L1540.76755,5169.09375 L1540.76773,5189.90948 L1540.76849,5189.98838 L1540.767,5189.978 L1540.76758,5219.4375 L1594.23269,5219.4375 L1594.23269,5218.43747 L1594.23177,5190.01534 L1594.23193,5189.95278 L1594.23269,5170.09378 L1594.23269,5169.09375 Z M1567.37925,5176.43825 C1568.63915,5176.43825 1569.6605,5177.4596 1569.6605,5178.7195 L1569.66108,5179.82957 L1569.66147,5180.57681 L1570.37819,5180.7882 C1570.90593,5180.94385 1571.41584,5181.14402 1571.90542,5181.38627 C1572.62579,5181.74271 1573.21523,5182.14125 1573.61886,5182.51495 C1574.54336,5183.37089 1574.59894,5184.81423 1573.74299,5185.73873 C1572.88704,5186.66324 1571.44371,5186.71881 1570.5192,5185.86286 L1570.51144,5185.85575 L1570.464,5185.906 L1570.50463,5185.85436 L1570.49556,5185.84744 C1570.47953,5185.83535 1570.47953,5185.83535 1570.46654,5185.82574 L1570.44334,5185.80887 C1570.27842,5185.69052 1570.08974,5185.57833 1569.88202,5185.47555 C1569.15077,5185.11373 1568.3295,5184.93392 1567.43541,5184.95593 C1564.94284,5185.01732 1563.37233,5187.83547 1565.00858,5189.43852 C1565.64445,5190.06143 1566.62897,5190.54817 1568.49661,5191.21048 C1568.61973,5191.25413 1568.74849,5191.29941 1568.92823,5191.36226 L1568.933,5191.349 C1568.93041,5191.35958 1568.92991,5191.36112 1568.93838,5191.3658 C1568.95314,5191.37096 1568.95314,5191.37096 1568.97593,5191.37892 C1569.0317,5191.39841 1569.0317,5191.39841 1569.10471,5191.42392 C1569.26178,5191.47882 1569.26178,5191.47882 1569.36855,5191.51619 C1569.96993,5191.72696 1570.34289,5191.863 1570.71529,5192.00806 C1574.76956,5193.58743 1576.70545,5197.32189 1575.67152,5201.27398 C1574.9562,5204.0082 1572.95121,5206.25097 1570.2973,5207.28649 L1569.66092,5207.5348 L1569.6605,5209.81157 C1569.6605,5211.07165 1568.63915,5212.093 1567.37925,5212.093 C1566.11935,5212.093 1565.098,5211.07165 1565.098,5209.81175 L1565.09839,5207.90564 L1564.28094,5207.75371 C1562.94449,5207.50533 1561.71979,5206.96123 1560.093,5205.89795 C1559.03839,5205.20865 1558.74225,5203.79492 1559.43155,5202.74031 C1560.12085,5201.6857 1561.53458,5201.38956 1562.58919,5202.07886 C1564.40123,5203.26322 1565.11647,5203.45579 1567.25036,5203.33502 C1569.17877,5203.22588 1570.7875,5201.91603 1571.25757,5200.11922 C1571.71305,5198.37823 1570.92263,5196.9853 1569.05917,5196.25938 C1568.74116,5196.1355 1568.40422,5196.01281 1567.85952,5195.82191 C1567.7879,5195.79684 1567.7879,5195.79684 1567.67823,5195.7585 L1567.6144,5195.73619 C1567.53665,5195.70901 1567.53665,5195.70901 1567.47577,5195.68774 C1567.45063,5195.67896 1567.45063,5195.67896 1567.43397,5195.67314 C1567.42749,5195.67088 1567.42749,5195.67088 1567.42134,5195.66873 L1567.419,5195.668 L1567.29141,5195.62325 C1567.16889,5195.5803 1567.06912,5195.54515 1566.9717,5195.5106 C1564.31584,5194.56877 1563.00546,5193.86316 1561.81572,5192.69766 C1559.74793,5190.67184 1559.23285,5187.62697 1560.44391,5184.90961 C1561.24065,5183.1219 1562.67553,5181.72716 1564.47929,5180.98486 L1565.0991,5180.72979 L1565.09873,5180.05956 L1565.098,5178.71896 C1565.098,5177.4596 1566.11935,5176.43825 1567.37925,5176.43825 Z M1617.9375,5142.79344 L1517.0625,5142.79344 L1517.0625,5187.69693 L1518.06255,5187.69693 L1535.20505,5187.696 L1536.205,5187.69595 L1536.205,5169.09281 L1535.20481,5169.093 L1531.19519,5169.09375 C1529.93548,5169.09375 1528.91413,5168.0724 1528.91413,5166.8125 C1528.91413,5165.5526 1529.93548,5164.53125 1531.19538,5164.53125 L1603.80462,5164.53125 C1605.06452,5164.53125 1606.08587,5165.5526 1606.08587,5166.8125 C1606.08587,5168.0724 1605.06452,5169.09375 1603.80462,5169.09375 L1599.79519,5169.093 L1598.795,5169.09281 L1598.795,5187.69595 L1599.79495,5187.696 L1616.93745,5187.69693 L1617.9375,5187.69693 L1617.9375,5142.79344 Z M1599.79405,5127.31195 L1598.794,5127.31195 L1598.794,5138.22992 L1599.79392,5138.23 L1609.02305,5138.2308 L1610.02312,5138.2308 L1610.02312,5127.31255 L1599.79405,5127.31195 Z M1536.205,5127.31195 L1535.20495,5127.31195 L1524.97688,5127.31255 L1524.97688,5138.2308 L1525.97695,5138.2308 L1535.20508,5138.23 L1536.205,5138.22992 L1536.205,5127.31195 Z M1594.23159,5118.5625 L1540.76798,5118.5625 L1540.76798,5138.23 L1594.23097,5138.23 L1594.231,5137.23003 L1594.23159,5119.56253 L1594.23159,5118.5625 Z" id="Combined-Shape" fill="#000000" fill-rule="nonzero"></path>
        </g>
    </g>
</svg>