<?xml version="1.0" encoding="UTF-8"?>
<svg viewBox="0 0 150 134" version="1.1" xmlns="http://www.w3.org/2000/svg" xmlns:xlink="http://www.w3.org/1999/xlink">
    <title>Combined Shape</title>
    <g id="Argon-Website-v2" stroke="none" stroke-width="1" fill="none" fill-rule="evenodd">
        <g id="Frame-7" transform="translate(-459.7651, -2817)" fill="#000000" fill-rule="nonzero">
            <path d="M585.318694,2817.33444 L594.410355,2817.33444 C596.238266,2817.33444 597.983694,2818.11382 599.202301,2819.4784 C600.418248,2820.83766 601.000944,2822.6571 600.801391,2824.47388 L599.191658,2838.9629 C598.962837,2841.02972 599.683891,2843.05132 601.173891,2844.50634 C604.866962,2848.12128 609.265123,2855.1091 609.265123,2867.87444 C609.265123,2893.06198 571.067908,2950.33444 508.15798,2950.33444 C492.164426,2950.33444 475.604141,2944.89208 467.156373,2941.64954 C463.034926,2940.06418 460.265123,2936.03694 460.265123,2931.624 L460.265123,2929.1236 C460.265123,2924.76386 463.529819,2921.0372 467.858801,2920.45732 C482.370337,2918.52084 518.138319,2912.53052 536.726069,2898.76236 C553.270391,2886.5104 562.683998,2871.37234 570.248408,2859.20816 C574.047908,2853.09548 577.33123,2847.81538 580.734283,2844.34408 C581.974176,2843.07792 582.65798,2841.4101 582.65798,2839.6412 L582.65798,2835.51022 C582.65798,2831.85006 582.035373,2830.411 581.375516,2828.88948 C580.728962,2827.39988 579.997266,2825.71078 579.997266,2822.65444 C579.997266,2821.19942 579.997266,2817.33444 585.318694,2817.33444 Z M594.410355,2822.65444 L585.318694,2822.65444 C585.318694,2824.60954 585.693855,2825.47138 586.257926,2826.77212 C587.026873,2828.54102 587.979408,2830.7435 587.979408,2835.51022 L587.979408,2839.6412 C587.979408,2842.80926 586.758141,2845.80176 584.539105,2848.06808 C581.543141,2851.1191 578.400837,2856.17044 574.766301,2862.01712 C567.377498,2873.90466 557.25348,2890.18386 539.897641,2903.03964 C521.79148,2916.44604 488.995516,2922.74758 472.344766,2925.19744 C472.791766,2925.96086 473.137658,2926.7695 473.345194,2927.61006 C489.240301,2928.76982 505.51323,2926.4104 520.535623,2920.66214 C521.900569,2920.14344 523.446444,2920.8244 523.970605,2922.19696 C524.497426,2923.56952 523.810962,2925.107 522.438033,2925.63368 C509.278141,2930.66906 495.192319,2933.25724 481.180998,2933.25724 C478.464408,2933.25724 475.755801,2933.12956 473.052516,2932.93538 C472.594873,2934.51808 471.780694,2936.04226 470.261426,2937.13552 C478.658641,2940.27432 493.728926,2945.01444 508.15798,2945.01444 C566.768194,2945.01444 603.943694,2890.77172 603.943694,2867.87444 C603.943694,2856.9578 600.412926,2851.20688 597.451551,2848.30748 C594.788176,2845.70068 593.495069,2842.08042 593.902158,2838.37504 L595.511891,2823.88868 C595.589051,2823.229 595.072873,2822.65444 594.410355,2822.65444 Z M466.706712,2926.65778 C466.033551,2927.2882 465.586551,2928.15004 465.586551,2929.1236 C465.645087,2931.23564 465.426908,2931.9698 465.863266,2933.29182 C467.739069,2932.97262 468.021105,2931.95384 468.249926,2930.07056 C468.252587,2929.99874 468.255248,2929.92958 468.260569,2929.88436 C468.260569,2929.87904 468.257908,2929.87372 468.257908,2929.8684 C468.364337,2928.75652 467.744391,2927.5409 466.706712,2926.65778 Z M585.465033,2853.70196 C585.946623,2852.3161 587.460569,2851.57928 588.849462,2852.06074 C590.241016,2852.5422 590.975373,2854.0584 590.496444,2855.44692 C581.782605,2880.57594 564.509248,2902.098 541.858587,2916.0497 C541.424891,2916.3157 540.943301,2916.44338 540.467033,2916.44338 C539.573033,2916.44338 538.700319,2915.99384 538.197444,2915.17722 C537.428498,2913.92702 537.814301,2912.28846 539.067498,2911.51706 C560.675158,2898.20642 577.152962,2877.67654 585.465033,2853.70196 Z" id="Combined-Shape"></path>
        </g>
    </g>
</svg>