<?xml version="1.0" encoding="UTF-8"?>
<svg viewBox="0 0 133 133" version="1.1" xmlns="http://www.w3.org/2000/svg" xmlns:xlink="http://www.w3.org/1999/xlink">
    <g id="Argon-Website" stroke="none" stroke-width="1" fill="none" fill-rule="evenodd">
        <g id="Frame-2" transform="translate(-544, -417)" fill="currentColor" fill-rule="nonzero">
            <path d="M610.5,417 C628.262773,417 644.962326,423.917299 657.522773,436.477227 C670.082701,449.037674 677,465.737227 677,483.5 C677,501.262773 670.082701,517.962326 657.522773,530.522773 C644.962326,543.082701 628.262773,550 610.5,550 C592.737227,550 576.037674,543.082701 563.477227,530.522773 C550.917299,517.962326 544,501.262773 544,483.5 C544,471.512076 547.22551,459.760539 553.328184,449.515902 C559.252918,439.568957 567.70777,431.29724 577.778623,425.594346 C578.715338,425.064684 579.904025,425.393547 580.433947,426.329742 C580.964129,427.265938 580.634746,428.454885 579.698551,428.985066 C570.215807,434.354682 562.25451,442.143754 556.675523,451.509863 C550.932365,461.151584 547.896484,472.213703 547.896484,483.5 C547.896484,500.222152 554.408289,515.943168 566.232561,527.767439 C578.056832,539.591711 593.777848,546.103516 610.5,546.103516 C627.222152,546.103516 642.943168,539.591711 654.767439,527.767439 C666.591711,515.943168 673.103516,500.222152 673.103516,483.5 C673.103516,466.777848 666.591711,451.056832 654.767439,439.232561 C642.943168,427.408289 627.222152,420.896484 610.5,420.896484 C602.28725,420.896484 594.304133,422.461832 586.772748,425.549146 C585.777066,425.956979 584.639293,425.480828 584.231201,424.485146 C583.82285,423.489465 584.29926,422.351691 585.294941,421.9436 C593.297541,418.663279 601.77785,417 610.5,417 Z M610.5,425.342373 C626.034504,425.342373 640.639047,431.391795 651.623756,442.376244 C662.608205,453.360953 668.657627,467.965496 668.657627,483.5 C668.657627,499.034504 662.608205,513.639047 651.623756,524.623756 C640.639047,535.608205 626.034504,541.657627 610.5,541.657627 C603.744275,541.657627 597.124148,540.509203 590.823273,538.244047 C589.810707,537.880115 589.284941,536.764162 589.648873,535.751855 C590.012805,534.739029 591.128758,534.213523 592.141324,534.577455 C598.018262,536.689869 604.194969,537.761143 610.5,537.761143 C640.419545,537.761143 664.761143,513.419545 664.761143,483.5 C664.761143,453.580455 640.419545,429.238857 610.5,429.238857 C580.580455,429.238857 556.238857,453.580455 556.238857,483.5 C556.238857,503.414932 567.120439,521.697496 584.637215,531.21323 C585.582502,531.726787 585.932666,532.9095 585.419109,533.855047 C584.905553,534.800334 583.72284,535.150498 582.777293,534.636941 C564.004291,524.439063 552.342373,504.844422 552.342373,483.5 C552.342373,467.965496 558.391795,453.360953 569.376244,442.376244 C580.360953,431.391795 594.965496,425.342373 610.5,425.342373 Z M601.362478,447.690764 C604.437565,447.705254 606.951957,450.283002 606.966455,453.436585 L606.979066,456.12549 L611.128404,456.14545 L611.116117,453.493474 C611.108702,451.930354 611.704086,450.470126 612.792196,449.382077 C613.842176,448.33195 615.231283,447.75753 616.703108,447.764646 C619.778948,447.779338 622.29252,450.357135 622.307085,453.510468 L622.319453,456.2063 C630.76638,456.501893 637.591004,463.637862 637.631516,472.331902 C637.645084,475.297255 636.88316,478.124736 635.412613,480.61497 C639.410339,483.84539 641.759605,488.706474 641.784191,493.97224 C641.805759,498.585852 640.043531,502.900334 636.822273,506.121159 C633.700931,509.242091 629.572315,510.949368 625.197351,510.928386 L622.573834,510.915758 L622.582955,512.871972 C622.590303,514.435344 621.994986,515.895321 620.906876,516.983369 C619.856645,518.033429 618.467789,518.607917 616.995964,518.6008 C613.920559,518.586494 611.406552,516.008311 611.391987,512.854979 L611.382542,510.861835 L607.233204,510.841875 L607.242324,512.798089 C607.24974,514.36121 606.654356,515.821438 605.566246,516.909486 C604.516266,517.959613 603.127159,518.534034 601.655334,518.526918 C601.17674,518.524537 600.711539,518.460128 600.26717,518.341059 C597.857891,517.695495 596.064032,515.443664 596.051675,512.780913 L596.04223,510.787768 L587.619998,510.747283 C584.545045,510.732291 582.03102,508.155179 582.016271,505.001529 C582.009174,503.438225 582.604558,501.977997 583.692668,500.889948 C584.742648,499.839821 586.131688,499.265652 587.603513,499.272768 L591.568053,499.291887 L591.420225,467.524821 L587.418822,467.505775 C584.342798,467.490765 581.829727,464.913102 581.815163,461.75977 C581.807814,460.196398 582.403198,458.73617 583.491559,457.648189 C584.541539,456.598062 585.930579,456.023893 587.402404,456.031009 L595.787774,456.071567 L595.775487,453.419592 C595.768139,451.85622 596.363455,450.396243 597.451565,449.308195 C598.501796,448.258135 599.890653,447.683647 601.362478,447.690764 Z M601.34349,451.587569 C600.919395,451.585539 600.515359,451.754543 600.206315,452.063834 C599.858891,452.410979 599.669172,452.88617 599.6714,453.401766 L599.692945,458.020481 C599.695284,458.540679 599.489724,459.039862 599.122296,459.407464 C598.754618,459.774999 598.255327,459.980335 597.735336,459.977888 L587.383349,459.928065 C586.959254,459.926035 586.555536,460.094856 586.246241,460.40408 C585.899068,460.751292 585.709349,461.226482 585.711577,461.742079 C585.716324,462.767164 586.491496,463.605778 587.437424,463.609404 L593.368832,463.637855 C594.437344,463.643669 595.302944,464.508127 595.307772,465.577069 L595.473542,501.240617 C595.475949,501.760564 595.270389,502.259748 594.902961,502.62735 C594.535282,502.994885 594.035992,503.20022 593.516,503.197774 L587.584592,503.169323 C587.160564,503.167041 586.756779,503.336114 586.447166,503.645521 C586.10006,503.992482 585.910274,504.467923 585.912502,504.98352 C585.917249,506.008605 586.690432,506.845611 587.638349,506.850845 L597.990587,506.900735 C598.162149,506.901794 598.328431,506.924566 598.486758,506.966989 C599.314775,507.188856 599.925029,507.942403 599.929275,508.839882 L599.947654,512.762836 C599.952401,513.787921 600.726001,514.626383 601.673753,514.630229 C602.097848,514.632259 602.501884,514.463254 602.810928,514.153963 C603.158101,513.806751 603.34807,513.331628 603.345592,512.815964 L603.327531,508.892827 C603.325125,508.37288 603.530685,507.873697 603.898364,507.506162 C604.265791,507.138559 604.765082,506.933224 605.285073,506.935671 L613.331033,506.9743 C614.399863,506.97993 615.265145,507.844572 615.269973,508.913514 L615.288352,512.836468 C615.293099,513.861553 616.066649,514.699195 617.01445,514.70386 C617.438545,514.705891 617.842331,514.536819 618.151625,514.227595 C618.498798,513.880383 618.688517,513.405192 618.686289,512.889596 L618.66791,508.966643 C618.665504,508.446696 618.871064,507.947512 619.238743,507.579977 C619.606171,507.212375 620.105461,507.00704 620.625452,507.009486 L625.215769,507.031697 C628.543004,507.047593 631.686549,505.745732 634.066955,503.365636 C636.547275,500.885647 637.904156,497.556018 637.887458,493.990115 C637.865953,489.380285 635.55223,485.174424 631.698392,482.739863 C631.234452,482.446932 630.915788,481.972137 630.820405,481.431849 C630.724703,480.891744 630.86139,480.336456 631.19667,479.902151 C632.869834,477.735676 633.74741,475.123938 633.734465,472.349961 C633.703329,465.62323 628.362115,460.124233 621.829176,460.093539 L620.370519,460.086455 C619.302375,460.081278 618.436659,459.216251 618.43158,458.147241 L618.410035,453.528526 C618.405037,452.503374 617.630434,451.664643 616.683936,451.661134 C616.259841,451.659103 615.855805,451.828108 615.546761,452.137399 C615.199588,452.484611 615.009619,452.959734 615.012097,453.475398 L615.033575,458.094364 C615.035982,458.614311 614.830422,459.113494 614.462743,459.481029 C614.095315,459.848631 613.596025,460.053966 613.076033,460.05152 L605.030073,460.012891 C603.960491,460.007059 603.096029,459.142368 603.091133,458.073677 L603.069588,453.454962 C603.06459,452.429809 602.290305,451.590894 601.34349,451.587569 Z M600.759711,484.353723 L625.111304,484.470937 C630.258407,484.495773 634.465502,488.74237 634.489772,493.937054 C634.501392,496.475094 633.525637,498.855063 631.741774,500.638773 C629.981113,502.399117 627.644521,503.362132 625.162012,503.350175 L600.810419,503.23296 C600.638857,503.231901 600.472575,503.20913 600.314248,503.166706 C599.48598,502.944772 598.875794,502.190974 598.871731,501.293813 L598.802169,486.31088 C598.799762,485.790933 599.005322,485.291749 599.373001,484.924214 C599.740429,484.556612 600.239719,484.351277 600.759711,484.353723 Z M602.707407,488.259542 L602.758843,499.345676 L625.180364,499.453737 C626.615142,499.460608 627.966664,498.903009 628.986388,497.883501 C630.029315,496.840627 630.599973,495.445579 630.592972,493.95518 C630.578839,490.888559 628.111264,488.381982 625.092132,488.367425 L602.707407,488.259542 Z M600.66357,463.672858 L621.883502,463.774945 C626.522963,463.797416 630.315135,467.620339 630.336779,472.2969 C630.347381,474.580798 629.468695,476.722957 627.862363,478.328874 C626.27436,479.916573 624.165884,480.785001 621.925635,480.774221 L600.705703,480.672133 C600.53414,480.671075 600.367859,480.648303 600.209532,480.605879 C599.381514,480.384013 598.771328,479.630214 598.767014,478.732986 L598.706028,465.630014 C598.703621,465.110067 598.909181,464.610884 599.276609,464.243282 C599.644288,463.875747 600.143578,463.670411 600.66357,463.672858 Z M602.611266,467.578677 L602.654377,476.784917 L621.944555,476.877666 C623.137008,476.883612 624.260229,476.420281 625.107296,475.573418 C625.97269,474.708338 626.44603,473.551032 626.440297,472.314842 C626.428405,469.766779 624.376774,467.683074 621.864581,467.6715 L602.611266,467.578677 Z" id="bitcoin"></path>
        </g>
    </g>
</svg>