<?xml version="1.0" encoding="UTF-8"?>
<svg viewBox="0 0 83 83" version="1.1" xmlns="http://www.w3.org/2000/svg" xmlns:xlink="http://www.w3.org/1999/xlink">
    <title>Combined Shape</title>
    <g id="Page-1" stroke="none" stroke-width="1" fill="none" fill-rule="evenodd">
        <g id="Circle_idwkKJ-4Ii_0" fill="currentColor" fill-rule="nonzero">
            <path d="M73.2,17.1 C74.1,16.6 75.2,16.9 75.7,17.8 L77.5,20.9 C81.1,27.2 83,34.2 83,41.4 C83,64.4 64.4,83 41.5,83 C32.4,83 23.5,80 16.4,74.2 L13.9,72.3 L13.7,72.1 C13,71.4 13,70.2 13.7,69.5 L30.7,52.5 C31.3,51.9 32.2,51.8 32.9,52.2 L34.7,53.3 C37.7,55.1 41.3,55.6 44.7,54.8 C52.1,53.1 56.7,45.6 55,38.2 L54.6,36.7 C54.5,36.1 54.6,35.5 55.1,35 L59.3,30.9 C59.4,30.7 59.6,30.6 59.8,30.5 C60.8,30.1 61.9,30.5 62.3,31.4 C65,37.1 65.3,43.7 63.1,49.6 C58.6,61.5 45.3,67.5 33.4,63 L26.4,70 C31,72.5 36.2,73.8 41.5,73.8 C45,73.8 48.5,73.2 51.8,72.1 C68.7,66.4 77.8,48.1 72.1,31.2 L71.86875,30.5521412 C70.9979167,28.1847222 69.875,25.9083333 68.5,23.8 C68,23.1 68.1,22.1 68.7,21.5 L72.8,17.4 C72.9,17.3 73.1,17.2 73.2,17.1 Z M41.5,0 C50.6,0 59.5,3 66.7,8.6 L69.1,10.6 C69.2,10.7 69.2,10.7 69.3,10.8 C70,11.5 70,12.7 69.3,13.4 L52.3,30.4 C51.7,31 50.8,31.1 50.1,30.7 L48.3,29.6 C45.3,27.8 41.7,27.3 38.3,28.1 C30.9,29.8 26.3,37.3 28,44.7 L28.3,46.2 C28.4,46.8 28.3,47.4 27.8,47.9 L23.6,52.1 C23.5,52.3 23.3,52.4 23.1,52.5 C22.1,52.9 21,52.5 20.6,51.6 C19.4,49.2 18.7,46.6 18.4,44 C18.4,43.96 18.3982222,43.8951111 18.3951407,43.8117333 L18.3824593,43.5125333 C18.3537778,42.8857778 18.3,41.8933333 18.3,41.6 C18.3,38.8 18.8,36 19.8,33.4 C24.3,21.5 37.6,15.5 49.5,20 L56.5,13 C51.9,10.5 46.7,9.2 41.4,9.2 C37.9,9.2 34.4,9.8 31.1,10.9 C14.2,16.6 5.1,34.9 10.8,51.8 L11.03125,52.4478588 C11.9020833,54.8152778 13.025,57.0916667 14.4,59.2 C14.9,59.9 14.8,60.9 14.2,61.5 L10.1,65.6 C10,65.7 9.8,65.8 9.7,65.9 C8.8,66.4 7.7,66.1 7.2,65.2 L5.4,62.1 C1.9,55.9 0,48.8 0,41.6 C0,18.6 18.6,0 41.5,0 Z" id="Combined-Shape"></path>
        </g>
    </g>
</svg>