<?xml version="1.0" encoding="UTF-8"?>
<svg viewBox="0 0 510 512" version="1.1" xmlns="http://www.w3.org/2000/svg" xmlns:xlink="http://www.w3.org/1999/xlink">
    <title>Combined Shape</title>
    <g id="Page-1" stroke="none" stroke-width="1" fill="none" fill-rule="evenodd">
        <g id="binary" fill="#000000" fill-rule="nonzero">
            <path d="M195,362 L175,362 C155.699219,362 140,377.699219 140,397 L140,477 C140,496.300781 155.699219,512 175,512 L195,512 C214.300781,512 230,496.300781 230,477 L230,397 C230,377.699219 214.300781,362 195,362 Z M200,477 C200,479.757812 197.757812,482 195,482 L175,482 C172.242188,482 170,479.757812 170,477 L170,397 C170,394.242188 172.242188,392 175,392 L195,392 C197.757812,392 200,394.242188 200,397 L200,477 Z M75,482 L60,482 L60,377 C60,368.714844 53.285156,362 45,362 L15,362 C6.714844,362 0,368.714844 0,377 C0,385.285156 6.714844,392 15,392 L30,392 L30,482 L15,482 C6.714844,482 0,488.714844 0,497 C0,505.285156 6.714844,512 15,512 L75,512 C83.285156,512 90,505.285156 90,497 C90,488.714844 83.285156,482 75,482 Z M475,362 L455,362 C435.699219,362 420,377.699219 420,397 L420,477 C420,496.300781 435.699219,512 455,512 L475,512 C494.300781,512 510,496.300781 510,477 L510,397 C510,377.699219 494.300781,362 475,362 Z M480,477 C480,479.757812 477.757812,482 475,482 L455,482 C452.242188,482 450,479.757812 450,477 L450,397 C450,394.242188 452.242188,392 455,392 L475,392 C477.757812,392 480,394.242188 480,397 L480,477 Z M355,482 L340,482 L340,377 C340,368.714844 333.285156,362 325,362 L295,362 C286.714844,362 280,368.714844 280,377 C280,385.285156 286.714844,392 295,392 L310,392 L310,482 L295,482 C286.714844,482 280,488.714844 280,497 C280,505.285156 286.714844,512 295,512 L355,512 C363.285156,512 370,505.285156 370,497 C370,488.714844 363.285156,482 355,482 Z M195,181 L175,181 C155.699219,181 140,196.699219 140,216 L140,296 C140,315.300781 155.699219,331 175,331 L195,331 C214.300781,331 230,315.300781 230,296 L230,216 C230,196.699219 214.300781,181 195,181 Z M200,296 C200,298.757812 197.757812,301 195,301 L175,301 C172.242188,301 170,298.757812 170,296 L170,216 C170,213.242188 172.242188,211 175,211 L195,211 C197.757812,211 200,213.242188 200,216 L200,296 Z M75,301 L60,301 L60,196 C60,187.714844 53.285156,181 45,181 L15,181 C6.714844,181 0,187.714844 0,196 C0,204.285156 6.714844,211 15,211 L30,211 L30,301 L15,301 C6.714844,301 0,307.714844 0,316 C0,324.285156 6.714844,331 15,331 L75,331 C83.285156,331 90,324.285156 90,316 C90,307.714844 83.285156,301 75,301 Z M335,181 L315,181 C295.699219,181 280,196.699219 280,216 L280,296 C280,315.300781 295.699219,331 315,331 L335,331 C354.300781,331 370,315.300781 370,296 L370,216 C370,196.699219 354.300781,181 335,181 Z M340,296 C340,298.757812 337.757812,301 335,301 L315,301 C312.242188,301 310,298.757812 310,296 L310,216 C310,213.242188 312.242188,211 315,211 L335,211 C337.757812,211 340,213.242188 340,216 L340,296 Z M495,301 L480,301 L480,196 C480,187.714844 473.285156,181 465,181 L435,181 C426.714844,181 420,187.714844 420,196 C420,204.285156 426.714844,211 435,211 L450,211 L450,301 L435,301 C426.714844,301 420,307.714844 420,316 C420,324.285156 426.714844,331 435,331 L495,331 C503.285156,331 510,324.285156 510,316 C510,307.714844 503.285156,301 495,301 Z M55,0 L35,0 C15.699219,0 0,15.699219 0,35 L0,115 C0,134.300781 15.699219,150 35,150 L55,150 C74.300781,150 90,134.300781 90,115 L90,35 C90,15.699219 74.300781,0 55,0 Z M60,115 C60,117.757812 57.757812,120 55,120 L35,120 C32.242188,120 30,117.757812 30,115 L30,35 C30,32.242188 32.242188,30 35,30 L55,30 C57.757812,30 60,32.242188 60,35 L60,115 Z M215,120 L200,120 L200,15 C200,6.714844 193.285156,0 185,0 L155,0 C146.714844,0 140,6.714844 140,15 C140,23.285156 146.714844,30 155,30 L170,30 L170,120 L155,120 C146.714844,120 140,126.714844 140,135 C140,143.285156 146.714844,150 155,150 L215,150 C223.285156,150 230,143.285156 230,135 C230,126.714844 223.285156,120 215,120 Z M475,0 L455,0 C435.699219,0 420,15.699219 420,35 L420,115 C420,134.300781 435.699219,150 455,150 L475,150 C494.300781,150 510,134.300781 510,115 L510,35 C510,15.699219 494.300781,0 475,0 Z M480,115 C480,117.757812 477.757812,120 475,120 L455,120 C452.242188,120 450,117.757812 450,115 L450,35 C450,32.242188 452.242188,30 455,30 L475,30 C477.757812,30 480,32.242188 480,35 L480,115 Z M355,120 L340,120 L340,15 C340,6.714844 333.285156,0 325,0 L295,0 C286.714844,0 280,6.714844 280,15 C280,23.285156 286.714844,30 295,30 L310,30 L310,120 L295,120 C286.714844,120 280,126.714844 280,135 C280,143.285156 286.714844,150 295,150 L355,150 C363.285156,150 370,143.285156 370,135 C370,126.714844 363.285156,120 355,120 Z" id="Combined-Shape"></path>
        </g>
    </g>
</svg>