<?xml version="1.0" encoding="UTF-8"?>
<svg viewBox="0 0 510 432" version="1.1" xmlns="http://www.w3.org/2000/svg" xmlns:xlink="http://www.w3.org/1999/xlink">
    <title>Shape</title>
    <g id="Page-1" stroke="none" stroke-width="1" fill="none" fill-rule="evenodd">
        <g id="white-house" transform="translate(-1, -40)" fill="#000000" fill-rule="nonzero">
            <path d="M505.7,428.5 L482.5,428.5 L482.5,193.4 L495.8,193.4 C498.7,193.4 501.1,191 501.1,188.1 L501.1,163.2 C501.1,160.3 498.7,157.9 495.8,157.9 L475.7,157.9 L475.7,142.8 L495.8,142.8 C498.7,142.8 501.1,140.4 501.1,137.5 L501.1,110.2 C501.1,107.3 498.7,104.9 495.8,104.9 L361.8,104.9 L258.8,41.3 C257.1,40.2 254.9,40.2 253.2,41.3 L150.2,104.9 L16.2,104.9 C13.3,104.9 10.9,107.3 10.9,110.2 L10.9,137.5 C10.9,140.4 13.3,142.8 16.2,142.8 L39.1,142.8 L39.1,157.9 L16.3,157.9 C13.4,157.9 11,160.3 11,163.2 L11,188 C11,190.9 13.4,193.3 16.3,193.3 L29.6,193.3 L29.6,428.5 L6.3,428.5 C3.4,428.5 1,430.9 1,433.8 L1,466.3 C1,469.2 3.4,471.6 6.3,471.6 L89.4,471.6 L325.9,471.6 L505.6,471.6 C508.5,471.6 510.903016,469.2 510.903016,466.3 L510.903016,433.8 C511,430.9 508.6,428.5 505.7,428.5 Z M490.4,168.4 L490.4,182.7 C481.7,182.7 438.6,182.7 429,182.7 L429,168.4 L490.4,168.4 Z M390.7,429.7 C393,429.5 394.9,431.7 395.4,434.8 C395.6,435.4 395.5,441 395.5,441.8 L351.4,441.8 C351.4,438 350.6,430.1 355.7,429.8 L356.2,429.8 L390.7,429.8 L390.7,429.7 Z M361.5,419 L361.5,229.5 L385.4,229.5 L385.4,419 L361.5,419 Z M390.2,218.9 L356.5,218.9 C353.6,218.9 351.3,216.6 351.3,213.7 L351.3,206.9 L395.4,206.9 L395.4,213.7 C395.4,216.6 393.1,218.9 390.2,218.9 L390.2,218.9 Z M346,196.2 C266.8,196.2 174.7,196.2 95.6,196.2 C95.6,190.9 95.6,174 95.6,168.4 L418.3,168.4 L418.3,196.2 C406.7,196.2 358.6,196.2 346,196.2 L346,196.2 Z M315.1,310.8 C299.2,310.8 286.2,323.7 286.2,339.7 L286.2,428.4 C284.5,424.7 281.6,421.5 277.7,420 L277.7,228.4 C283.6,226.1 287.8,220.4 287.8,213.7 L287.8,206.9 L340.7,206.9 L340.7,213.7 C340.7,220.4 344.9,226.1 350.8,228.4 L350.8,419.9 C348.2,420.9 345.6,422.8 344,425.2 L344,339.6 C344,323.8 331.1,310.8 315.1,310.8 L315.1,310.8 Z M333.3,339.7 L333.3,428.5 L297,428.5 L297,339.7 C297.6,315.7 332.7,315.7 333.3,339.7 Z M238.3,218.9 C235.4,218.9 233.1,216.6 233.1,213.7 L233.1,206.9 L277.2,206.9 C277,211.4 278.6,218.7 272,218.9 L238.3,218.9 Z M267.1,229.5 L267.1,419 L243.2,419 L243.2,229.5 L267.1,229.5 Z M233.2,434.6 C233.6,431.7 235.6,429.5 237.8,429.7 L272.4,429.7 C277.9,429.6 277.2,437.8 277.1,441.7 L233,441.7 C233.1,440.7 233,435.4 233.2,434.6 Z M196.3,310.8 C180.4,310.8 167.4,323.7 167.4,339.7 C167.4,339.7 167.4,427.3 167.3,427.200086 C165.6,424 162.8,421.3 159.4,420 L159.4,228.4 C165.3,226.1 169.5,220.4 169.5,213.7 L169.5,206.9 L222.4,206.9 L222.4,213.7 C222.4,220.4 226.6,226.1 232.5,228.4 L232.5,420 C229.4,421.2 226.9,423.4 225.1,426.2 L225.1,339.7 C225.2,323.8 212.2,310.8 196.3,310.8 L196.3,310.8 Z M214.5,339.7 L214.5,428.5 L178.1,428.5 L178.1,339.7 C178.7,315.7 213.9,315.7 214.5,339.7 Z M120,218.9 C117.1,218.9 114.8,216.6 114.8,213.7 L114.8,206.9 L158.9,206.9 L158.9,213.7 C158.9,216.6 156.6,218.9 153.7,218.9 L120,218.9 Z M148.8,229.5 L148.8,419 L124.9,419 L124.9,229.5 L148.8,229.5 Z M114.9,435.8 C114.8,432.8 117,429.3 119.6,429.7 L154.1,429.7 C156.4,429.5 158.3,431.6 158.8,434.8 C159,435.5 158.8,441 158.9,441.8 L114.8,441.8 L114.8,435.8 L114.9,435.8 Z M90.3,206.9 L104.2,206.9 L104.2,213.7 C104.2,220.4 108.4,226.1 114.3,228.4 L114.3,420 C110.4,421.5 107.4,424.8 105.7,428.6 L40.3,428.6 L40.3,193.4 L85,193.4 L85,201.6 C85,204.5 87.4,206.9 90.3,206.9 Z M85.8,157.8 L73.1,157.8 L73.1,142.7 L85.8,142.7 L85.8,157.8 Z M96.5,157.8 L96.5,142.7 L110.5,142.7 L110.5,157.8 L96.5,157.8 Z M401.6,157.8 L401.6,142.7 L418.3,142.7 L418.3,157.8 L401.6,157.8 Z M396,228.4 C401.9,226.1 406.1,220.4 406.1,213.7 L406.1,206.9 L423.7,206.9 C426.6,206.9 429,204.5 429,201.6 L429,193.4 L471.8,193.4 L471.8,428.6 L404.6,428.6 C402.8,425 400,421.5 396,420.1 L396,228.4 Z M429,157.8 L429,142.7 L441.7,142.7 L441.7,157.8 L429,157.8 Z M452.3,157.8 L452.3,142.7 L465,142.7 L465,157.8 L452.3,157.8 Z M490.4,115.4 L490.4,132 C462.6,132 429.4,132 401.6,132 C401.5,130.2 400.6,128.6 399.1,127.7 L379.1,115.3 L490.4,115.3 L490.4,115.4 Z M154.6,114.6 C154.7,114.5 256,52 256,52 L357.4,114.6 C365.3,119.5 382.9,130.3 390.9,135.3 L390.9,157.8 L121.1,157.8 C121.1,156.6 121.1,135.8 121.1,135.3 L154.6,114.6 Z M21.6,132 L21.6,115.3 L133,115.3 L113,127.7 C111.5,128.6 110.6,130.2 110.5,132 C82.7,132 49.4,132 21.6,132 Z M62.5,142.7 L62.5,157.8 L49.8,157.8 L49.8,142.7 L62.5,142.7 Z M21.6,182.7 L21.6,168.4 L85,168.4 L85,182.7 C75.1,182.7 30.5,182.7 21.6,182.7 Z M84.1,455 L84.1,461 L11.7,461 L11.7,439.2 L104.3,439.2 L104.3,441.7 L96.1,441.7 C89.5,441.7 84.1,447.7 84.1,455 L84.1,455 Z M180.8,461 L94.7,461 C95,459.5 93.9,452.6 96,452.4 L164.2,452.4 L179.4,452.4 C181.5,452.6 180.6,459.5 180.8,461 Z M202.4,455 L202.4,461 L191.5,461 L191.5,455 C191.5,447.7 186.1,441.7 179.5,441.7 L169.6,441.7 L169.6,439.2 L222.5,439.2 L222.5,441.7 L214.4,441.7 C207.7,441.7 202.4,447.7 202.4,455 Z M299,461 L213,461 C213.3,459.5 212.2,452.6 214.3,452.4 L282.5,452.4 L297.7,452.4 C299.7,452.6 298.8,459.5 299,461 Z M320.6,455 L320.6,461 L309.7,461 L309.7,455 C309.7,447.7 304.3,441.7 297.7,441.7 L287.8,441.7 L287.8,439.2 L340.7,439.2 L340.7,441.7 L332.6,441.7 C326,441.7 320.6,447.7 320.6,455 Z M417.3,461 L331.2,461 C331.5,459.5 330.4,452.6 332.5,452.4 L400.7,452.4 L415.9,452.4 C418,452.6 417.1,459.5 417.3,461 Z M500.3,461 L428,461 L428,455 C428,447.7 422.6,441.7 416,441.7 L406.1,441.7 L406.1,439.2 L500.4,439.2 L500.4,461 L500.3,461 Z M137.2,147.8 L374.9,147.8 C377.3,147.8 379.4,146.2 380,143.9 C380.7,141.6 379.7,139.2 377.7,137.9 L258.8,64.5 C257.1,63.4 254.9,63.4 253.2,64.5 L134.3,137.9 C129.9,140.5 131.9,148 137.2,147.8 Z M256,75.3 L356.1,137.1 L155.9,137.1 L256,75.3 Z M70.6,243.5 L53.3,243.5 C50.4,243.5 48,245.9 48,248.8 L48,281 C48,283.9 50.4,286.3 53.3,286.3 L70.6,286.3 C73.5,286.3 75.9,283.9 75.9,281 L75.9,248.8 C75.9,245.9 73.6,243.5 70.6,243.5 Z M65.3,275.7 L58.6,275.7 L58.6,254.2 L65.3,254.2 L65.3,275.7 Z M79.9,248.8 L79.9,281 C79.9,283.9 82.3,286.3 85.2,286.3 L102.5,286.3 C105.4,286.3 107.8,283.9 107.8,281 L107.8,248.8 C107.8,245.9 105.4,243.5 102.5,243.5 L85.2,243.5 C82.3,243.5 79.9,245.9 79.9,248.8 L79.9,248.8 Z M90.6,254.2 L97.3,254.2 L97.3,275.7 L90.6,275.7 L90.6,254.2 Z M410.5,286.3 L427.8,286.3 C430.7,286.3 433.1,283.9 433.1,281 L433.1,248.8 C433.1,245.9 430.7,243.5 427.8,243.5 L410.5,243.5 C407.6,243.5 405.2,245.9 405.2,248.8 L405.2,281 C405.1,283.9 407.5,286.3 410.5,286.3 Z M415.8,254.2 L422.5,254.2 L422.5,275.7 L415.8,275.7 L415.8,254.2 Z M442.4,286.3 L459.7,286.3 C462.6,286.3 465,283.9 465,281 L465,248.8 C465,245.9 462.6,243.5 459.7,243.5 L442.4,243.5 C439.5,243.5 437.1,245.9 437.1,248.8 L437.1,281 C437.1,283.9 439.5,286.3 442.4,286.3 Z M447.7,254.2 L454.4,254.2 L454.4,275.7 L447.7,275.7 L447.7,254.2 Z M70.6,302.6 L53.3,302.6 C50.4,302.6 48,305 48,307.9 L48,388.7 C48,391.6 50.4,394 53.3,394 L70.6,394 C73.5,394 75.9,391.6 75.9,388.7 L75.9,308 C75.9,305 73.6,302.6 70.6,302.6 L70.6,302.6 Z M65.3,383.4 L58.6,383.4 L58.6,313.3 L65.3,313.3 L65.3,383.4 Z M102.6,302.6 L85.2,302.6 C82.3,302.6 79.9,305 79.9,307.9 L79.9,388.7 C79.9,391.6 82.3,394 85.2,394 L102.5,394 C105.4,394 107.8,391.6 107.8,388.7 L107.8,308 C107.9,305 105.5,302.6 102.6,302.6 L102.6,302.6 Z M97.2,383.4 L90.5,383.4 L90.5,313.3 L97.2,313.3 L97.2,383.4 Z M410.5,394.1 L427.8,394.1 C430.7,394.1 433.1,391.7 433.1,388.8 L433.1,308 C433.1,305.1 430.7,302.7 427.8,302.7 L410.5,302.7 C407.6,302.7 405.2,305.1 405.2,308 L405.2,388.8 C405.1,391.7 407.5,394.1 410.5,394.1 Z M415.8,313.3 L422.5,313.3 L422.5,383.4 L415.8,383.4 L415.8,313.3 Z M442.4,394.1 L459.7,394.1 C462.6,394.1 465,391.7 465,388.8 L465,308 C465,305.1 462.6,302.7 459.7,302.7 L442.4,302.7 C439.5,302.7 437.1,305.1 437.1,308 L437.1,388.8 C437.1,391.7 439.5,394.1 442.4,394.1 Z M447.7,313.3 L454.4,313.3 L454.4,383.4 L447.7,383.4 L447.7,313.3 Z M225.2,282.6 C225.2,285.5 222.8,287.9 219.9,287.9 L172.8,287.9 C169.9,287.9 167.5,285.5 167.5,282.6 C167.5,279.7 169.9,277.3 172.8,277.3 L219.9,277.3 C222.8,277.2 225.2,279.6 225.2,282.6 Z M344,282.6 C344,285.5 341.6,287.9 338.7,287.9 L291.6,287.9 C288.7,287.9 286.3,285.5 286.3,282.6 C286.3,279.7 288.7,277.3 291.6,277.3 L338.7,277.3 C341.6,277.2 344,279.6 344,282.6 Z M183,251.8 C183,248.9 185.4,246.5 188.3,246.5 L204.2,246.5 C207.1,246.5 209.5,248.9 209.5,251.8 C209.5,254.7 207.1,257.1 204.2,257.1 L188.3,257.1 C185.4,257.2 183,254.8 183,251.8 Z M301.8,251.8 C301.8,248.9 304.2,246.5 307.1,246.5 L323,246.5 C325.9,246.5 328.3,248.9 328.3,251.8 C328.3,254.7 325.9,257.1 323,257.1 L307.1,257.1 C304.2,257.2 301.8,254.8 301.8,251.8 Z" id="Shape"></path>
        </g>
    </g>
</svg>