<?xml version="1.0" encoding="UTF-8"?>
<svg viewBox="0 0 191 115" version="1.1" xmlns="http://www.w3.org/2000/svg" xmlns:xlink="http://www.w3.org/1999/xlink">
    <title>Combined Shape</title>
    <defs>
        <path d="M0,0 L3456,0 L3456,9060 L0,9060 L0,0 Z" id="path-1"></path>
        <filter x="-0.3%" y="-0.1%" width="100.8%" height="100.3%" filterUnits="objectBoundingBox" id="filter-2">
            <feOffset dx="4" dy="4" in="SourceAlpha" result="shadowOffsetOuter1"></feOffset>
            <feGaussianBlur stdDeviation="4" in="shadowOffsetOuter1" result="shadowBlurOuter1"></feGaussianBlur>
            <feComposite in="shadowBlurOuter1" in2="SourceAlpha" operator="out" result="shadowBlurOuter1"></feComposite>
            <feColorMatrix values="0 0 0 0 0   0 0 0 0 0   0 0 0 0 0  0 0 0 0.25 0" type="matrix" in="shadowBlurOuter1"></feColorMatrix>
        </filter>
    </defs>
    <g id="Argon-Website" stroke="none" stroke-width="1" fill="none" fill-rule="evenodd">
        <g id="Frame-2" transform="translate(-507, -2165)" xlink:href="#path-1">
            <use fill="black" fill-opacity="1" filter="url(#filter-2)" xlink:href="#path-1"></use>
            <path stroke-opacity="0.20703125" stroke="#4E4E4E" stroke-width="1" d="M3455.5,0.5 L3455.5,9059.5 L0.5,9059.5 L0.5,0.5 L3455.5,0.5 Z" stroke-linejoin="square"></path>
            <path d="M691.480167,2165.5 C694.97797,2165.5 697.8135,2168.33553 697.8135,2171.83333 L697.8135,2273.16667 C697.8135,2276.66447 694.97797,2279.5 691.480167,2279.5 L514.146833,2279.5 C510.64903,2279.5 507.8135,2276.66447 507.8135,2273.16667 L507.8135,2171.83333 C507.8135,2168.33553 510.64903,2165.5 514.146833,2165.5 Z M691.480167,2171.83333 L514.146833,2171.83333 L514.146833,2273.16667 L691.480167,2273.16667 L691.480167,2171.83333 Z M660.0605,2178.16664 C663.213641,2178.15729 665.885809,2180.48545 666.308333,2183.61017 C667.326219,2190.54637 672.775906,2195.9922 679.712833,2197.00517 C682.819151,2197.45895 685.12816,2200.11377 685.146877,2203.253 L685.146877,2241.747 C685.158452,2244.89645 682.836392,2247.56783 679.716,2247.99483 C672.777841,2249.00652 667.326577,2254.45263 666.308333,2261.38983 C665.885809,2264.51455 663.213641,2266.84271 660.0605,2266.83336 L545.5665,2266.83336 C542.425169,2266.81127 539.770714,2264.49855 539.318667,2261.38983 C538.298522,2254.45535 532.849612,2249.01159 525.914167,2247.998 C522.792025,2247.57098 520.468563,2244.89819 520.480123,2241.747 L520.480123,2203.253 C520.469606,2200.09829 522.800152,2197.42493 525.926833,2197.00517 C532.861317,2195.98502 538.305078,2190.53611 539.318667,2183.60067 C539.772446,2180.49435 542.427268,2178.18534 545.5665,2178.16664 Z M660.0415,2184.5 L545.5665,2184.5 C544.164437,2194.22082 536.532896,2201.86009 526.8135,2203.272 L526.8135,2241.747 C536.534321,2243.14906 544.173594,2250.7806 545.5855,2260.5 L660.0605,2260.5 C660.663381,2256.17665 662.545931,2252.13253 665.466,2248.88783 C668.937844,2245.00923 673.662175,2242.4739 678.8135,2241.72483 L678.8135,2203.27517 C669.090669,2201.86075 661.454281,2194.22307 660.0415,2184.5 Z M602.8135,2190.83333 C620.294559,2190.85253 634.460969,2205.01894 634.480167,2222.5 C634.480167,2239.98902 620.302517,2254.16667 602.8135,2254.16667 C585.324483,2254.16667 571.146833,2239.98902 571.146833,2222.5 C571.146833,2205.01098 585.324483,2190.83333 602.8135,2190.83333 Z M602.8135,2197.16667 C588.822286,2197.16667 577.480167,2208.50879 577.480167,2222.5 C577.480167,2236.49121 588.822286,2247.83333 602.8135,2247.83333 C616.798203,2247.81763 628.131127,2236.4847 628.146833,2222.5 C628.146833,2208.50879 616.804714,2197.16667 602.8135,2197.16667 Z M602.8135,2203.5 C604.562402,2203.5 605.980167,2204.91776 605.980167,2206.66667 L605.980167,2207.3 C608.100915,2208.03023 609.893968,2209.4889 611.0405,2211.41667 C611.647705,2212.39815 611.672852,2213.63225 611.106133,2214.63766 C610.539415,2215.64306 609.470588,2216.26052 608.316519,2216.24922 C607.162449,2216.23792 606.10592,2215.59964 605.559,2214.58333 C604.790812,2213.25279 603.17838,2212.66562 601.734489,2213.19062 C600.290599,2213.71563 599.431867,2215.20132 599.697673,2216.71453 C599.963478,2218.22773 601.277126,2219.33184 602.8135,2219.33333 C607.43978,2219.31702 611.40186,2222.64305 612.187194,2227.20221 C612.972527,2231.76137 610.351612,2236.22134 605.9865,2237.75383 L605.9865,2238.33333 C605.9865,2240.08224 604.568735,2241.5 602.819833,2241.5 C601.070932,2241.5 599.653167,2240.08224 599.653167,2238.33333 L599.653167,2237.7 C597.531015,2236.96937 595.736077,2235.51098 594.5865,2233.58333 C593.775349,2232.07602 594.308814,2230.19695 595.790974,2229.34071 C597.273135,2228.48446 599.167439,2228.96101 600.068,2230.41667 C600.836188,2231.74721 602.44862,2232.33438 603.892511,2231.80938 C605.336401,2231.28437 606.195133,2229.79868 605.929327,2228.28547 C605.663522,2226.77227 604.349874,2225.66816 602.8135,2225.66667 C598.191949,2225.67542 594.23791,2222.34962 593.454773,2217.7949 C592.671637,2213.24017 595.287766,2208.7847 599.646833,2207.24933 L599.646833,2206.66667 C599.646833,2204.91776 601.064598,2203.5 602.8135,2203.5 Z M545.8135,2209.83333 C552.809107,2209.83333 558.480167,2215.50439 558.480167,2222.5 C558.480167,2229.49561 552.809107,2235.16667 545.8135,2235.16667 C538.817893,2235.16667 533.146833,2229.49561 533.146833,2222.5 C533.146833,2215.50439 538.817893,2209.83333 545.8135,2209.83333 Z M659.8135,2209.83333 C666.809107,2209.83333 672.480167,2215.50439 672.480167,2222.5 C672.480167,2229.49561 666.809107,2235.16667 659.8135,2235.16667 C652.817893,2235.16667 647.146833,2229.49561 647.146833,2222.5 C647.146833,2215.50439 652.817893,2209.83333 659.8135,2209.83333 Z M545.8135,2216.16667 C542.315697,2216.16667 539.480167,2219.0022 539.480167,2222.5 C539.480167,2225.9978 542.315697,2228.83333 545.8135,2228.83333 C549.311303,2228.83333 552.146833,2225.9978 552.146833,2222.5 C552.146833,2219.0022 549.311303,2216.16667 545.8135,2216.16667 Z M659.8135,2216.16667 C656.315697,2216.16667 653.480167,2219.0022 653.480167,2222.5 C653.480167,2225.9978 656.315697,2228.83333 659.8135,2228.83333 C663.311303,2228.83333 666.146833,2225.9978 666.146833,2222.5 C666.146833,2219.0022 663.311303,2216.16667 659.8135,2216.16667 Z" id="Combined-Shape" fill="#000000" fill-rule="nonzero"></path>
        </g>
    </g>
</svg>