<?xml version="1.0" encoding="UTF-8"?>
<svg viewBox="0 0 512 512" version="1.1" xmlns="http://www.w3.org/2000/svg" xmlns:xlink="http://www.w3.org/1999/xlink">
    <title>Combined Shape</title>
    <g id="Page-1" stroke="none" stroke-width="1" fill="none" fill-rule="evenodd">
        <g id="factory" fill="#000000" fill-rule="nonzero">
            <path d="M146.703125,10.757812 C161.027344,-3.558594 184.3125,-3.585938 198.667969,10.679688 C198.683594,10.695312 198.703125,10.710938 198.722656,10.726562 L271.296875,83.304688 C277.125,89.132812 280.335938,96.878906 280.335938,105.121094 C280.335938,113.363281 277.125,121.113281 271.296875,126.941406 C268.128906,130.105469 264.4375,132.429688 260.5,133.929688 L260.5,151.523438 L281.402344,172.425781 C283.277344,174.300781 284.332031,176.84375 284.332031,179.496094 L284.332031,196.464844 C284.332031,201.988281 279.855469,206.464844 274.332031,206.464844 C268.8125,206.464844 264.332031,201.988281 264.332031,196.464844 L264.332031,183.640625 L250.5,169.808594 L236.667969,183.640625 L236.667969,197.964844 C236.667969,203.484375 232.191406,207.964844 226.667969,207.964844 C221.148438,207.964844 216.667969,203.484375 216.667969,197.964844 L216.667969,179.496094 C216.667969,176.84375 217.722656,174.300781 219.597656,172.425781 L240.5,151.523438 L240.5,134.636719 C235.796875,133.214844 231.367188,130.652344 227.660156,126.941406 L181.136719,80.421875 L111.433594,150.125 L111.433594,283.546875 L147.433594,283.546875 L147.433594,221.546875 C147.433594,216.023438 151.910156,211.546875 157.433594,211.546875 L229.433594,211.546875 C234.953125,211.546875 239.433594,216.023438 239.433594,221.546875 L239.433594,283.546875 L280,283.546875 L280,221.546875 C280,216.023438 284.476562,211.546875 290,211.546875 L348.117188,211.546875 C349.707031,185.378906 368.867188,163.882812 393.929688,158.75 C388.9375,151.613281 386,142.941406 386,133.59375 L386,120.554688 C382.167969,119.152344 379.425781,115.484375 379.425781,111.167969 L379.425781,108.070312 C379.425781,80.183594 402.113281,57.496094 430,57.496094 C457.886719,57.496094 480.574219,80.183594 480.574219,108.070312 L480.574219,111.167969 C480.574219,115.484375 477.832031,119.152344 474,120.554688 L474,133.59375 C474,142.941406 471.058594,151.613281 466.070312,158.75 C492.25,164.109375 512,187.324219 512,215.0625 L512,296.609375 C512,317.03125 496.078125,333.792969 476,335.15625 L476,501.964844 C476,507.484375 471.519531,511.964844 466,511.964844 L10,511.964844 C4.476562,511.964844 0,507.484375 0,501.964844 L0,350.273438 C0,330.660156 8.507812,313 22.023438,300.777344 L22.023438,268.960938 C22.023438,263.441406 26.5,258.960938 32.023438,258.960938 C37.546875,258.960938 42.023438,263.441406 42.023438,268.960938 L42.023438,288.304688 C49.667969,285.246094 58,283.546875 66.726562,283.546875 C74.757812,283.546875 82.585938,284.972656 90.035156,287.75 C90.5,287.535156 90.960938,287.320312 91.433594,287.121094 L91.433594,180.40625 C84.351562,185.125 75.855469,187.878906 66.726562,187.878906 C57.601562,187.878906 49.105469,185.125 42.023438,180.40625 L42.023438,194.964844 C42.023438,200.484375 37.546875,204.964844 32.023438,204.964844 C26.503906,204.964844 22.023438,200.484375 22.023438,194.964844 L22.023438,143.175781 C22.023438,121.453125 37.597656,103.3125 58.160156,99.300781 Z M456,341.824219 C453.167969,350.976562 447.488281,358.886719 440,364.523438 L440,491.964844 L456,491.964844 Z M384,373.546875 L133.457031,373.546875 L133.457031,401.546875 L250.5,401.546875 C256.023438,401.546875 260.5,406.023438 260.5,411.546875 C260.5,417.066406 256.023438,421.546875 250.5,421.546875 L133.457031,421.546875 L133.457031,491.964844 L384,491.964844 L384,373.546875 Z M420,373 C417.71875,373.355469 415.382812,373.546875 413,373.546875 L404,373.546875 L404,491.964844 L420,491.964844 Z M66.726562,303.546875 C40.960938,303.546875 20,324.507812 20,350.273438 L20,491.960938 L113.457031,491.960938 L113.457031,373.546875 L109,373.546875 C103.425781,373.546875 98.085938,372.519531 93.152344,370.65625 C86.773438,378.554688 77.140625,383.257812 66.726562,383.257812 C47.980469,383.257812 32.726562,368.007812 32.726562,349.257812 C32.726562,330.753906 47.585938,315.667969 66,315.277344 C67.269531,311.164062 69.121094,307.304688 71.449219,303.785156 C69.890625,303.628906 68.316406,303.546875 66.726562,303.546875 Z M288.898438,401.542969 C291.539062,401.542969 294.109375,402.613281 295.96875,404.472656 C297.828125,406.332031 298.898438,408.914062 298.898438,411.542969 C298.898438,414.183594 297.828125,416.753906 295.96875,418.613281 C294.109375,420.480469 291.53125,421.542969 288.898438,421.542969 C286.269531,421.542969 283.6875,420.484375 281.828125,418.613281 C279.96875,416.753906 278.898438,414.183594 278.898438,411.542969 C278.898438,408.914062 279.96875,406.332031 281.828125,404.472656 C283.6875,402.613281 286.269531,401.542969 288.898438,401.542969 Z M64.53125,335.449219 C57.851562,336.507812 52.726562,342.289062 52.726562,349.257812 C52.726562,356.980469 59.007812,363.257812 66.726562,363.257812 C70.367188,363.257812 73.777344,361.859375 76.332031,359.445312 C70.195312,352.964844 65.953125,344.667969 64.53125,335.449219 Z M413,303.546875 L109,303.546875 C95.214844,303.546875 84,314.761719 84,328.546875 C84,342.332031 95.214844,353.546875 109,353.546875 L413,353.546875 C426.785156,353.546875 438,342.332031 438,328.546875 C438,314.761719 426.785156,303.546875 413,303.546875 Z M138,318.542969 C140.628906,318.542969 143.210938,319.613281 145.070312,321.472656 C146.929688,323.332031 148,325.914062 148,328.542969 C148,331.183594 146.929688,333.753906 145.070312,335.613281 C143.210938,337.472656 140.628906,338.542969 138,338.542969 C135.359375,338.542969 132.789062,337.472656 130.929688,335.613281 C129.070312,333.753906 128,331.183594 128,328.542969 C128,325.914062 129.070312,323.335938 130.929688,321.472656 C132.789062,319.613281 135.371094,318.542969 138,318.542969 Z M330,318.542969 C332.628906,318.542969 335.210938,319.613281 337.070312,321.472656 C338.929688,323.332031 340,325.914062 340,328.542969 C340,331.171875 338.929688,333.753906 337.070312,335.613281 C335.210938,337.480469 332.628906,338.542969 330,338.542969 C327.371094,338.542969 324.789062,337.480469 322.929688,335.613281 C321.070312,333.753906 320,331.171875 320,328.542969 C320,325.914062 321.070312,323.335938 322.929688,321.472656 C324.789062,319.613281 327.371094,318.542969 330,318.542969 Z M266,318.542969 C268.628906,318.542969 271.210938,319.613281 273.070312,321.472656 C274.929688,323.332031 276,325.914062 276,328.542969 C276,331.183594 274.929688,333.753906 273.070312,335.613281 C271.210938,337.480469 268.628906,338.542969 266,338.542969 C263.371094,338.542969 260.789062,337.480469 258.929688,335.613281 C257.070312,333.753906 256,331.171875 256,328.542969 C256,325.914062 257.070312,323.335938 258.929688,321.472656 C260.789062,319.613281 263.371094,318.542969 266,318.542969 Z M394,318.542969 C396.628906,318.542969 399.210938,319.613281 401.070312,321.472656 C402.929688,323.332031 404,325.914062 404,328.542969 C404,331.183594 402.929688,333.753906 401.070312,335.613281 C399.210938,337.480469 396.628906,338.542969 394,338.542969 C391.371094,338.542969 388.789062,337.484375 386.929688,335.613281 C385.070312,333.753906 384,331.183594 384,328.542969 C384,325.914062 385.070312,323.335938 386.929688,321.472656 C388.789062,319.613281 391.371094,318.542969 394,318.542969 Z M202,318.542969 C204.628906,318.542969 207.210938,319.613281 209.070312,321.472656 C210.929688,323.332031 212,325.914062 212,328.542969 C212,331.171875 210.929688,333.753906 209.070312,335.613281 C207.210938,337.480469 204.628906,338.542969 202,338.542969 C199.371094,338.542969 196.789062,337.480469 194.929688,335.613281 C193.070312,333.753906 192,331.171875 192,328.542969 C192,325.914062 193.070312,323.335938 194.929688,321.472656 C196.789062,319.613281 199.371094,318.542969 202,318.542969 Z M429.460938,177.582031 L405.484375,177.582031 C385.308594,177.582031 368.816406,193.601562 368.039062,213.589844 C370.441406,215.414062 372,218.296875 372,221.546875 L372,283.546875 L384,283.546875 L384,230.027344 C384,224.503906 388.476562,220.027344 394,220.027344 C399.523438,220.027344 404,224.503906 404,230.027344 L404,283.546875 L413,283.546875 C433.191406,283.546875 450.320312,296.917969 456,315.269531 L456,230.027344 C456,224.503906 460.476562,220.027344 466,220.027344 C471.523438,220.027344 476,224.503906 476,230.027344 L476,315.050781 C485.027344,313.757812 492,305.992188 492,296.609375 L492,215.0625 C492,194.394531 475.1875,177.582031 454.519531,177.582031 L430.539062,177.582031 C430.359375,177.585938 430.183594,177.59375 430,177.59375 L429.460938,177.582031 Z M352,231.546875 L300,231.546875 L300,283.546875 L352,283.546875 L352,231.546875 Z M219.433594,231.546875 L167.433594,231.546875 L167.433594,283.546875 L219.433594,283.546875 L219.433594,231.546875 Z M32.019531,224.964844 C34.660156,224.964844 37.230469,226.03125 39.089844,227.894531 C40.960938,229.753906 42.019531,232.332031 42.019531,234.964844 C42.019531,237.59375 40.960938,240.171875 39.089844,242.03125 C37.230469,243.894531 34.648438,244.964844 32.019531,244.964844 C29.390625,244.964844 26.808594,243.894531 24.949219,242.03125 C23.089844,240.171875 22.019531,237.59375 22.019531,234.964844 C22.019531,232.332031 23.089844,229.753906 24.949219,227.894531 C26.808594,226.03125 29.390625,224.964844 32.019531,224.964844 Z M66.726562,118.46875 C53.105469,118.46875 42.023438,129.550781 42.023438,143.175781 C42.023438,156.796875 53.105469,167.878906 66.726562,167.878906 C80.351562,167.878906 91.433594,156.796875 91.433594,143.175781 C91.433594,129.550781 80.351562,118.46875 66.726562,118.46875 Z M454,121.167969 L406,121.167969 L406,133.59375 C406,146.648438 416.476562,157.292969 429.460938,157.582031 L430.539062,157.582031 C443.523438,157.292969 454,146.648438 454,133.59375 L454,121.167969 Z M66.730469,133.171875 C69.359375,133.171875 71.9375,134.242188 73.800781,136.101562 C75.660156,137.964844 76.730469,140.542969 76.730469,143.171875 C76.730469,145.804688 75.660156,148.382812 73.800781,150.242188 C71.9375,152.101562 69.359375,153.171875 66.730469,153.171875 C64.089844,153.171875 61.519531,152.101562 59.660156,150.242188 C57.800781,148.382812 56.730469,145.8125 56.730469,143.171875 C56.730469,140.542969 57.800781,137.964844 59.660156,136.101562 C61.519531,134.242188 64.089844,133.171875 66.730469,133.171875 Z M137.867188,47.882812 L83.859375,101.886719 C94.570312,106.347656 103.179688,114.855469 107.78125,125.492188 L161.625,71.648438 C156.109375,69.894531 151.058594,66.839844 146.847656,62.632812 C142.574219,58.355469 139.585938,53.277344 137.867188,47.882812 Z M207.769531,48.058594 C206.003906,53.558594 202.953125,58.601562 198.753906,62.804688 L195.277344,66.277344 L241.800781,112.796875 C246.03125,117.03125 252.921875,117.03125 257.152344,112.796875 C259.203125,110.746094 260.335938,108.019531 260.335938,105.121094 C260.335938,102.222656 259.203125,99.496094 257.152344,97.445312 Z M420,79.179688 C410.164062,82.597656 402.589844,90.898438 400.210938,101.167969 L420,101.167969 Z M440,79.179688 L440,101.167969 L459.789062,101.167969 C457.410156,90.898438 449.835938,82.597656 440,79.179688 Z M184.609375,24.902344 C178.242188,18.53125 168.003906,18.375 161.417969,24.386719 C161.277344,24.546875 161.140625,24.707031 160.988281,24.859375 C154.476562,31.375 154.476562,41.972656 160.988281,48.488281 C167.503906,55.003906 178.105469,55.003906 184.621094,48.488281 C184.875,48.234375 185.140625,48 185.410156,47.78125 C188.066406,44.726562 189.53125,40.871094 189.53125,36.78125 C189.53125,32.292969 187.785156,28.074219 184.609375,24.902344 Z M172.800781,26.671875 C175.4375,26.671875 178.007812,27.746094 179.878906,29.601562 C181.738281,31.464844 182.808594,34.042969 182.808594,36.671875 C182.808594,39.304688 181.738281,41.882812 179.878906,43.742188 C178.007812,45.601562 175.4375,46.671875 172.800781,46.671875 C170.167969,46.671875 167.597656,45.601562 165.730469,43.742188 C163.871094,41.882812 162.808594,39.304688 162.808594,36.671875 C162.808594,34.042969 163.871094,31.464844 165.730469,29.601562 C167.597656,27.742188 170.167969,26.671875 172.800781,26.671875 Z" id="Combined-Shape"></path>
        </g>
    </g>
</svg>