<?xml version="1.0" encoding="UTF-8"?>
<svg viewBox="0 0 64 64" version="1.1" xmlns="http://www.w3.org/2000/svg" xmlns:xlink="http://www.w3.org/1999/xlink">
    <title>Combined Shape</title>
    <g id="Page-1" stroke="none" stroke-width="1" fill="none" fill-rule="evenodd">
        <g id="bank-account(1)" fill="#000000" fill-rule="nonzero">
            <path d="M31.478,0.147 C31.798,-0.05 32.203,-0.05 32.523,0.147 L63.523,19.147 C63.904,19.381 64.084,19.84 63.963,20.271 C63.841,20.702 63.447,21 63,21 L62,21 L62,27 C62,27.553 61.553,28 61,28 L60,28 L60,31 C60,31.553 59.553,32 59,32 L59,50 C59.553,50 60,50.447 60,51 L60,54 L61,54 C61.553,54 62,54.447 62,55 L62,58 L63,58 C63.553,58 64.0003365,58.447 64.0003365,59 L64.0003365,63 C64.0003365,63.553 63.553,64 63,64 L1,64 C0.447,64 0,63.553 0,63 L0,59 C0,58.447 0.447,58 1,58 L2,58 L2,55 C2,54.447 2.447,54 3,54 L4,54 L4,51 C4,50.447 4.447,50 5,50 L5,32 C4.447,32 4,31.553 4,31 L4,28 L3,28 C2.447,28 2,27.553 2,27 L2,21 L1,21 C0.553,21 0.159,20.702 0.038,20.271 C-0.084,19.84 0.096,19.381 0.478,19.147 Z M62,60 L2,60 L2,62 L62,62 L62,60 Z M60,56 L4,56 L4,58 L60,58 L60,56 Z M50,28 L46,28 L46,31 C46,31.553 45.553,32 45,32 L45,50 C45.553,50 46,50.447 46,51 L46,54 L50,54 L50,51 C50,50.447 50.447,50 51,50 L51,32 C50.447,32 50,31.553 50,31 L50,28 Z M36,28 L28,28 L28,31 C28,31.553 27.553,32 27,32 L27,50 C27.553,50 28,50.447 28,51 L28,54 L36,54 L36,51 C36,50.447 36.447,50 37,50 L37,32 C36.447,32 36,31.553 36,31 L36,28 Z M18,28 L14,28 L14,31 C14,31.553 13.553,32 13,32 L13,50 C13.553,50 14,50.447 14,51 L14,54 L18,54 L18,51 C18,50.447 18.447,50 19,50 L19,32 C18.447,32 18,31.553 18,31 L18,28 Z M26,52 L20,52 L20,54 L26,54 L26,52 Z M44,52 L38,52 L38,54 L44,54 L44,52 Z M58,52 L52,52 L52,54 L58,54 L58,52 Z M12,52 L6,52 L6,54 L12,54 L12,52 Z M57,32 L53,32 L53,50 L57,50 L57,32 Z M43,32 L39,32 L39,50 L43,50 L43,32 Z M25,32 L21,32 L21,50 L25,50 L25,32 Z M11,32 L7,32 L7,50 L11,50 L11,32 Z M26,28 L20,28 L20,30 L26,30 L26,28 Z M44,28 L38,28 L38,30 L44,30 L44,28 Z M58,28 L52,28 L52,30 L58,30 L58,28 Z M12,28 L6,28 L6,30 L12,30 L12,28 Z M60,21 L4,21 L4,23 L36,23 C36.553,23 37,23.447 37,24 C37,24.553 36.553,25 36,25 L4,25 L4,26 L60,26 L60,25 L40,25 C39.447,25 39,24.553 39,24 C39,23.447 39.447,23 40,23 L60,23 L60,21 Z M32,2.173 L4.545,19 L7.269,19 L18.483,12.229 C18.954,11.943 19.57,12.095 19.856,12.569 C20.141,13.042 19.989,13.656 19.516,13.942 L11.139,19 L52.861,19 L32,6.404 L22.517,12.131 C22.045,12.416 21.43,12.265 21.144,11.791 C20.859,11.318 21.011,10.704 21.484,10.418 L31.484,4.38 C31.8,4.189 32.201,4.189 32.517,4.38 L56.731,19 L59.455,19 L32,2.173 Z M37,11 C37.553,11 38,11.447 38,12 L38,16 C38,16.553 37.553,17 37,17 L27,17 C26.447,17 26,16.553 26,16 L26,12 C26,11.447 26.447,11 27,11 Z M36,13 L28,13 L28,15 L36,15 L36,13 Z" id="Combined-Shape"></path>
        </g>
    </g>
</svg>