<?xml version="1.0" encoding="UTF-8"?>
<svg viewBox="0 0 470 302" version="1.1" xmlns="http://www.w3.org/2000/svg" xmlns:xlink="http://www.w3.org/1999/xlink">
    <title>Combined Shape</title>
    <g id="Page-1" stroke="none" stroke-width="1" fill="none" fill-rule="evenodd">
        <g id="tank(2)" transform="translate(-21, -105)" fill="#000000" fill-rule="nonzero">
            <path d="M272.708,104.999999 C274.564841,104.999999 276.345935,105.736095 277.65892,107.04908 C278.971905,108.362065 279.709062,110.143159 279.708,111.999999 L279.708,146.304 C279.709062,148.160841 278.971905,149.941935 277.65892,151.25492 C276.345935,152.567905 274.564841,153.305062 272.708,153.304 L253.056,153.304 L253.056,163.264 L286.164,163.264 C286.894456,163.263227 287.620546,163.376594 288.316,163.6 L350.296,183.62 C353.185469,184.553514 355.143567,187.243476 355.144,190.28 L355.144,197.332 L425.284,197.332 C426.072879,194.246511 428.85126,192.087011 432.036,192.084 L484,192.084 C485.856841,192.082938 487.637935,192.820095 488.95092,194.13308 C490.263905,195.446065 491,197.227159 491,199.084 L491,229.628 C491,231.484841 490.263905,233.265935 488.95092,234.57892 C487.637935,235.891905 485.856841,236.629062 484,236.628 L432.036,236.628 C428.851747,236.623574 426.07413,234.464669 425.284,231.38 L355.144,231.38 L355.144,238.428 C355.145062,240.284841 354.407905,242.065935 353.09492,243.37892 C351.781935,244.691905 350.000841,245.429062 348.144,245.428 L333.76,245.428 L333.76,262.4 L446.4,262.4 C448.040492,262.400326 449.628822,262.976485 450.888,264.028 L488.488,295.476 C490.079954,296.805999 491,298.773581 491,300.848 L491,348.448 C491,350.304841 490.263905,352.085935 488.95092,353.39892 C487.637935,354.711905 485.856841,355.449062 484,355.448 L468.74,355.448 C465.175963,384.836321 440.255607,406.952665 410.652,406.999999 L101.348,406.999999 C71.7437131,406.954451 46.8223443,384.837209 43.26,355.448 L28,355.448 C24.1340068,355.448 21,352.313993 21,348.448 L21,300.848 C21,298.77448 21.9184368,296.807455 23.508,295.476 L61.108,264.028 C62.3685772,262.976202 63.9582527,262.400068 65.6,262.4 L94.364,262.4 L94.364,245.428 L79.964,245.428 C77.7364346,245.427973 75.6418706,244.36774 74.3229607,242.572601 C73.0040508,240.777462 72.6182762,238.461761 73.284,236.336 L94.668,168.16 C95.5839527,165.241348 98.2889975,163.255489 101.348,163.256 L175.056,163.256 L175.056,153.304 L172.556,153.304 C159.217219,153.304 148.404,142.490781 148.404,129.152 C148.404,115.813219 159.217219,104.999999 172.556,104.999999 L272.708,104.999999 Z M307.552,303.9 C289.53167,303.898382 273.284914,314.752535 266.388085,331.40084 C259.491256,348.049144 263.302681,367.212724 276.044979,379.955021 C288.787276,392.697319 307.950856,396.508744 324.59916,389.611915 C341.247465,382.715086 352.101618,366.46833 352.1,348.448 C352.071345,323.856698 332.143302,303.928655 307.552,303.9 Z M204.448,303.9 C186.428034,303.9 170.182505,314.755179 163.286937,331.403612 C156.391368,348.052044 160.203781,367.214968 172.946393,379.956436 C185.689005,392.697904 204.852271,396.508596 221.500084,389.611533 C238.147897,382.714469 249.001618,366.467966 249,348.448 C248.969142,323.856051 229.039952,303.92865 204.448,303.9 Z M84.3036117,307.286937 C67.6551792,314.182505 56.8,330.428034 56.8,348.448 C56.826451,373.040864 76.7551383,392.971341 101.348,393 C119.367966,393.001618 135.614469,382.147897 142.511533,365.500084 C149.408596,348.852271 145.597904,329.689005 132.856436,316.946393 C120.114968,304.203781 100.952044,300.391368 84.3036117,307.286937 Z M152.9,376.176 C149.428646,382.579826 144.799701,388.284292 139.248,393 L166.552,393 C161.000299,388.284292 156.371354,382.579826 152.9,376.176 Z M256,376.176 C252.528539,382.580886 247.898068,388.285561 242.344,393 L269.652,393 C264.100299,388.284292 259.471354,382.579826 256,376.176 Z M359.1,376.176 C355.629961,382.580705 351.000832,388.285398 345.448,393 L372.756,393 C367.203063,388.284455 362.572776,382.580007 359.1,376.176 Z M410.648,303.896 C386.04261,303.896 366.096,323.84261 366.096,348.448 C366.096,373.05339 386.04261,393 410.648,393 C435.244862,392.971341 455.173549,373.040864 455.2,348.448 C455.2,323.84261 435.25339,303.896 410.648,303.896 Z M410.652,320.064 C426.336887,320.064 439.052,332.779113 439.052,348.464 C439.052,364.148887 426.336887,376.864 410.652,376.864 C394.967113,376.864 382.252,364.148887 382.252,348.464 C382.252,332.779113 394.967113,320.064 410.652,320.064 Z M101.336,320.048 C117.020887,320.048 129.736,332.763113 129.736,348.448 C129.736,364.132887 117.020887,376.848 101.336,376.848 C85.6511131,376.848 72.936,364.132887 72.936,348.448 C72.936,332.763113 85.6511131,320.048 101.336,320.048 Z M307.552,320.036 C323.236887,320.036 335.952,332.751113 335.952,348.436 C335.952,364.120887 323.236887,376.836 307.552,376.836 C291.867113,376.836 279.152,364.120887 279.152,348.436 C279.152,332.751113 291.867113,320.036 307.552,320.036 Z M204.448,320.036 C220.132887,320.036 232.848,332.751113 232.848,348.436 C232.848,364.120887 220.132887,376.836 204.448,376.836 C188.763113,376.836 176.048,364.120887 176.048,348.436 C176.048,332.751113 188.763113,320.036 204.448,320.036 Z M307.552,334.064 C299.5991,334.064 293.152,340.5111 293.152,348.464 C293.152,356.4169 299.5991,362.864 307.552,362.864 C315.5049,362.864 321.952,356.4169 321.952,348.464 C321.952,340.5111 315.5049,334.064 307.552,334.064 Z M204.448,334.064 C196.4951,334.064 190.048,340.5111 190.048,348.464 C190.048,356.4169 196.4951,362.864 204.448,362.864 C212.4009,362.864 218.848,356.4169 218.848,348.464 C218.848,340.5111 212.4009,334.064 204.448,334.064 Z M101.364,334.048 C93.4110996,334.048 86.964,340.4951 86.964,348.448 C86.964,356.4009 93.4110996,362.848 101.364,362.848 C109.3169,362.848 115.764,356.4009 115.764,348.448 C115.764,340.4951 109.3169,334.048 101.364,334.048 Z M400.469662,338.253662 C396.351291,342.372033 395.119288,348.56573 397.348135,353.946641 C399.576981,359.327553 404.827744,362.836 410.652,362.836 C418.6049,362.836 425.052,356.3889 425.052,348.436 C425.052,342.611744 421.543553,337.360981 416.162641,335.132135 C410.78173,332.903288 404.588033,334.135291 400.469662,338.253662 Z M443.844,276.404 L68.156,276.404 L35,304.124 L35,341.448 L43.26,341.448 C46.8225094,312.05949 71.744384,289.943515 101.348,289.9 L410.652,289.9 C440.254936,289.945301 465.175797,312.060378 468.74,341.448 L477,341.448 L477,304.124 L443.844,276.404 Z M372.756,303.9 L345.448,303.9 C351.000832,308.614602 355.629961,314.319295 359.1,320.724 C362.572776,314.319993 367.203063,308.615545 372.756,303.9 Z M269.652,303.9 L242.344,303.9 C247.898068,308.614439 252.528539,314.319114 256,320.724 C259.471354,314.320174 264.100299,308.615708 269.652,303.9 Z M166.552,303.9 L139.248,303.9 C144.799701,308.615708 149.428646,314.320174 152.9,320.724 C156.371354,314.320174 161.000299,308.615708 166.552,303.9 Z M319.76,245.428 L108.348,245.428 L108.348,262.4 L319.76,262.4 L319.76,245.428 Z M285.064,177.256 L106.492,177.256 L89.496,231.428 L341.144,231.428 L341.144,195.376 L285.064,177.256 Z M477,206.084 L439.036,206.084 L439.036,222.628 L477,222.628 L477,206.084 Z M425.036,211.332 L355.144,211.332 L355.144,217.38 L425.036,217.38 L425.036,211.332 Z M239.052,153.304 L189.052,153.304 L189.052,163.256 L239.052,163.256 L239.052,153.304 Z M265.708,119 L172.552,119 C166.947946,119.006612 162.406612,123.547946 162.4,129.152 C162.404414,134.758527 166.949472,139.301794 172.556,139.304 L265.708,139.304 L265.708,119 Z" id="Combined-Shape"></path>
        </g>
    </g>
</svg>