<?xml version="1.0" encoding="UTF-8"?>
<svg viewBox="0 0 108 77" version="1.1" xmlns="http://www.w3.org/2000/svg" xmlns:xlink="http://www.w3.org/1999/xlink">
    <title>Combined Shape</title>
    <g id="Argon-Commander" stroke="none" stroke-width="1" fill="none" fill-rule="evenodd">
        <path d="M99.6505655,68.1455604 L102.250554,69.8788864 C102.410871,69.9858091 102.531014,70.1430774 102.59202,70.3258678 L103.458683,72.9258567 C103.517943,73.1037732 103.517943,73.2961045 103.458683,73.474021 L102.59202,76.07401 C102.474041,76.4279175 102.142827,76.6665908 101.769773,76.6665908 L96.5697953,76.6665908 C96.0911506,76.6665908 95.7031323,76.2785725 95.7031323,75.7999278 L95.7031323,70.59995 C95.7031323,70.3102021 95.8479388,70.039624 96.089014,69.8788864 L98.6890029,68.1455604 C98.9801343,67.9514477 99.3594341,67.9514477 99.6505655,68.1455604 Z M87.9289398,59.3338144 L88.0490898,59.3459065 C88.1679695,59.3663167 88.282176,59.4114707 88.3839469,59.4794724 L93.5839247,62.9461243 C93.8248403,63.1067554 93.9698064,63.3770902 93.9698064,63.6666462 L93.9698064,73.1999389 C93.9698064,73.5043668 93.8100856,73.7864742 93.5490415,73.9431024 L89.2157267,76.5430913 C89.0810322,76.6239054 88.9269067,76.6665908 88.7698286,76.6665908 L77.50321,76.6665908 C77.2134621,76.6665908 76.942884,76.5217843 76.7821464,76.2807091 L75.6352263,74.5602747 L73.7827342,76.4127668 C73.6201969,76.5752958 73.3997516,76.6665908 73.1698951,76.6665908 L65.3699284,76.6665908 C64.9968741,76.6665908 64.6656603,76.4279175 64.5476819,76.07401 L62.8143559,70.8740321 C62.7416878,70.6559453 62.7586393,70.4179224 62.8614807,70.212335 L64.5948067,66.7456831 C64.6685096,66.5982746 64.7827153,66.474937 64.9240303,66.3901346 L69.2573451,63.7901457 C69.4959709,63.6469865 69.7888257,63.627119 70.0446001,63.7367376 L74.9032211,65.8190037 L74.9032211,63.6666462 C74.9032181,63.3622183 75.0629419,63.0801109 75.3239859,62.9234827 L79.6573008,60.3234938 C79.7641571,60.259383 79.8835822,60.2190697 80.0074326,60.2053026 L87.8073993,59.3386397 L87.9289398,59.3338144 Z M25.3750741,0.381332979 C28.975821,0.375062708 32.1373924,2.79340331 33.1441289,6.25315836 L35.5490386,6.40985452 L36.7512014,6.44083728 L36.5984998,7.51764559 L36.5624305,8.70922364 L36.526672,9.89053319 L35.4656808,9.7545521 L32.5210514,9.70823633 L32.3907564,9.95303929 C32.1016041,12.6585064 30.2386455,15.0014065 27.6256885,15.898996 L27.1484558,16.0446122 C27.001822,16.083828 26.850336,16.1191237 26.6981833,16.1493498 L26.625889,16.158548 L26.6207229,16.3970671 L27.0180771,16.465759 C29.5995994,16.9335938 31.113164,17.857763 32.5400195,19.734746 L32.7950543,20.08105 L32.8745178,20.0313174 L32.8972756,20.060035 C33.0029007,20.1970049 33.1050129,20.3305655 33.2054024,20.4632806 L33.4044146,20.7283432 C34.129593,21.7016772 34.8262976,22.7214645 36.2004416,24.7988191 L36.5925346,25.3923507 L36.8021725,25.7102064 C40.3365134,31.0713949 42.239692,33.2842192 45.274183,35.4563668 C46.1606471,36.0487999 46.7704193,36.9059904 47.0909495,37.9620558 L47.1045195,38.0142918 L59.5876763,40.4935598 C60.0703886,38.3406964 60.2581823,36.5197143 60.3059625,34.7685568 L60.3177312,33.7078611 L60.3418394,33.0802667 C60.4158229,30.3426265 60.0925678,27.3569876 59.3359433,23.6098958 L58.4720349,19.3326701 L61.2306083,22.7158054 C63.5170212,25.5199809 65.023086,29.2469492 65.6531435,33.578781 L65.7772027,34.5190566 C66.0689886,37.0297562 66.048415,39.5622722 65.7142531,42.0069642 L65.573785,42.9222761 L65.8125876,42.9596038 L65.9537697,42.0395854 L65.9790153,41.8165195 L66.0162567,41.8241404 L66.7322559,42.0933046 L67.8826823,42.3276726 L67.5765106,43.3411588 L67.1432766,45.7028788 L66.922804,46.9035867 L66.8877532,46.8964141 L64.9821227,46.3852201 L64.8277115,46.5270265 C64.0831518,49.2532861 62.9761347,51.9974485 61.5723392,54.6071318 L60.9567536,55.7099551 L60.4639294,56.5398679 C58.4725623,59.8080034 56.2396202,62.4579618 53.7387206,64.4902951 L50.2776125,67.3012748 L52.0701777,63.2239693 C53.7353702,59.4343395 54.7421254,57.0613594 55.6213614,54.82586 L55.838821,54.269109 C55.8747239,54.1765478 55.9104822,54.0840402 55.9461343,53.9914937 L56.1590805,53.4350074 C57.1812562,50.6821241 58.0811426,47.7134692 59.0226478,44.0204351 L58.7885544,43.9603647 L58.4675671,45.1841822 L46.4034118,42.6987211 L46.0740144,43.0092151 C44.7237963,44.5587518 42.7080988,44.9228619 40.9052579,43.8423729 L40.5282996,43.593425 C39.1966269,42.6157818 38.1178084,41.6848392 37.1533649,40.6743305 L36.9776515,40.8422445 L31.8638367,39.8391829 L31.6677782,40.345398 C31.4715328,41.7513467 31.2167856,43.2555279 30.8802876,45.0048493 L30.679534,46.0239486 L31.1083013,46.2752395 C31.8492169,46.5215537 32.8030551,46.8589983 33.8636693,47.248666 L35.0840011,47.7024975 C36.9589324,48.4078972 38.665529,49.0862656 39.3635084,49.405606 L39.4172709,49.4323904 C41.257888,50.2807441 42.0367985,52.1826218 41.7042365,54.645625 C41.6289507,55.0694207 41.5533779,55.5054256 41.4704014,55.994903 L41.2924682,57.0573806 C41.2282417,57.4463556 41.2211054,57.4895751 41.1314379,58.0340105 L41.0935898,58.2638166 C40.9751662,58.9826412 40.9751662,58.9826412 40.9011315,59.4301803 C40.2885786,63.1168899 39.8557461,65.2627232 39.254809,67.5382929 C38.9536859,68.6785561 38.6254919,69.7705644 38.2555572,70.8598174 C37.3060807,73.4919347 34.8238579,74.816185 32.3222039,74.1332677 C29.7826305,73.439999 28.481221,71.0178452 29.3312524,68.343297 C30.5025099,64.730504 31.1776055,61.5317676 32.0745906,55.4800445 L31.8355351,55.4442439 L31.6683194,56.5156415 L31.6572968,56.3896412 C31.5393936,56.3615091 31.515813,56.3558827 31.4244885,56.3340934 L31.3407609,56.3141166 L30.9556522,56.222233 C29.4378106,55.8601842 28.0005139,55.5176654 26.6978667,55.2075995 C24.5333871,54.6923994 22.8603575,54.295329 21.8042511,54.046203 L21.5166757,53.9799695 L21.2820489,54.3025922 C20.1910946,57.0935011 18.9726149,59.8911886 17.3738813,63.2891271 L16.684578,64.7423666 C16.3750691,65.3900278 15.7442988,66.6923333 14.8025574,68.6303179 C14.6603882,68.9228812 12.9057257,72.5308722 12.7635888,72.8253974 C11.514926,75.3440119 8.873771,76.3978041 6.46339872,75.4377714 C3.99425319,74.4543299 2.99799182,71.8525134 4.18122393,69.162065 C9.72260622,57.8248496 12.1371198,52.3516093 14.0263915,46.496428 L14.2269222,45.8673411 C14.42568,45.2362237 14.6194748,44.598161 14.8115067,43.9454708 C15.4042568,41.5076977 15.8446684,38.8721061 16.2060287,35.6572199 L15.9658815,35.6295747 L15.8335919,36.7173605 L15.4298708,36.6402228 L9.56394691,35.3959651 L9.34387646,35.6328962 C8.44461273,37.1573789 6.68090959,37.8474773 4.79048578,37.4446202 L4.3546672,37.33274 C1.87820753,36.5895062 0.400927348,34.3241042 0.864592167,31.7793427 C2.69943585,21.598236 9.82783511,16.1465588 21.0545877,16.0771438 C21.6186455,16.0766564 22.1476142,16.082021 22.6453605,16.0934098 L22.8900033,16.1013868 L22.9349025,15.8671811 L22.7294378,15.7938303 C20.7688067,15.0304922 19.222509,13.450151 18.5434095,11.4530919 L18.4071089,11.0039011 C18.3213495,10.68359 18.2620376,10.3397092 18.2300662,9.98156816 L18.2098833,9.63190744 L17.0495236,9.45812508 L17.1689718,8.44627682 C17.191439,3.96124186 20.8575936,0.363709178 25.3750741,0.381332979 Z M99.1697842,69.9082446 L97.9301312,70.7346077 L99.7826233,72.5870998 L98.5569452,73.8127779 L97.4364583,72.692291 L97.4364583,74.9332648 L101.145126,74.9332648 L101.722865,73.1999389 L101.04156,71.1561309 L99.1697842,69.9082446 Z M70.7506054,65.9250616 L71.4298525,71.3591467 L69.7099599,71.5740791 L69.0082879,65.9609198 L66.0321672,67.7465705 L64.5723818,70.6664664 L65.9945757,74.9332648 L68.4775651,74.9332648 L66.4904153,72.946115 L67.7160934,71.7204369 L70.9289213,74.9332648 L72.8109883,74.9332648 L74.9032211,72.8409237 L74.9032211,67.704754 L70.7506054,65.9250616 Z M87.6848749,61.0962322 L82.4496889,61.6778714 L86.6734792,64.6947252 L85.6659835,66.1052191 L80.0617074,62.1021029 L76.636547,64.1572858 L76.636547,69.733287 L80.9698618,69.733287 L80.9698618,71.4666129 L76.636547,71.4666129 L76.636547,72.9375567 L77.966983,74.9332648 L88.5294379,74.9332648 L92.2364805,72.7092993 L92.2364805,65.4698468 L89.6364915,67.549838 L89.6364915,71.4666129 C89.6364999,71.6964695 89.5451965,71.9169147 89.3826676,72.079452 L87.6493417,73.8127779 L86.4236636,72.5870998 L87.9031656,71.1077061 L87.9031656,67.1332981 C87.9030997,66.8700626 88.0226761,66.6210648 88.2281642,66.4565426 L91.6359914,63.7302376 L87.6848749,61.0962322 Z M21.0592024,18.2307369 C10.8668142,18.2937721 4.63390037,23.0267558 2.98782988,32.1603957 C2.72468546,33.6046394 3.54121373,34.8390202 4.98269697,35.2715772 C6.33718727,35.6780296 7.43548052,35.1488586 7.73957872,33.8979121 L8.00939817,32.7879756 L7.89903515,32.884055 L8.30974443,31.6301012 C8.89147596,29.1001158 9.9500909,27.1191826 11.5302374,25.6948574 L12.0403904,25.268335 C13.4330355,24.2283165 14.9604183,23.7164107 17.6393532,23.3451345 L18.9435913,23.1636002 L18.9476545,23.2753566 L18.8647947,24.3734334 C18.9697807,27.4135279 18.9285504,30.1556736 18.7330414,32.8112441 L18.6758897,33.533503 L18.5635603,34.8603893 L18.6096597,34.7332545 L18.3502456,35.8952775 C18.0576713,38.4981984 17.7150932,40.7225556 17.2803799,42.7978131 L17.1595057,43.3602681 L16.8948022,44.5016871 C16.6649957,45.2832058 16.4331615,46.0433429 16.1941386,46.7945145 L15.987381,47.4364699 C15.9525879,47.5431931 15.917618,47.6498057 15.8824562,47.7563439 L15.6690629,48.3949702 C13.7976164,53.9270169 11.3260453,59.4537207 6.13869661,70.0648795 C5.46364989,71.6008965 5.9298988,72.9056575 7.26499832,73.4374173 C8.63396571,73.9826664 10.0831838,73.3781302 10.824833,71.8823333 C10.967862,71.58592 12.7470949,67.9273257 12.8642008,67.6863406 C13.8001797,65.760228 14.4292688,64.4614263 14.7374108,63.816624 C16.9114526,59.2673347 18.4000734,55.8501191 19.7358355,52.3149917 L20.0970712,51.3589725 L20.9620987,51.6389421 L20.9874949,51.6442997 L21.0684605,51.6622664 C21.5740061,51.7763027 23.5917187,52.2537072 27.1847207,53.1089312 C28.5013987,53.4223368 29.9388619,53.7648942 31.4593477,54.1275736 C32.383155,54.3479861 32.6397681,54.4092118 32.8564695,54.4609254 L32.9559357,54.4846629 C33.006536,54.4967389 33.0601501,54.5095346 33.124487,54.5248896 L33.2965569,54.5659706 L33.3939233,54.5892195 L34.4610288,54.8440226 L34.2090542,55.792933 C33.2932666,61.9715114 32.5973703,65.2618572 31.3859892,68.9983572 C30.9117178,70.4906384 31.5276607,71.6830364 32.8935593,72.055908 C34.3120172,72.4431275 35.6596624,71.7007546 36.2187638,70.1515442 C36.5670792,69.1253927 36.8808251,68.0805094 37.1684072,66.9915217 C37.7499647,64.7893366 38.1719244,62.6948052 38.772512,59.0801099 C38.7887035,58.9822301 38.8013532,58.9057615 38.8124774,58.8384835 L38.8590451,58.5565246 C38.8756725,58.4557208 38.8956731,58.3343513 38.9258525,58.1511716 L38.9652299,57.9121548 C39.0914766,57.145605 39.0914766,57.145605 39.1637246,56.7080578 C39.3277395,55.7187628 39.4539365,54.980001 39.5726493,54.3169386 C39.7695329,52.8547732 39.3958355,51.7956932 38.488267,51.37702 L38.4376369,51.3516812 C37.9097996,51.1103032 36.3942477,50.5111147 34.7617245,49.883606 L34.2144122,49.6738396 C34.1228696,49.6388544 34.0312646,49.6038947 33.9397464,49.5690171 L33.3928747,49.3611887 C31.4908343,48.6404007 29.7587988,48.0056417 29.579476,47.9801306 L29.4860322,47.9847524 L29.5258617,46.9591059 L28.3461899,46.6540084 L28.4962222,45.8144938 L28.5514644,45.6642229 C29.0635495,43.104493 29.4040925,41.0959694 29.6399351,39.2293544 L29.7372296,38.4146809 L29.8809614,37.1296833 L29.9705201,37.1470972 L31.0188681,37.4761941 L38.1456121,38.8759461 L38.5192683,38.9493353 L38.7177377,39.1893425 C39.5907713,40.1040937 40.5770941,40.9543875 41.8054475,41.8560515 C42.9578373,42.6885529 44.1601048,42.3251842 44.8580868,40.9885327 L45.2734812,40.1930431 L46.0240947,40.4288443 L60.2775826,43.2283483 L61.512993,43.4707787 L61.4972844,43.531928 L61.1136792,44.5493666 C60.2127659,48.0831796 59.3470696,50.9723774 58.3751285,53.6552884 L58.1792817,54.18925 C57.7601592,55.2918091 57.3399379,56.3545498 56.8731163,57.4919839 L56.7430541,57.8005016 L56.9504929,57.9203853 L57.0453248,57.7965219 C57.5202618,57.1405776 57.9809432,56.4534602 58.4295408,55.7326128 L59.0886834,54.6341749 L59.5701389,53.7772134 C61.1372201,50.9022302 62.3232287,47.8506117 63.0271329,44.8567576 L63.2875622,43.7437439 L64.2452018,44.0314562 L65.0529772,44.1949225 L65.0973125,44.2072679 L65.2282203,44.145616 L65.1476112,43.9670736 L64.2935518,43.7949721 L63.1577202,43.5635772 L63.4471008,42.5605285 C63.9246891,39.7580241 63.9477582,36.8007388 63.5181671,33.8928487 C63.3287611,32.5906307 63.0538106,31.3468159 62.6959162,30.1743976 L62.6714324,30.0977258 L62.435585,30.1418136 L62.4793653,30.8740851 C62.5082667,31.5333259 62.5171889,32.1775447 62.5060244,32.8092358 L62.4740035,33.7523609 C62.4890807,36.2474131 62.2193159,38.8733202 61.6431692,41.9782686 L61.4217364,43.1649777 L60.3765957,42.840557 L46.012592,40.0706656 L45.1700396,39.9081915 L45.1496044,39.161523 C45.0309251,38.3017863 44.663124,37.641147 44.0441705,37.2267923 C40.7324816,34.8569474 38.699476,32.5081366 34.9992828,26.8953691 L34.6646259,26.388042 L34.223508,25.7206009 C32.6181927,23.2951275 31.9526452,22.3337574 30.6725433,20.5600448 L30.5876881,20.6094854 L30.5484361,20.563103 C28.9720662,18.7130416 26.9437074,18.2256477 21.0592024,18.2307369 Z M84.4365137,69.733287 L84.4365137,71.4666129 L82.7031878,71.4666129 L82.7031878,69.733287 L84.4365137,69.733287 Z M106.969751,62.7999832 C107.448396,62.7999832 107.836414,63.1880015 107.836414,63.6666462 L107.836414,67.1332981 C107.836414,67.6119428 107.448396,67.9999611 106.969751,67.9999611 L103.503099,67.9999611 C103.024454,67.9999611 102.636436,67.6119428 102.636436,67.1332981 L102.636436,63.6666462 C102.636436,63.1880015 103.024454,62.7999832 103.503099,62.7999832 L106.969751,62.7999832 Z M106.103088,64.5333092 L104.369762,64.5333092 L104.369762,66.2666351 L106.103088,66.2666351 L106.103088,64.5333092 Z M30.1999865,28.2896693 L32.2059168,31.0176657 C32.3957583,31.2761703 32.5914183,31.5447647 32.8527496,31.9054818 C33.0119545,32.1254651 33.0437955,32.1694617 33.1109697,32.262257 L33.1706575,32.344709 C33.2877369,32.5063946 33.2877369,32.5063946 33.4817412,32.774239 L33.8047997,33.2180383 C34.7363831,34.4928087 35.3440608,35.2765422 36.0172499,36.0717588 L37.9862063,38.3969153 L34.9888971,37.8248679 L30.8691081,37.0377008 L29.834693,36.8400553 L29.9961943,35.9161634 L30.01484,35.6273486 C30.0347953,35.3376618 30.0606539,35.0195911 30.1101904,34.4412214 C30.2365957,32.9653591 30.2683787,32.3817051 30.2568319,31.6735772 L30.1999865,28.2896693 Z M16.5930337,25.6978642 C15.1445204,25.9816232 14.1747466,26.3627417 13.3439983,26.9830847 C12.2209021,27.8538705 11.3843902,29.0938617 10.8205323,30.6920024 L10.7527097,30.9014479 L10.870709,30.9265314 L10.8677398,30.9384194 L11.3529847,31.0302432 L16.4777217,32.132026 L16.629825,31.9383311 C16.747944,30.045772 16.7867875,28.101342 16.7497317,26.0201753 L16.7429216,25.8102794 L16.5930337,25.6978642 Z M25.3710645,2.53493581 C22.5539847,2.52395745 20.1356518,4.42140448 19.4918499,7.08818753 L19.4478218,7.30427287 L19.5664059,7.32470675 L19.5990072,7.33046514 L20.6584782,7.5134903 L20.6508251,7.5776575 L20.4022842,8.64172763 C20.3359394,9.19444143 20.3480616,9.7480835 20.4400358,10.2202601 L20.4926836,10.4491782 C21.1956728,13.0727695 23.9658148,14.6680684 26.5951603,13.9635374 C28.9336472,13.3369417 30.4921246,11.0955814 30.24736,8.7230419 L30.1096659,7.39428094 L30.2093829,7.39551431 L31.0735041,7.52883113 L31.1940745,7.38530251 L31.1410128,7.10957001 C30.5339294,4.61360777 28.3937722,2.76013113 25.8544628,2.55408792 L25.3710645,2.53493581 Z" id="Combined-Shape" fill="currentColor" fill-rule="nonzero"></path>
    </g>
</svg>