<?xml version="1.0" encoding="UTF-8"?>
<svg viewBox="0 0 683 619" version="1.1" xmlns="http://www.w3.org/2000/svg" xmlns:xlink="http://www.w3.org/1999/xlink">
    <title>Combined Shape</title>
    <g id="Page-1" stroke="none" stroke-width="1" fill="none" fill-rule="evenodd">
        <g id="line-chart" transform="translate(0, -32)" fill="currentColor" fill-rule="nonzero">
            <path d="M640.602251,203.075482 C646.125098,203.075482 650.602251,207.552634 650.602251,213.075482 L650.6016,630.60142 L672.666783,630.602271 C678.096023,630.602271 682.514715,634.928942 682.662941,640.322366 L682.666783,640.602271 C682.666783,646.125118 678.189631,650.602271 672.666783,650.602271 L341.4026,650.60142 L341.333325,650.602671 L341.263176,650.60243 L116.881464,650.602271 C111.358616,650.602271 106.881464,646.125118 106.881464,640.602271 C106.881464,635.079424 111.358616,630.602271 116.881464,630.602271 L181.6986,630.60142 L181.699195,597.849605 C181.699195,592.420366 186.025866,588.001674 191.419291,587.853448 L191.699195,587.849606 C197.222043,587.849606 201.699195,592.326758 201.699195,597.849605 L201.6986,630.60142 L331.3326,630.60142 L331.333325,341.333345 C331.333325,335.904105 335.659996,331.485414 341.05342,331.337187 L341.333325,331.333345 C346.856172,331.333345 351.333325,335.810498 351.333325,341.333345 L351.3326,630.60142 L480.9666,630.60142 L480.967455,512.344408 C480.967455,506.915168 485.294125,502.496476 490.68755,502.34825 L490.967455,502.344408 C496.490302,502.344408 500.967455,506.82156 500.967455,512.344408 L500.9666,630.60142 L630.6016,630.60142 L630.602251,213.075482 C630.602251,207.552634 635.079403,203.075482 640.602251,203.075482 Z M42.0643992,502.344408 C47.5872463,502.344408 52.0643992,506.82156 52.0643992,512.344408 L52.0636,630.60142 L74.1333315,630.602271 C79.5625713,630.602271 83.981263,634.928942 84.1294894,640.322366 L84.1333312,640.602271 C84.1333312,646.125118 79.6561788,650.602271 74.1333315,650.602271 L10,650.602271 C4.47715239,650.602271 9.30469352e-14,646.125118 9.23705556e-14,640.602271 C9.16942303e-14,635.079424 4.47715239,630.602271 10,630.602271 L32.0636,630.60142 L32.0643992,512.344408 C32.0643992,506.915168 36.3910699,502.496476 41.7844943,502.34825 L42.0643992,502.344408 Z M640.602651,74.8174852 C663.833498,74.8174852 682.66665,93.6506372 682.66665,116.881484 C682.66665,140.113268 663.833894,158.945483 640.602651,158.945483 C637.789314,158.945483 635.040489,158.669327 632.381807,158.142644 L517.308102,404.728828 C526.896166,412.438674 533.03252,424.266153 533.03252,437.526676 C533.03252,460.758731 514.199494,479.590675 490.967188,479.590675 C467.735945,479.590675 448.903189,460.75846 448.903189,437.526676 C448.903189,428.532707 451.72609,420.197909 456.534191,413.359983 L360.718591,303.85692 C354.917521,306.874685 348.324758,308.580279 341.333725,308.580279 C337.180384,308.580279 333.167624,307.978355 329.377927,306.856984 L220.923573,492.776944 C228.840584,500.426114 233.763727,511.154418 233.763727,523.032541 C233.763727,546.263388 214.930575,565.09654 191.699729,565.09654 C168.467819,565.09654 149.634396,546.263658 149.634396,523.032541 C149.634396,519.010606 150.19883,515.120511 151.252808,511.437147 L72.5778921,466.481058 C64.9131527,474.555739 54.0770271,479.590675 42.0649323,479.590675 C18.8326263,479.590675 -0.00039999999,460.758731 -0.00039999999,437.526676 C-0.00039999999,414.295559 18.8330225,395.462677 42.0649323,395.462677 C65.2957792,395.462677 84.1289312,414.295829 84.1289312,437.526676 C84.1289312,441.548291 83.5645796,445.438067 82.5107535,449.121134 L161.184777,494.078376 C168.849786,486.002813 179.686652,480.967208 191.699729,480.967208 C195.8522,480.967208 199.864147,481.568939 203.653133,482.689964 L312.108932,296.770897 C304.191678,289.121962 299.268393,278.393998 299.268393,266.51628 C299.268393,243.284226 318.101419,224.452281 341.333725,224.452281 C364.564968,224.452281 383.397724,243.284496 383.397724,266.51628 C383.397724,275.510249 380.574822,283.845048 375.766722,290.682974 L471.583326,400.185514 C477.384153,397.168074 483.976558,395.462677 490.967188,395.462677 C493.780477,395.462677 496.529265,395.738847 499.18792,396.265553 L614.260655,149.678892 C604.673152,141.969193 598.537318,130.14212 598.537318,116.881484 C598.537318,93.6503668 617.370741,74.8174852 640.602651,74.8174852 Z M191.699729,500.967208 C179.513243,500.967208 169.634396,510.846055 169.634396,523.032541 C169.634396,535.217835 179.513385,545.09654 191.699729,545.09654 C203.884881,545.09654 213.763728,535.217693 213.763728,523.032541 C213.763728,510.846197 203.885023,500.967208 191.699729,500.967208 Z M42.0649323,415.462677 C29.8785886,415.462677 19.9995995,425.341382 19.9995995,437.526676 C19.9995995,449.712779 29.8780638,459.590676 42.0649323,459.590676 C54.2506093,459.590676 64.1289317,449.712637 64.1289317,437.526676 C64.1289317,425.341524 54.2500845,415.462677 42.0649323,415.462677 Z M490.967188,415.462677 C478.782036,415.462677 468.903188,425.341524 468.903188,437.526676 C468.903188,449.712637 478.781511,459.590676 490.967188,459.590676 C503.154056,459.590676 513.032521,449.712779 513.032521,437.526676 C513.032521,425.341382 503.153531,415.462677 490.967188,415.462677 Z M191.805862,438.214809 C197.328709,438.214809 201.805862,442.691962 201.805862,448.214809 C201.805862,453.737657 197.328709,458.214809 191.805862,458.214809 L191.699195,458.214809 C186.176348,458.214809 181.699195,453.737657 181.699195,448.214809 C181.699195,442.691962 186.176348,438.214809 191.699195,438.214809 L191.805862,438.214809 Z M491.021988,352.709611 C496.544835,352.709611 501.021987,357.186764 501.021987,362.709611 C501.021987,368.232459 496.544835,372.709611 491.021988,372.709611 L490.913988,372.709611 C485.39114,372.709611 480.913988,368.232459 480.913988,362.709611 C480.913988,357.186764 485.39114,352.709611 490.913988,352.709611 L491.021988,352.709611 Z M42.0643989,352.709611 C47.5872463,352.709611 52.0643987,357.186764 52.0643987,362.709611 C52.0643987,368.232459 47.5872463,372.709611 42.0643989,372.709611 L41.9577325,372.709611 C36.4348849,372.709611 31.9577325,368.232459 31.9577325,362.709611 C31.9577325,357.186764 36.4348849,352.709611 41.9577325,352.709611 L42.0643989,352.709611 Z M341.333725,244.452281 C329.146856,244.452281 319.268392,254.330178 319.268392,266.51628 C319.268392,278.701574 329.147381,288.58028 341.333725,288.58028 C353.518877,288.58028 363.397724,278.701433 363.397724,266.51628 C363.397724,254.33032 353.519402,244.452281 341.333725,244.452281 Z M341.386658,181.699215 C346.909505,181.699215 351.386658,186.176368 351.386658,191.699215 C351.386658,197.222063 346.909505,201.699215 341.386658,201.699215 L341.279992,201.699215 C335.757144,201.699215 331.279992,197.222063 331.279992,191.699215 C331.279992,186.176368 335.757144,181.699215 341.279992,181.699215 Z M640.602651,94.8174847 C628.416307,94.8174847 618.537318,104.69619 618.537318,116.881484 C618.537318,129.067587 628.415782,138.945484 640.602651,138.945484 C652.788328,138.945484 662.66665,129.067445 662.66665,116.881484 C662.66665,104.696332 652.787803,94.8174847 640.602651,94.8174847 Z M640.708917,52.0644191 C646.231765,52.0644191 650.708917,47.5872667 650.708917,42.0644191 C650.708917,36.541572 646.231765,32.0644191 640.708917,32.0644191 L640.602251,32.0644191 C635.079403,32.0644191 630.602251,36.541572 630.602251,42.0644191 C630.602251,47.5872667 635.079403,52.0644191 640.602251,52.0644191 L640.708917,52.0644191 Z" id="Combined-Shape"></path>
        </g>
    </g>
</svg>