<?xml version="1.0" encoding="UTF-8"?>
<svg viewBox="0 0 424 400" version="1.1" xmlns="http://www.w3.org/2000/svg" xmlns:xlink="http://www.w3.org/1999/xlink">
    <title>Combined Shape</title>
    <g id="Page-1" stroke="none" stroke-width="1" fill="none" fill-rule="evenodd">
        <g id="shopping-cart(1)" transform="translate(-44, -56)" fill="currentColor" fill-rule="nonzero">
            <path d="M98.3547637,55.9987005 C111.772786,55.9723212 123.6441,64.6709011 127.662897,77.4675962 C130.780685,88.6711741 133.735013,99.2872578 136.534445,109.346642 L441.208366,109.340356 C457.230674,109.340356 469.577898,123.472244 467.515621,139.230158 L449.259179,281.831345 C447.553834,295.037852 436.317067,304.952647 423.004802,304.992306 L187.691208,304.99042 C187.68419,306.529154 187.678592,308.264108 187.676568,310.22432 L187.676102,312.869791 C187.678249,316.106182 187.690501,319.876924 187.720114,324.279886 C187.733333,336.349497 197.515931,346.145314 209.585541,346.145314 L450.792667,346.145314 C455.208056,346.145314 458.790602,349.72786 458.790602,354.143248 C458.790602,358.558637 455.208056,362.141183 450.792667,362.141183 L450.792667,362.207281 L209.585541,362.207281 C188.685154,362.180842 171.737464,345.246372 171.711025,324.332765 L171.711025,295.487322 L122.790451,119.682382 C122.748238,119.544582 122.709647,119.405202 122.674792,119.264354 L112.367674,82.2266977 C110.397934,76.1588433 104.753111,72.0475084 98.3679835,72.0475084 L52.2575781,71.9946295 C47.8421895,71.9946295 44.2596437,68.4120837 44.2596437,63.9966951 C44.2596437,59.5813065 47.8421895,55.9987005 52.2575781,55.9987005 L98.3547637,55.9987005 Z M225.601644,214.145701 L165.70261,214.1536 C180.692739,268.012653 185.192013,284.171013 186.53512,288.997898 L230.392644,288.995701 L225.601644,214.145701 Z M441.853644,214.145701 L384.500644,214.145701 L379.709644,288.995701 L423.004802,288.996437 C428.292693,288.983217 432.76096,285.056958 433.448386,279.808727 L441.853644,214.145701 Z M370.443644,214.145701 L312.050644,214.145701 L312.050644,288.995701 L365.652644,288.995701 L370.443644,214.145701 Z M298.038644,214.145701 L239.658644,214.145701 L244.449644,288.995701 L298.038644,288.995701 L298.038644,214.145701 Z M140.992431,125.337046 L141.101425,125.757379 C149.41226,155.620898 156.222437,180.091047 161.802761,200.14141 L224.704644,200.132701 L220.141768,125.340615 L193.901212,125.33997 C191.105552,125.339871 188.278387,125.339762 185.419361,125.339642 L167.880024,125.338789 C159.195579,125.338309 150.23596,125.337731 140.992431,125.337046 Z M298.096599,125.338802 L281.549505,125.339699 C279.458737,125.339794 277.340734,125.339883 275.195138,125.339966 L248.100833,125.340645 C243.503377,125.340699 238.796923,125.340725 233.978881,125.340718 L238.761644,200.132701 L298.038644,200.132701 L298.096599,125.338802 Z M312.063417,125.33781 L312.050644,200.132701 L371.341644,200.132701 L376.1428,125.330508 C359.393377,125.332897 338.394759,125.335734 312.063417,125.33781 Z M424.481071,125.326421 L405.788626,125.326528 C405.011786,125.326607 404.218384,125.326692 403.408064,125.326783 L398.340287,125.327395 C397.460874,125.327508 396.563831,125.327626 395.648803,125.327748 L390.195091,125.328498 L385.397644,200.132701 L443.647644,200.132701 L451.704828,137.19432 C452.445133,131.430519 448.373457,126.155848 442.609657,125.415544 C442.117354,125.355262 443.911948,125.333158 428.470215,125.327472 L425.885963,125.326707 C425.430432,125.326601 424.962253,125.326506 424.481071,125.326421 Z M421.325897,456.001239 C400.637026,456.001239 383.874413,439.225407 383.887625,418.536535 C383.900852,397.847663 400.663465,381.08505 421.352337,381.098262 C442.027989,381.098262 458.790602,397.874103 458.790602,418.549755 C458.764162,439.225407 442.001549,455.98802 421.325897,456.001239 L421.325897,456.001239 Z M421.325897,397.094139 C409.481022,397.094139 399.883501,406.70488 399.883501,418.549755 C399.883501,430.394629 409.494242,439.992151 421.339117,439.992151 C433.183992,439.992151 442.781513,430.38141 442.781513,418.536535 C442.781513,406.67844 433.170772,397.067699 421.325897,397.05448 L421.325897,397.094139 Z M217.993287,456.001239 C197.304415,456.001239 180.541802,439.238626 180.541802,418.549755 C180.541802,397.860883 197.304415,381.09827 217.993287,381.09827 C238.682159,381.09827 255.444771,397.860883 255.444771,418.549755 C255.418332,439.225407 238.668939,455.9748 217.993287,456.001239 Z M217.993287,397.094139 C206.148412,397.094139 196.537671,406.69166 196.537671,418.549755 C196.537671,430.394629 206.135192,440.005371 217.993287,440.005371 C229.838162,440.005371 239.448903,430.407849 239.448903,418.549755 C239.448903,406.70488 229.851381,397.080919 217.993287,397.067699 L217.993287,397.094139 Z" id="Combined-Shape"></path>
        </g>
    </g>
</svg>