<?xml version="1.0" encoding="UTF-8"?>
<svg viewBox="0 0 200 200" version="1.1" xmlns="http://www.w3.org/2000/svg" xmlns:xlink="http://www.w3.org/1999/xlink">
    <title>Combined Shape</title>
    <g id="Page-1" stroke="none" stroke-width="1" fill="none" fill-rule="evenodd">
        <g id="usdc" fill="currentColor" fill-rule="nonzero">
            <path d="M100,4.26325641e-14 C155.228475,4.26325641e-14 200,44.771525 200,100 C200,155.228475 155.228475,200 100,200 C44.771525,200 0,155.228475 0,100 C0,44.771525 44.771525,4.26325641e-14 100,4.26325641e-14 Z M100,5 C47.5580777,5.060617 5.060617,47.5580777 5,100 C5,152.467051 47.5329488,195 100,195 C152.467051,195 195,152.467051 195,100 C195,47.5329488 152.467051,5 100,5 Z M122.5,30.54 C152.565731,40.3028317 172.931747,68.3076112 172.954536,99.9186934 C172.977286,131.529776 152.651635,159.563865 122.6,169.37 C121.863672,169.800255 121.022622,170.018305 120.17,170 C120.003482,170.009953 119.836518,170.009953 119.67,170 L119.38,170 C116.771244,169.418233 114.962757,167.039312 115.1,164.37 L115.1,159 C114.922031,156.30037 116.45297,153.778117 118.93,152.69 L119.07,152.63 C141.102577,144.561035 155.752985,123.593646 155.752985,100.13 C155.752985,76.6663545 141.102577,55.6989655 119.07,47.63 L118.82,47.53 L118.59,47.39 C116.600924,46.1075403 115.31635,43.9776571 115.11,41.62 L115.11,36 C115.033262,35.0689146 115.235152,34.1360407 115.69,33.32 C115.798579,32.9695327 115.949706,32.6336954 116.14,32.32 C116.809254,31.222327 117.889288,30.4375022 119.14,30.14 C120.271914,29.8692352 121.463289,30.0110655 122.5,30.54 Z M80.38,30 L80.71,30.06 C83.2530278,30.6930086 85.0129036,33.0103865 84.94,35.63 L84.94,40.75 C85.0740965,43.4152758 83.5679686,45.8924598 81.14,47 L81,47.1 C58.8316604,55.0938381 44.0556024,76.1294164 44.0556024,99.695 C44.0556024,123.260584 58.8316604,144.296162 81,152.29 L81.25,152.38 L81.48,152.52 C83.3601081,153.696536 84.6315395,155.636565 84.96,157.83 L84.96,163.66 C85.03804,164.592387 84.8323769,165.526585 84.37,166.34 C84.2613484,166.640724 84.1275413,166.931754 83.97,167.21 C83.3112715,168.331137 82.2307354,169.141539 80.97,169.46 C80.5621755,169.568035 80.1418876,169.621832 79.72,169.620045 L79.72,169.58 C78.9623034,169.582644 78.2149225,169.40437 77.54,169.06 C47.4967398,159.378212 27.1226041,131.429784 27.097506,99.8650276 C27.0724543,68.3002708 47.40216,40.319508 77.43,30.59 C78.3236926,30.0795897 79.3587413,29.87258 80.38,30 Z M120.36,35.06 L120.26,35.53 L120.09,35.71 L120.09,41.27 C120.174472,41.9640631 120.534924,42.5948541 121.09,43.02 C144.975485,51.9132916 160.79998,74.7357441 160.753137,100.22309 C160.706293,125.710437 144.798013,148.474567 120.88,157.28 L120.89,157.28 C120.360569,157.537495 120.043054,158.093147 120.09,158.68 L120.09,164.52 C120.078875,164.64663 120.118435,164.772501 120.2,164.87 L120.28,164.81 L120.69,164.68 C148.830694,155.652781 167.918926,129.483162 167.918926,99.93 C167.918926,70.3768383 148.830694,44.2072191 120.69,35.18 L120.36,35.06 Z M79.79,35.03 L79.67,35.12 L79.28,35.25 C51.1663918,44.1963265 32.0743155,70.3072591 32.0743155,99.81 C32.0743155,129.312741 51.1663918,155.423674 79.28,164.37 L79.66,164.52 L79.79,163.89 L79.94,163.74 L79.94,158.38 C79.8089768,157.763203 79.4523496,157.217564 78.94,156.85 C54.9081654,148.045128 38.9441055,125.156026 38.9843582,99.5620186 C39.0246109,73.9680111 55.0605888,51.1292367 79.12,42.4 C79.6673003,42.1517534 80.0136043,41.6008152 80.0003868,41 L80.0003868,35.54 C79.9953801,35.3616196 79.9197943,35.1924514 79.79,35.07 L79.79,35.03 Z M103.15,50.47 L103.41,50.53 C106.55,51.21 108.5,53.35 108.5,56.1 L108.5,63.61 C117.45651,65.3265778 124.425433,72.3909654 126.02,81.37 L126.02,82.05 C125.991183,83.4301225 125.413738,84.741904 124.415371,85.6952313 C123.417005,86.6485587 122.079983,87.1648779 120.7,87.13 L114.7,87.13 C112.414027,87.1086008 110.379634,85.6753686 109.59,83.53 L109.53,83.35 C108.288513,78.9536737 103.950328,76.1848024 99.44,76.91 L99.05,76.91 C92.93,76.91 89.83,79.09 89.83,83.37 L89.8304875,83.6931043 L89.8339001,84.0146439 C89.8865517,86.9006183 90.65,89.5624138 101.72,91.08 C114.87,92.61 127.13,96.18 128.33,111.37 L128.93,111.37 L128.85,113.94 C128.509772,125.175332 120.389479,134.656638 109.34,136.72 L109.34,144.11 C109.119241,147.028556 106.772121,149.332924 103.85,149.5 L103.78,149.53 L97.12,149.53 C94,148.9 92,146.73 92,144 L92,136.91 C81.2014641,135.45573 72.7002801,126.975001 71.22,116.18 L71.22,115.29 C71.2943886,112.531397 73.5294387,110.337904 76.2631731,110.289348 L82.8,110.29 C85.3727647,110.307652 87.5671662,112.157339 88.02,114.69 C88.85,118.85 90.94,122.75 100.41,122.75 C106.52,122.75 110.79,119.44 110.79,114.69 C110.79,111.05 109.96,108.69 98.45,106.69 L98.0599206,106.642187 L97.2795307,106.542093 C84.663379,104.873673 72.14,100.7018 72.14,84.27 C72.5394001,73.4679063 80.5320328,64.4610013 91.21,62.78 L91.21,55.64 C91.8,52.5 93.97,50.47 96.74,50.47 L103.15,50.47 Z M102.58,55.46 L96.78,55.46 C96.53,55.46 96.33,55.89 96.21,56.35 L96.21,67.45 L93.81,67.54 C84.7284857,67.9412749 77.460431,75.218013 77.07,84.3 C77.07,95.01 83.07,99.74 99.07,101.66 L99.2,101.66 C109.94,103.53 115.75,106.15 115.75,114.61 C115.75,122.18 109.28,127.67 100.37,127.67 C90.37,127.67 84.7,123.67 83.07,115.53 C83.0552769,115.355924 82.9144464,115.219361 82.74,115.21 L76.35,115.21 C76.18,115.21 76.15,115.28 76.15,115.35 L76.15,115.6 C77.4899633,124.813523 85.2348585,131.745604 94.54,132.06 L96.95,132.14 L96.95,144 C97,144.21 97.38,144.42 97.84,144.53 L103.63,144.53 C103.996046,144.488234 104.287794,144.204703 104.34,143.84 L104.34,132.29 L106.62,132.09 C115.194973,131.333657 122.179928,124.886955 123.62,116.4 L123.45,116.4 L123.45,113.9 C123.45,102.65 117.6,97.99 101.11,96.07 C89.22,94.45 84.83,91 84.83,83.4 C84.83,76.28 90.07,72.01 98.83,71.95 C105.72275,70.9499186 112.302446,75.1687655 114.27,81.85 C114.352226,82.0234022 114.528111,82.1328417 114.72,82.13 L120.8,82.13 C120.90688,82.1387961 121.007465,82.0784455 121.05,81.98 C119.602636,74.5206043 113.380873,68.9275496 105.81,68.28 L103.51,68.09 L103.51,56.09 C103.51,55.83 103.06,55.6 102.58,55.46 Z" id="Combined-Shape"></path>
        </g>
    </g>
</svg>