<?xml version="1.0" encoding="UTF-8"?>
<svg viewBox="0 0 61 81" version="1.1" xmlns="http://www.w3.org/2000/svg" xmlns:xlink="http://www.w3.org/1999/xlink">
    <defs>
        <path d="M0,0 L1440,0 L1440,7588 L0,7588 L0,0 Z" id="path-1"></path>
        <filter x="-0.7%" y="-0.1%" width="101.9%" height="100.4%" filterUnits="objectBoundingBox" id="filter-2">
            <feOffset dx="4" dy="4" in="SourceAlpha" result="shadowOffsetOuter1"></feOffset>
            <feGaussianBlur stdDeviation="4" in="shadowOffsetOuter1" result="shadowBlurOuter1"></feGaussianBlur>
            <feComposite in="shadowBlurOuter1" in2="SourceAlpha" operator="out" result="shadowBlurOuter1"></feComposite>
            <feColorMatrix values="0 0 0 0 0   0 0 0 0 0   0 0 0 0 0  0 0 0 0.25 0" type="matrix" in="shadowBlurOuter1"></feColorMatrix>
        </filter>
    </defs>
    <g id="Argon-Website" stroke="none" stroke-width="1" fill="none" fill-rule="evenodd">
        <g id="Dashboard" transform="translate(-1016, -4002)" xlink:href="#path-1">
            <use fill="black" fill-opacity="1" filter="url(#filter-2)" xlink:href="#path-1"></use>
            <path stroke-opacity="0.20703125" stroke="#4E4E4E" stroke-width="1" d="M1439.5,0.5 L1439.5,7587.5 L0.5,7587.5 L0.5,0.5 L1439.5,0.5 Z" stroke-linejoin="square"></path>
            <g id="AI-FIRST" stroke-width="1" fill-rule="evenodd" transform="translate(-0, 3685.1633)" fill="currentColor">
                <g id="LOGOS" transform="translate(109.2554, 317.1184)" fill-rule="nonzero">
                    <path d="M917.167715,0.048735281 C918.156417,-0.227388739 919.082768,0.716777266 918.815551,1.69657218 C918.138602,4.15496668 918.290025,6.66680454 919.189655,9.07175569 C920.418852,9.13410627 921.683678,9.22317854 922.921783,9.41913752 C923.625454,7.20123813 923.696712,4.9031737 923.082113,2.64964541 C922.814896,1.6698505 923.750155,0.725684492 924.72995,1.00180851 C926.91222,1.62531436 928.934161,3.03265615 929.833791,5.16148327 C930.795771,7.45064047 930.154451,9.89122052 928.853996,11.8864392 C930.403853,13.3205027 931.339112,15.5027732 930.439482,17.4000124 C931.757752,20.0721804 931.837917,23.3678542 929.940677,25.6481041 C931.356926,27.1445182 931.543978,29.3891392 931.018452,31.4467086 C930.979397,31.5988166 930.922791,31.7547194 930.861989,31.9126656 L930.738748,32.2307634 C930.577518,32.6571427 930.44976,33.0897493 930.608719,33.4953706 C930.858122,34.1455982 931.294576,34.573145 931.348019,35.3213521 C931.401462,36.025023 931.080802,36.7465083 930.858122,37.4590864 C931.650865,37.3967358 932.425794,37.6105093 933.227444,38.2340151 C934.59025,39.2939751 935.988684,39.0623872 937.583078,38.6259331 C940.201802,37.913355 943.550919,36.8979312 945.73319,39.1781811 C946.294345,39.7571508 946.383417,40.27377 947.256326,40.2203266 C948.004533,40.1757905 948.734925,40.1045327 949.483132,40.1490688 C950.730144,40.2292338 951.959341,40.5053579 953.063837,41.0576059 C954.569158,39.8284087 956.261532,38.5903042 958.265657,38.5724897 C959.63737,38.5635825 960.964547,39.2672534 961.730569,40.4073784 C961.953249,40.7369458 962.095765,41.1110493 962.17593,41.4851528 C962.737085,41.5207817 963.307148,41.5920395 963.850488,41.6989262 C965.240016,41.966143 966.772059,42.6074633 967.457915,43.9346401 L967.440101,43.9346401 C967.79639,44.6294037 967.564802,45.3152602 966.959111,45.7606215 C965.222201,47.0432621 963.218075,47.7914691 961.080341,48.0765004 C959.459226,48.2902738 957.838111,48.219016 956.208088,48.1121293 C956.199181,48.1299437 956.199181,48.1388509 956.199181,48.1477582 C958.728833,49.9470179 961.721661,52.7706087 960.064917,55.888138 C959.628463,56.6986956 959.25436,57.4736243 960.332134,58.7295432 C961.392094,59.9676477 959.583927,60.9919787 958.782277,62.0786604 C958.060791,63.049548 958.648668,64.6706633 958.336915,65.8196955 C958.158771,66.4610158 957.811389,67.022171 957.303677,67.4497179 C956.7158,67.9574298 956.270439,68.0554093 956.172459,68.8926886 C955.949779,70.7453917 956.208088,72.722796 956.306068,74.5665919 C956.386233,75.9383047 956.466398,77.3011104 956.564377,78.663916 C956.617821,79.3854014 955.91415,80 955.228293,80 L951.469444,80 C950.712329,80 950.168989,79.3854014 950.13336,78.663916 C950.008659,76.0897276 949.857236,73.5155391 949.598926,70.9502579 C949.420782,69.2044415 949.055585,67.414089 948.245028,65.9800255 C947.862017,66.6569748 946.579376,67.3873673 946.21418,68.4027911 C945.962328,69.0937692 945.874342,72.6640918 945.868756,75.6684944 L945.868749,76.2808899 C945.870422,77.1839804 945.879491,78.0096802 945.89352,78.6550088 C945.911334,79.3854014 945.270014,79.9910928 944.557436,79.9910928 L940.558091,79.9910928 C939.809884,79.9910928 939.257636,79.3764941 939.222007,78.6550088 C939.097306,75.8937686 938.928069,68.8481525 937.850294,67.5744191 C936.781427,66.3095929 936.086664,65.0358595 935.926334,63.4592805 C934.937631,63.55726 933.966744,63.7710334 933.405588,64.501426 C932.933505,65.1249318 932.835526,67.0310783 932.764268,67.7525636 C932.686394,68.5486152 932.425699,70.7273737 932.14345,72.9997335 L932.043201,73.8035304 C931.774882,75.9461576 931.504277,78.0373563 931.365834,79.0023906 C931.276761,79.5724531 930.599812,79.9821855 930.074286,79.9821855 C928.889625,79.9732783 927.713871,79.9643711 926.52921,79.9554639 C925.772095,79.9465566 925.228755,79.3408652 925.193126,78.6193799 C925.14062,77.6367722 925.045478,75.8156515 924.950918,73.9465754 L924.915569,73.244968 C924.798395,70.9090774 924.690571,68.6526623 924.676506,68.0197804 C924.640878,66.6747892 924.436011,65.3921486 923.340423,65.5792004 C922.993041,65.6326437 922.77036,65.9800255 922.467514,66.1403556 C922.173576,70.3089376 922.013246,74.4775196 921.844008,78.6461016 C921.817287,79.3675869 921.247224,79.9821855 920.507925,79.9821855 L916.374971,79.9821855 C915.60895,79.9821855 915.092331,79.3675869 915.038887,78.6461016 C914.994351,77.9602451 913.453401,61.7223713 913.417772,61.553134 C912.856617,61.3928039 912.295462,61.2413811 911.743214,61.0721438 C910.816862,60.7871125 909.917232,60.4041018 909.391706,59.549008 C908.554427,58.1951096 908.990881,56.5918089 909.703459,55.2557249 C908.28721,53.5900735 906.960033,51.6572054 907.075827,49.4036771 C907.182714,47.3015717 908.44754,45.7071781 909.935047,44.3621869 C909.204654,43.4536498 908.812736,42.2957104 908.830551,41.0932348 C908.848365,40.2292338 909.240283,38.3319946 910.683254,37.3076636 C910.184449,36.9068384 909.462964,35.9715796 909.34717,35.7845278 C908.830551,34.965063 908.696942,34.0565259 908.830551,33.1034527 C909.035417,31.580317 910.08647,30.7341304 910.959378,29.7008922 C908.848365,28.2133854 908.483169,25.21165 910.08647,23.1451735 C909.08886,21.7022028 908.313931,20.098902 908.492076,18.2996423 C908.652406,16.7408777 909.73018,15.4226082 910.950471,14.629865 C910.228985,12.2249139 912.019338,10.8086648 912.856617,10.6394275 C911.680863,8.69765218 911.137522,6.39068052 912.063874,4.20841004 C912.963504,2.07067569 914.985444,0.663333907 917.167715,0.048735281 Z M918.824459,11.7261092 C917.443839,11.6459441 916.018682,11.7795525 914.825114,12.545574 C914.459918,12.7771619 913.684989,13.3026883 913.569195,13.7569568 C913.417772,14.3715554 913.791876,14.9861541 913.542473,15.654196 C913.043669,16.9813728 911.413646,16.9724656 911.190966,18.4599724 C910.959378,20.0098298 912.152946,21.4617077 913.025854,22.6107399 C913.48903,23.2253385 913.079298,24.0626178 912.544864,24.4367213 C911.066264,25.4877741 911.725399,27.4829928 913.3287,27.883818 C914.22833,28.1064986 914.495547,29.0952008 914.13035,29.8434078 C913.791876,30.5648931 913.266349,31.1527701 912.723009,31.7228326 C912.233111,32.2305445 911.636327,32.7204419 911.502719,33.4419273 C911.235502,34.9205269 913.079298,35.2055581 913.551381,36.381312 C913.854226,37.1384263 913.667175,37.9044477 913.23072,38.5546753 C912.820988,39.1692739 912.099503,39.5344702 911.761028,40.1936049 C911.217687,41.2535649 911.663049,42.6609067 912.678472,43.2398764 C913.364329,43.6317944 913.622638,44.798641 912.945689,45.3419818 C911.663049,46.3663129 909.943954,47.631139 909.783624,49.4125843 C909.623294,51.247473 911.190966,52.9042171 912.322183,54.160136 C912.705194,54.5876829 912.865524,55.2735393 912.52705,55.7812513 C912.126224,56.3958499 911.110801,57.7942844 911.974802,58.328718 C912.562679,58.6939143 915.564414,59.3797707 916.268085,59.5757297 C916.793611,59.7271526 917.301323,60.2883078 917.24788,60.8672776 C917.096457,62.4527639 918.022808,64.029343 919.724089,64.1451369 C920.534646,64.1985803 921.238317,63.8957346 921.852916,63.3969299 C922.583308,62.8001457 923.073206,62.7110734 923.999557,62.9515686 C925.291105,63.2811359 926.395601,64.0738791 926.938942,65.3119836 C927.348674,66.2383351 927.348674,67.21813 927.384303,68.2157394 C927.49119,71.2441964 927.669335,74.2637462 927.829665,77.2922032 C928.203768,77.3011104 928.577872,77.3011104 928.951975,77.3011104 C929.317171,74.691293 929.655646,72.0725684 929.940677,69.4538439 C930.109915,67.886172 930.011935,66.1047267 930.41276,64.5726838 C930.822493,63.0139191 932.194206,61.6867424 933.699527,61.1879377 C934.661507,60.8672776 938.919162,60.5644319 939.996936,60.4753596 C942.277186,60.2794006 944.67323,60.2081428 946.828779,61.1166799 C950.77468,62.7823312 951.888083,67.0756144 952.280001,70.9591651 C952.493775,73.079085 952.627383,75.2079122 952.743177,77.3367393 L953.829859,77.3367393 C953.731879,75.9650264 953.642807,74.5933135 953.580456,73.2126934 C953.47357,70.9413507 952.867878,67.4675324 954.925448,65.8998605 C955.682562,65.3208908 955.833985,65.1694679 955.825077,64.1807658 C955.81617,63.361301 955.75382,62.5418361 955.985408,61.7401858 C956.208088,60.9474426 957.722317,60.1546994 957.722317,59.3441418 C957.722317,58.5959348 956.412954,57.77647 956.929574,56.2355198 L956.938481,56.2266126 C957.250234,55.3091682 957.802482,54.8014563 957.606523,53.7682181 C957.241326,51.8442572 955.308458,50.7041322 953.79423,49.7332445 C953.233075,49.3769554 952.867878,48.5040472 953.31324,47.9072631 C954.952169,45.6893637 952.680826,43.4358354 950.525278,42.9637524 C949.215915,42.6698139 947.951089,42.9815668 946.641727,42.8835873 C945.243292,42.7856078 944.780117,41.9483286 943.87158,41.0665131 C942.205928,39.4632124 939.159657,41.0754204 937.306954,41.4495239 C936.059942,41.7078334 934.714951,41.8414418 933.485753,41.4317094 C932.897877,41.2357504 932.390165,40.9507192 931.900267,40.5677085 C931.205503,40.0243676 930.911565,40.0154604 930.118822,40.4251928 C929.379522,40.7992963 928.373005,40.5053579 928.159232,39.6235424 C927.856386,38.3943452 928.257212,37.3789214 928.586779,36.2120747 C928.907439,35.0630425 927.81185,34.2702993 927.865294,33.0411021 C927.918737,31.8119048 928.898532,30.9657183 928.898532,29.4158609 C928.898532,28.3380865 928.23049,27.4295494 927.313046,26.8773014 C926.653911,26.4764762 926.351065,25.3185368 927.045829,24.7751959 C929.139027,23.1362663 929.237006,20.3037683 927.785129,18.0413327 C927.446654,17.5158064 927.615891,16.8566716 927.989995,16.4202175 C928.542243,15.7788972 927.90983,14.7278445 927.473376,14.2112254 C926.876591,13.4986472 925.976962,13.0354715 925.121868,12.7059041 C923.117742,11.9398826 920.944379,11.8329959 918.824459,11.7261092 Z M944.014095,63.1029914 C942.23265,62.8624963 940.379947,63.0940842 938.589594,63.2811359 C938.651945,63.9313635 938.812275,64.5459621 939.204193,65.1071174 C939.288317,65.2258804 939.485155,65.4243686 939.698489,65.6384352 L939.956249,65.8986875 C940.040702,65.9851939 940.121637,66.0700875 940.192895,66.1492629 C941.199412,67.2804806 941.17269,68.946132 941.324113,70.3891026 C941.564608,72.6960743 941.707123,75.0119532 941.822917,77.3278321 L943.203538,77.3278321 C943.159001,74.7981797 943.150094,72.2774347 943.390589,69.7566896 C943.497476,68.6611007 943.444033,67.2982951 944.316941,66.4966447 L944.334755,66.5055519 C945.172035,65.7306232 945.884613,64.9556945 946.294345,63.8957346 C945.653025,63.5038166 944.904818,63.2187853 944.014095,63.1029914 Z M916.633281,65.6771798 C917.043013,69.5518234 917.345859,73.4353741 917.621983,77.3189248 L919.234191,77.3189248 C919.376707,73.8094776 919.52813,70.2911232 919.759717,66.7905832 C919.064954,66.7816759 918.37019,66.6480675 917.711055,66.3541291 C917.319137,66.1759845 916.962848,65.9443966 916.633281,65.6771798 Z M959.583927,42.046308 C959.334525,40.941812 958.069698,41.217936 957.508543,41.3960805 C956.635635,41.6722045 955.887428,42.1977309 955.183757,42.7677934 C955.81617,43.5516293 956.243717,44.4957953 956.421862,45.4755902 C957.820296,45.5735697 959.218731,45.6359203 960.617165,45.4755902 C961.784012,45.3419818 962.879601,44.9946 963.912839,44.4868881 C963.120096,44.0682485 961.899806,44.0771557 960.79531,44.1573207 C959.646278,44.2374858 958.844627,43.0171957 959.583927,42.046308 Z M919.866604,20.6244284 C920.463388,20.6600573 921.06908,20.7045934 921.674771,20.7402224 C922.039967,20.766944 922.342813,20.9361813 922.592216,21.1944909 C922.841618,21.4528005 922.921783,21.8179968 922.921783,22.1653786 C922.921783,22.575111 922.761453,22.9314001 922.235926,23.243153 C922.324999,23.5281842 922.654566,24.0804323 923.082113,24.2407624 L923.073206,24.2318551 C923.536382,24.4099997 923.972836,24.579237 924.177702,24.7930104 C924.427104,25.05132 924.507269,25.4165162 924.507269,25.7638981 C924.498362,26.0934655 924.293496,26.4586617 924.053001,26.6813424 C923.563103,27.1177965 922.708009,27.0643531 922.084504,26.7347858 C921.781658,26.5744557 920.792956,25.8529703 920.614811,25.6391969 C920.142728,26.1201871 919.554851,26.4586617 918.940253,26.7615074 C918.227675,27.1088893 917.426024,26.7704147 917.1499,26.1647233 C917.007385,25.8618776 916.971756,25.4432379 917.078642,25.131485 C917.176622,24.8464538 917.354766,24.4723502 917.746684,24.3743707 C918.30784,24.2318551 918.860088,23.8221227 919.171841,23.1451735 C919.020418,23.0650085 918.886809,22.967029 918.771015,22.8423278 C918.521613,22.5840182 918.441448,22.2188219 918.441448,21.8714401 C918.441448,21.4706149 918.762108,21.0697897 918.895717,20.9539958 C919.154026,20.7313151 919.52813,20.606614 919.866604,20.6244284 Z M916.214641,16.4202175 C917.933736,16.4202175 917.933736,19.0923855 916.214641,19.0923855 C914.495547,19.0923855 914.495547,16.4202175 916.214641,16.4202175 Z M924.507269,16.4202175 C926.226364,16.4202175 926.226364,19.0923855 924.507269,19.0923855 C922.788174,19.0923855 922.788174,16.4202175 924.507269,16.4202175 Z M926.137292,4.60923523 C926.279807,6.43521665 926.092756,8.28791976 925.540507,10.0337361 C925.914611,10.1584373 926.2709,10.3009529 926.627189,10.461283 C927.918737,8.8757967 928.373005,6.08783482 926.137292,4.60923523 Z M915.796002,3.66506922 C913.391051,5.40197838 913.827505,8.35027034 915.261568,9.4458592 C915.644579,9.33006525 916.02759,9.24099299 916.419508,9.1786424 C915.849445,7.40610434 915.644579,5.52667955 915.796002,3.66506922 Z" id="llama" transform="translate(937.3387, 40) scale(-1, 1) translate(-937.3387, -40)"></path>
                </g>
            </g>
        </g>
    </g>
</svg>