<?xml version="1.0" encoding="UTF-8"?>
<svg width="111px" height="111px" viewBox="0 0 111 111" version="1.1" xmlns="http://www.w3.org/2000/svg" xmlns:xlink="http://www.w3.org/1999/xlink">
    <title>bitcoin</title>
    <defs>
        <path d="M0,0 L3456,0 L3456,16440 L0,16440 L0,0 Z" id="path-1"></path>
        <filter x="-0.3%" y="-0.1%" width="100.8%" height="100.2%" filterUnits="objectBoundingBox" id="filter-2">
            <feOffset dx="4" dy="4" in="SourceAlpha" result="shadowOffsetOuter1"></feOffset>
            <feGaussianBlur stdDeviation="4" in="shadowOffsetOuter1" result="shadowBlurOuter1"></feGaussianBlur>
            <feComposite in="shadowBlurOuter1" in2="SourceAlpha" operator="out" result="shadowBlurOuter1"></feComposite>
            <feColorMatrix values="0 0 0 0 0   0 0 0 0 0   0 0 0 0 0  0 0 0 0.25 0" type="matrix" in="shadowBlurOuter1"></feColorMatrix>
        </filter>
    </defs>
    <g id="Argon-Website" stroke="none" stroke-width="1" fill="none" fill-rule="evenodd">
        <g id="Frame-3-Copy-5" transform="translate(-1785, -6710)" xlink:href="#path-1">
            <use fill="black" fill-opacity="1" filter="url(#filter-2)" xlink:href="#path-1"></use>
            <path stroke-opacity="0.20703125" stroke="#4E4E4E" stroke-width="1" d="M3455.5,0.5 L3455.5,16439.5 L0.5,16439.5 L0.5,0.5 L3455.5,0.5 Z" stroke-linejoin="square"></path>
            <g id="Group-Copy-2" stroke-width="1" fill-rule="evenodd" transform="translate(388, 6660.2272)">
                <g id="bitcoin" transform="translate(1397.5, 50.6274)">
                    <rect id="background" fill-opacity="0" fill="#FFFFFF" x="0" y="0" width="110" height="110"></rect>
                    <path d="M47.5,0.124863251 C60.1876953,0.124863251 72.1159473,5.06579099 81.0876953,14.0371679 C90.0590723,23.008916 95,34.9371679 95,47.6248633 C95,60.3125586 90.0590723,72.2408105 81.0876953,81.2125586 C72.1159473,90.1839355 60.1876953,95.1248633 47.5,95.1248633 C34.8123047,95.1248633 22.8840527,90.1839355 13.9123047,81.2125586 C4.94092773,72.2408105 0,60.3125586 0,47.6248633 C0,39.0620605 2.30393555,30.6681054 6.66298828,23.3505078 C10.8949414,16.2455468 16.9341211,10.3371777 24.1275879,6.26368161 C24.7966699,5.88535153 25.6457324,6.12025388 26.024248,6.78896481 C26.4029492,7.45767575 26.1676758,8.3069238 25.4989648,8.68562497 C18.7255762,12.5210644 13.0389355,18.0846875 9.05394531,24.7747656 C4.95168945,31.661709 2.78320313,39.5632226 2.78320313,47.6248633 C2.78320313,59.5692578 7.43449219,70.7985547 15.8804004,79.2444629 C24.3263086,87.6903711 35.5556055,92.3416601 47.5,92.3416601 C59.4443945,92.3416601 70.6736914,87.6903711 79.1195996,79.2444629 C87.5655078,70.7985547 92.2167969,59.5692578 92.2167969,47.6248633 C92.2167969,35.6804687 87.5655078,24.4511718 79.1195996,16.0052636 C70.6736914,7.55935544 59.4443945,2.90806638 47.5,2.90806638 C41.63375,2.90806638 35.9315234,4.02617185 30.5519629,6.23139645 C29.8407617,6.52270505 29.0280664,6.18259763 28.7365723,5.47139645 C28.4448926,4.76019528 28.7851855,3.94749997 29.4963867,3.65600583 C35.2125293,1.31291989 41.2698926,0.124863251 47.5,0.124863251 Z M47.5,6.08370114 C58.5960742,6.08370114 69.0278906,10.4047168 76.8741113,18.2507519 C84.7201465,26.0969726 89.0411621,36.528789 89.0411621,47.6248633 C89.0411621,58.7209375 84.7201465,69.1527539 76.8741113,76.9989746 C69.0278906,84.8450097 58.5960742,89.1660254 47.5,89.1660254 C42.6744824,89.1660254 37.9458203,88.3457226 33.4451953,86.7277539 C32.7219336,86.4678027 32.3463867,85.6706933 32.6063379,84.9476172 C32.8662891,84.2241699 33.6633984,83.8488086 34.3866602,84.1087597 C38.5844727,85.6176269 42.9964063,86.3828222 47.5,86.3828222 C68.8711035,86.3828222 86.257959,68.9959668 86.257959,47.6248633 C86.257959,26.2537597 68.8711035,8.86690427 47.5,8.86690427 C26.1288965,8.86690427 8.74204102,26.2537597 8.74204102,47.6248633 C8.74204102,61.8498144 16.5145996,74.908789 29.026582,81.7057422 C29.7017871,82.0725683 29.9519043,82.9173633 29.5850781,83.5927539 C29.218252,84.267959 28.373457,84.5180761 27.6980664,84.15125 C14.2887793,76.8670508 5.95883789,62.8708789 5.95883789,47.6248633 C5.95883789,36.528789 10.2798535,26.0969726 18.1258887,18.2507519 C25.9721094,10.4047168 36.4039258,6.08370114 47.5,6.08370114 Z M40.9731984,22.0468372 C43.1696893,22.0571875 44.9656838,23.898436 44.9760392,26.1509952 L44.985047,28.0716421 L47.9488602,28.0858989 L47.9400839,26.1916307 C47.9347869,25.0751158 48.3600612,24.032096 49.1372826,23.2549185 C49.8872684,22.5048279 50.8794878,22.0945275 51.9307914,22.0996106 C54.12782,22.1101049 55.9232288,23.9513886 55.9336323,26.2037686 L55.9424667,28.1293635 C61.9759856,28.340501 66.8507174,33.4376221 66.8796543,39.6476507 C66.889346,41.7657596 66.3451144,43.7853892 65.2947234,45.5641273 C68.1502424,47.8715701 69.8282892,51.3437731 69.8458506,55.1050349 C69.8612565,58.4004716 68.6025219,61.4822449 66.3016238,63.7828341 C64.0720937,66.0120709 61.1230825,67.231555 57.9981076,67.2165675 L56.1241673,67.2075475 L56.1306819,68.6048434 C56.1359309,69.7215375 55.7107046,70.764378 54.9334832,71.5415555 C54.1833181,72.2915981 53.1912779,72.7019465 52.1399744,72.6968634 C49.9432562,72.6866444 48.1475369,70.8450855 48.1371335,68.5927054 L48.1303875,67.1690309 L45.1665742,67.1547741 L45.1730889,68.55207 C45.1783859,69.6685849 44.7531115,70.7116046 43.9758902,71.4887821 C43.2259043,72.2388728 42.2336849,72.6491731 41.1823813,72.6440901 C40.8405284,72.64239 40.5082425,72.5963829 40.1908359,72.5113341 C38.469922,72.0502166 37.1885946,70.4417663 37.1797677,68.5398008 L37.1730217,67.1161263 L31.1571412,67.0872083 C28.9607463,67.0764996 27.1650141,65.2357056 27.1544795,62.9830983 C27.1494098,61.8664522 27.5746841,60.8234324 28.3519055,60.046255 C29.1018913,59.2961643 30.0940627,58.8860432 31.1453663,58.8911263 L33.9771809,58.9047828 L33.8715893,36.2140211 L31.0134441,36.2004167 C28.8162843,36.1896951 27.0212339,34.3485075 27.0108305,32.0961274 C27.0055815,30.9794333 27.4308558,29.9364136 28.2082564,29.1592841 C28.9582423,28.4091934 29.9504137,27.9990723 31.0017172,28.0041554 L36.9912672,28.0331256 L36.9824908,26.1388573 C36.9772419,25.0221632 37.4024682,23.9793226 38.1796895,23.2021452 C38.9298546,22.4521025 39.9218948,22.0417541 40.9731984,22.0468372 Z M40.9596356,24.8302697 C40.6567105,24.8288194 40.3681132,24.9495371 40.1473678,25.1704591 C39.8992076,25.4184198 39.7636944,25.7578416 39.7652854,26.1261246 L39.780675,29.4252068 C39.7823458,29.7967767 39.6355173,30.1533363 39.3730688,30.4159093 C39.1104411,30.6784343 38.7538051,30.8251023 38.3823827,30.8233549 L30.9881064,30.7877671 C30.6851813,30.7863168 30.3968113,30.9069033 30.1758866,31.1277773 C29.9279057,31.375786 29.7923925,31.7152078 29.7939835,32.0834908 C29.797374,32.8156945 30.3510686,33.414705 31.0267316,33.4172946 L35.2634517,33.4376169 C36.0266742,33.4417695 36.6449599,34.0592397 36.6484085,34.82277 L36.766816,60.2967328 C36.7685347,60.6681235 36.6217063,61.0246831 36.3592578,61.2872561 C36.0966301,61.5497811 35.7399941,61.6964491 35.3685717,61.6947018 L31.1318515,61.6743795 C30.8289745,61.67275 30.5405564,61.7935158 30.3194045,62.0145209 C30.0714716,62.2623504 29.9359103,62.6019514 29.9375014,62.9702344 C29.9408918,63.7024381 30.4931656,64.3002995 31.1702494,64.3040382 L38.5647049,64.3396741 C38.6872492,64.3404304 38.806022,64.356696 38.9191127,64.3869985 C39.5105536,64.5454746 39.946449,65.0837229 39.9494825,65.7247792 L39.9626103,68.5268889 C39.9660008,69.2590926 40.5185721,69.8579942 41.1955376,69.8607408 C41.4984627,69.862191 41.78706,69.7414733 42.0078055,69.5205514 C42.2557864,69.2725426 42.3914788,68.9331688 42.3897086,68.5648378 L42.3768079,65.7625969 C42.3750892,65.3912062 42.5219176,65.0346466 42.7845454,64.7721216 C43.0469938,64.5095486 43.4036298,64.3628806 43.7750522,64.3646279 L49.5221667,64.3922202 C50.2856164,64.3962417 50.9036749,65.013843 50.9071235,65.7773733 L50.9202514,68.5794831 C50.9236419,69.3116868 51.476178,69.9100027 52.1531787,69.9133349 C52.4561038,69.9147852 52.7445219,69.7940194 52.9654465,69.5731455 C53.2134275,69.3251368 53.3489407,68.985715 53.3473496,68.617432 L53.3342218,65.8153222 C53.332503,65.4439315 53.4793315,65.087372 53.7419592,64.8248469 C54.0044077,64.5622739 54.3610436,64.4156059 54.7324661,64.4173533 L58.0112639,64.4332182 C60.3878603,64.4445729 62.6332494,63.5146715 64.3335391,61.8146034 C66.1051968,60.0431828 67.0743975,57.6648764 67.0624703,55.1178027 C67.047109,51.8250672 65.3944501,48.8208803 62.6417083,47.0819084 C62.3103229,46.8726721 62.082706,46.5335328 62.0145747,46.1476125 C61.9462161,45.7618233 62.0438497,45.3651891 62.2833355,45.0549713 C63.4784529,43.5074891 64.1052925,41.6419615 64.0960468,39.6605497 C64.0738062,34.8557415 60.2586538,30.927887 55.5922683,30.9059628 L54.5503711,30.9009029 C53.7874111,30.8972048 53.1690421,30.2793281 53.1654143,29.5157498 L53.1500247,26.2166676 C53.146455,25.4844159 52.5931668,24.8853223 51.9170974,24.8828158 C51.6141723,24.8813656 51.325575,25.0020833 51.1048296,25.2230052 C50.8568487,25.471014 50.7211562,25.8103877 50.7229265,26.1787188 L50.738268,29.4779801 C50.7399868,29.8493708 50.5931583,30.2059304 50.3305306,30.4684554 C50.0680821,30.7310284 49.7114461,30.8776965 49.3400237,30.8759491 L43.5929092,30.8483568 C42.8289219,30.8441913 42.2114491,30.2265548 42.2079524,29.4632037 L42.1925629,26.1641215 C42.1889932,25.4318698 41.6359323,24.8326449 40.9596356,24.8302697 Z M40.5426504,48.2346654 L57.9366454,48.31839 C61.6131482,48.3361294 64.618216,51.369413 64.6355513,55.0799018 C64.6438514,56.8927875 63.9468836,58.5927657 62.6726954,59.8668439 C61.4150808,61.1242328 59.7460862,61.8121003 57.972866,61.8035594 L40.578871,61.7198348 C40.4563267,61.7190785 40.3375539,61.7028129 40.2244632,61.6725104 C39.6328431,61.5139863 39.1969956,60.9755588 39.1940934,60.3347297 L39.1444061,49.6326343 C39.1426873,49.2612436 39.2895158,48.904684 39.5521435,48.642159 C39.814592,48.379586 40.171228,48.232918 40.5426504,48.2346654 Z M41.9338619,51.0245363 L41.9706022,58.9432034 L57.9859743,59.0203894 C59.010816,59.0252974 59.9761885,58.6270126 60.7045626,57.8987924 C61.4495105,57.1538829 61.8571236,56.1574194 61.852123,55.0928489 C61.8420279,52.9024052 60.0794743,51.1119933 57.9229514,51.1015952 L41.9338619,51.0245363 Z M40.4739783,33.4626187 L55.6310727,33.5355383 C58.9449738,33.5515887 61.6536682,36.2822481 61.6691278,39.6226488 C61.6767009,41.2540046 61.0490676,42.7841184 59.9016881,43.9312016 C58.7673999,45.0652727 57.2613459,45.6855785 55.6611677,45.6778782 L40.5040732,45.6049586 C40.3815289,45.6042024 40.2627561,45.5879368 40.1496655,45.5576342 C39.5582245,45.3991581 39.1223771,44.8607306 39.1192957,44.2198535 L39.075734,34.8605877 C39.0740152,34.489197 39.2208437,34.1326374 39.4832922,33.8700644 C39.7459199,33.6075394 40.1025559,33.4608713 40.4739783,33.4626187 Z M41.8651899,36.2524896 L41.8959837,42.8283752 L55.6746824,42.894625 C56.5264342,42.8988716 57.3287348,42.5679212 57.9337827,41.9630189 C58.5519217,41.3451044 58.8900211,40.5184574 58.8859267,39.6354647 C58.877432,37.8154195 57.4119816,36.327059 55.617558,36.3187916 L41.8651899,36.2524896 Z" fill="#000000" fill-rule="nonzero"></path>
                </g>
            </g>
        </g>
    </g>
</svg>