<?xml version="1.0" encoding="UTF-8"?>
<svg width="128px" height="102px" viewBox="0 0 128 102" version="1.1" xmlns="http://www.w3.org/2000/svg" xmlns:xlink="http://www.w3.org/1999/xlink">
    <title>crown</title>
    <defs>
        <path d="M0,0 L3456,0 L3456,16440 L0,16440 L0,0 Z" id="path-1"></path>
        <filter x="-0.3%" y="-0.1%" width="100.8%" height="100.2%" filterUnits="objectBoundingBox" id="filter-2">
            <feOffset dx="4" dy="4" in="SourceAlpha" result="shadowOffsetOuter1"></feOffset>
            <feGaussianBlur stdDeviation="4" in="shadowOffsetOuter1" result="shadowBlurOuter1"></feGaussianBlur>
            <feComposite in="shadowBlurOuter1" in2="SourceAlpha" operator="out" result="shadowBlurOuter1"></feComposite>
            <feColorMatrix values="0 0 0 0 0   0 0 0 0 0   0 0 0 0 0  0 0 0 0.25 0" type="matrix" in="shadowBlurOuter1"></feColorMatrix>
        </filter>
    </defs>
    <g id="Argon-Website" stroke="none" stroke-width="1" fill="none" fill-rule="evenodd">
        <g id="Frame-3-Copy-5" transform="translate(-571, -2921)" xlink:href="#path-1">
            <use fill="black" fill-opacity="1" filter="url(#filter-2)" xlink:href="#path-1"></use>
            <path stroke-opacity="0.20703125" stroke="#4E4E4E" stroke-width="1" d="M3455.5,0.5 L3455.5,16439.5 L0.5,16439.5 L0.5,0.5 L3455.5,0.5 Z" stroke-linejoin="square"></path>
            <g id="Group" stroke-width="1" fill-rule="evenodd" transform="translate(388, 2270)">
                <g id="crown" transform="translate(183, 651.9521)">
                    <rect id="background" fill-opacity="0" fill="#FFFFFF" x="0" y="0" width="128" height="101"></rect>
                    <path d="M56.500011,1.77635684e-15 C60.2537868,0 63.2970543,3.05878822 63.2970543,6.83170843 C63.2970543,9.7173789 61.5168151,12.1852991 59.0000405,13.1864424 L69.363,32.828 L80.9759143,16.5073542 C78.6148247,15.4365463 76.9714773,13.0496102 76.9714773,10.2769995 C76.9714773,6.50405909 80.0145442,3.4452911 83.7682999,3.4452911 C87.5222312,3.4452911 90.5653431,6.50401375 90.5653431,10.2769995 C90.5653431,13.3108854 88.5977012,15.8829368 85.8750387,16.7742063 L90.498,32.801 L102.044466,19.9771231 C100.496677,18.7722229 99.4805345,16.9105141 99.4098549,14.8078649 L99.4059135,14.5730099 C99.4059135,10.7999334 102.449116,7.74130148 106.202957,7.74130148 C109.956798,7.74130148 113,10.7999334 113,14.5730099 C113,18.3459099 109.956753,21.4044965 106.202957,21.4044965 C106.082954,21.4044965 105.963677,21.4013707 105.845203,21.3951957 L100.605614,47.2894097 C100.423435,48.1898313 99.5495175,48.7713289 98.6536648,48.5882209 L98.6083885,48.5783144 C97.7384188,48.3753312 97.1823528,47.5114772 97.3614439,46.626317 L101.66399,25.3601848 L78.0344796,51.6057215 L78.0010989,51.6417576 C77.2249274,52.4561292 75.8748491,52.2736332 75.3447266,51.2688437 L67.7008923,36.7833054 C67.6922344,36.7673884 67.6838468,36.7513469 67.6757306,36.7351885 L56.4907537,15.5333785 L45.1659543,36.727551 C45.1562893,36.7468225 45.1462383,36.765928 45.1358035,36.7848548 L37.3906469,51.2766194 L37.3668673,51.3196457 C36.8083172,52.2972569 35.4548319,52.4464824 34.6998158,51.5999108 L11.3469815,25.4154205 L20.144,68.89 L92.855,68.89 L95.9222162,53.7316026 C96.0947752,52.8785652 96.8881849,52.3117411 97.7329459,52.4101012 L97.8741172,52.4327186 C98.7699767,52.6157933 99.3485561,53.494146 99.1664105,54.3945744 L95.86,70.737 L95.86,77.436 L95.8611308,77.4600661 C95.8611308,77.4681825 95.861073,77.4762854 95.8609577,77.4843743 L95.8605129,84.3362726 C95.8605129,85.2551239 95.1194163,86 94.2052275,86 L60.1328328,86 C59.2186439,86 58.4775474,85.2551239 58.4775474,84.3362726 L58.4781833,84.289704 C58.502719,83.3923853 59.2341386,82.6725452 60.1328328,82.6725452 L92.5498887,82.6727115 L92.549,79.123 L20.449,79.109 L20.4499587,82.6727115 L52.9202025,82.6725452 C53.8343914,82.6725452 54.5754879,83.4174213 54.5754879,84.3362726 C54.5754879,85.2551239 53.8343914,86 52.9202025,86 L18.7948388,86 C17.8806499,86 17.1395534,85.2551239 17.1395534,84.3362726 L17.139,77.46 L17.1388471,77.4452457 C17.1388471,77.4371856 17.1389041,77.4291389 17.1390179,77.4211059 L17.139,70.738 L7.154797,21.3951957 C7.03632273,21.4013707 6.91704608,21.4044965 6.79704326,21.4044965 C3.04324733,21.4044965 4.62060571e-16,18.3459099 1.35831897e-20,14.5730099 C-4.62055018e-16,10.7999334 3.04320221,7.74130148 6.79704326,7.74130148 C10.5508843,7.74130148 13.5940865,10.7999334 13.5940865,14.5730099 C13.5940865,16.7747717 12.5576867,18.7332689 10.9484874,19.9826009 L22.355,32.772 L26.9699876,16.7738718 C24.2478863,15.8822845 22.280627,13.3104601 22.280627,10.2769995 C22.280627,6.50407932 25.3238945,3.4452911 29.0776703,3.4452911 C32.8314461,3.4452911 35.8747135,6.50407932 35.8747135,10.2769995 C35.8747135,13.0499864 34.2307942,15.4372117 31.8691037,16.5078041 L35.5972091,21.7460656 C36.1290749,22.4934033 35.9574745,23.5326016 35.2139288,24.0671799 L35.1738227,24.0951424 C34.4336174,24.5954151 33.4269604,24.4159373 32.9045922,23.6819449 L29.7169086,19.2028745 L24.959,35.693 L35.5902921,47.6133714 L41.741,36.102 L37.1023077,29.5826228 C36.6017442,28.8792346 36.7243261,27.9173268 37.3603885,27.3609278 L37.4856408,27.2615172 C38.2291985,26.726956 39.2631199,26.8994553 39.7949687,27.6468052 L43.487,32.835 L53.9889507,13.1820432 C51.5465022,12.2054708 49.8003572,9.84655421 49.7069093,7.06656488 L49.7029678,6.83170843 C49.7029678,3.05878822 52.7462352,1.77635684e-15 56.500011,1.77635684e-15 Z M92.549,72.233 L20.449,72.233 L20.449,75.781 L92.549,75.796 L92.549,72.233 Z M39.3612081,55.124591 C40.275397,55.124591 41.0164935,55.8694671 41.0164935,56.7883184 L41.0164935,63.6788119 C41.0164935,64.5976632 40.275397,65.3425393 39.3612081,65.3425393 L32.5056781,65.3425393 C31.5914892,65.3425393 30.8503927,64.5976632 30.8503927,63.6788119 L30.8503927,56.7883184 C30.8503927,55.8694671 31.5914892,55.124591 32.5056781,55.124591 Z M80.4946088,55.124591 C81.4087977,55.124591 82.1498942,55.8694671 82.1498942,56.7883184 L82.1498942,63.6788119 C82.1498942,64.5976632 81.4087977,65.3425393 80.4946088,65.3425393 L73.6390788,65.3425393 C72.72489,65.3425393 71.9837934,64.5976632 71.9837934,63.6788119 L71.9837934,56.7883184 C71.9837934,55.8694671 72.72489,55.124591 73.6390788,55.124591 Z M55.0195008,35.3725081 C55.6295137,34.1462603 57.3705525,34.1462603 57.9805654,35.3725081 L64.8360954,49.1534951 C65.0690979,49.6218767 65.0690996,50.1731854 64.8361002,50.6415685 L57.9805701,64.4227773 C57.3705608,65.6490379 55.6295054,65.6490379 55.0194961,64.4227773 L48.1639661,50.6415685 C47.9309666,50.1731854 47.9309683,49.6218767 48.1639708,49.1534951 Z M37.7057573,58.4522121 L34.160798,58.4522121 L34.160798,62.0152508 L37.7057573,62.0152508 L37.7057573,58.4522121 Z M78.839158,58.4522121 L75.2941987,58.4522121 L75.2941987,62.0152508 L78.839158,62.0152508 L78.839158,58.4522121 Z M56.5000333,39.8368654 L51.4951122,49.8975917 L56.5000333,59.9584844 L61.5047888,49.8975917 L56.5000333,39.8368654 Z M83.1287973,19.2031296 L71.096,36.113 L77.1636135,47.6138705 L87.887,35.701 L83.1287973,19.2031296 Z M6.79704326,11.0687563 C4.871558,11.0687563 3.3105708,12.6376581 3.3105708,14.5730099 C3.3105708,16.5081632 4.87158115,18.0770417 6.79704326,18.0770417 C8.72250537,18.0770417 10.2835157,16.5081632 10.2835157,14.5730099 C10.2835157,12.6376581 8.72252852,11.0687563 6.79704326,11.0687563 Z M106.202957,11.0687563 C104.277471,11.0687563 102.716484,12.6376581 102.716484,14.5730099 C102.716484,16.5081632 104.277495,18.0770417 106.202957,18.0770417 C108.128419,18.0770417 109.689429,16.5081632 109.689429,14.5730099 C109.689429,12.6376581 108.128442,11.0687563 106.202957,11.0687563 Z M29.0776703,6.77274593 C27.1522722,6.77274593 25.5911978,8.34178188 25.5911978,10.2769995 C25.5911978,12.2122172 27.1522722,13.7812531 29.0776703,13.7812531 L29.0478096,13.7808967 L29.0856682,13.7804962 C31.0074243,13.7768712 32.5641427,12.2095153 32.5641427,10.2769995 C32.5641427,8.34178188 31.0030683,6.77274593 29.0776703,6.77274593 Z M83.7682999,6.77274593 C81.8429659,6.77274593 80.2820481,8.34171748 80.2820481,10.2769995 C80.2820481,12.2122816 81.8429659,13.7812531 83.7682999,13.7812531 C83.7730821,13.7803593 83.7854572,13.7804925 83.7978272,13.7807623 C85.7095915,13.7653626 87.2547723,12.2025101 87.2547723,10.2769995 C87.2547723,8.34169422 85.6938314,6.77274593 83.7682999,6.77274593 Z M56.500011,3.32745483 C54.574613,3.32745483 53.0135386,4.89649078 53.0135386,6.83170843 C53.0135386,8.76692607 54.574613,10.335962 56.500011,10.335962 C58.4254091,10.335962 59.9864835,8.76692607 59.9864835,6.83170843 C59.9864835,4.89649078 58.4254091,3.32745483 56.500011,3.32745483 Z" fill="#000000" fill-rule="nonzero"></path>
                </g>
            </g>
        </g>
    </g>
</svg>