<?xml version="1.0" encoding="UTF-8"?>
<svg viewBox="0 0 54 56" version="1.1" xmlns="http://www.w3.org/2000/svg" xmlns:xlink="http://www.w3.org/1999/xlink">
    <title>b062504d-9fa5-4004-9cb0-3148059e06e8</title>
    <g id="Page-1" stroke="none" stroke-width="1" fill="none" fill-rule="evenodd">
        <g id="b062504d-9fa5-4004-9cb0-3148059e06e8" transform="translate(-5, -4)" fill="currentColor">
            <path d="M57.5653,29.7935 C56.2644,28.673 53.8144,29.2048 53.7194,29.2235 C50.1565,29.7695 46.8144,30.2293 45.3344,27.3435 C44.8977044,26.3643509 44.8977044,25.2457491 45.3344,24.2666 C46.9920357,20.3244838 46.7969067,15.8471587 44.8026,12.0642 C37.1673,-3.9719 11.9652,5.93 18.1,24.3148 C19.6667,28.0648 16.1343,30.4826 12.4026,29.518 C10.8878488,29.1251721 9.31352658,29.0157669 7.759,29.1953 C6.99507436,29.3503041 6.33934998,29.8363759 5.96893157,30.5222322 C5.59851317,31.2080885 5.55161361,32.0229754 5.8409,32.7468 C7.21454603,35.9886711 9.79108535,38.5720564 13.0293,39.9543 C13.0433405,38.3562167 13.2773032,36.7676727 13.7246,35.2334 C13.8057787,34.9734522 13.9960231,34.7616764 14.2458132,34.6531972 C14.4956033,34.544718 14.780228,34.5502671 15.0256,34.6684 C15.4661557,34.867136 15.6877681,35.364549 15.5409,35.825 C12.4337,46.1509 21.377,56.3879 32.2109,55.651 C38.9139019,55.5917263 44.9630757,51.6184744 47.68,45.4905 C48.4586585,43.85293 48.8609894,42.0618657 48.8575,40.2486 C48.8742258,38.6446243 48.586014,37.0520786 48.0082,35.5557 C47.8379248,35.070412 48.082928,34.5374914 48.5621388,34.3507961 C49.0413495,34.1641008 49.582301,34.3908219 49.7852,34.8634 C50.3735038,36.380588 50.7019355,37.9860662 50.7567,39.6124 C54.2223556,38.2155153 56.964401,35.4597729 58.344,31.9872 C58.4667655,31.171838 58.1746726,30.3489742 57.5653,29.7935 L57.5653,29.7935 Z M45.4769,40.9419 C42.0177,55.9474 21.0222,56.655 17.9289,40.9227 C17.0224,37.1136 19.7289,31.3008 21.4427,29.2527 C21.8116877,28.7315636 21.9202009,28.0695664 21.7369,27.4579 C20.5383,22.4798 18.8769,18.9625 20.7205,14.7428 C23.1027,9.9654 28.3235,10.841 30.5017,14.5147 C31.4008637,16.1266023 31.6163681,18.0316705 31.1,19.8037 C31.4992581,19.7373001 31.9067419,19.7373001 32.306,19.8037 C31.1246,16.2978 33.6372,11.4223 37.8803,11.4853 C40.0032955,11.4758208 41.9131023,12.7741588 42.6852,14.7518 C44.5229,18.9518 42.8478,22.4981 41.6598,27.486 C41.4801675,28.0899185 41.5924701,28.7430632 41.9635,29.2523 C43.747,31.4484 46.3536,37.1019 45.4769,40.9419 L45.4769,40.9419 Z" id="Shape" fill-rule="nonzero"></path>
            <path d="M27.8143,57.2465 C25.0721523,56.7669078 22.478403,55.6585282 20.2365,54.0083 C19.3186,54.3559 17.6893,55.7347 18.3848,57.0283 C18.6093987,57.4752196 19.0386231,57.7838204 19.5338,57.8544 C20.3841038,57.9033839 21.1504934,58.383259 21.5659,59.1268 C21.7649179,59.5091935 22.123064,59.7838174 22.544,59.8768 C24.6077,60.2207 26.4783,59.9835 28.3462,57.332 C28.1621,57.3146 27.9893,57.28 27.8143,57.2465 Z" id="Path"></path>
            <path d="M43.3118,53.9039 C40.9686834,55.6097865 38.2660436,56.7564594 35.4111,57.256 C37.2745,59.976 39.1776,60.2233 41.2511,59.8771 C41.6716571,59.7832515 42.0295065,59.5088832 42.2293,59.1271 C42.6468542,58.3811612 43.4172998,57.9009912 44.2709,57.8547 C44.7601864,57.7773077 45.1825579,57.4696913 45.4063407,57.0277501 C45.6301234,56.5858089 45.6280995,56.0632944 45.4009,55.6231 C44.9328791,54.818351 44.1915745,54.2083033 43.3118,53.9039 L43.3118,53.9039 Z" id="Path"></path>
            <path d="M29.0108,23.0988 C28.9628987,23.2560334 29.0111194,23.4267595 29.1342,23.5357 C29.7629238,24.3088057 30.7064132,24.7576196 31.7029,24.7576196 C32.6993868,24.7576196 33.6428762,24.3088057 34.2716,23.5357 C34.8049,22.8396 33.473,22.1957 32.4674,21.798 C31.1582576,21.4941178 29.7947972,22.0072201 29.0108,23.0988 L29.0108,23.0988 Z" id="Path"></path>
            <path d="M40.425,30.3728 C39.7158547,29.3980923 39.4951595,28.1510887 39.8267,26.9922 C40.5687993,24.5635824 41.1369045,22.0851733 41.5267,19.5758 C41.9681,16.978 40.7472,13.3758 37.9276,13.3843846 C36.5141117,13.411579 35.2252981,14.1993954 34.5566,15.445 C33.7209364,17.1240903 33.7563531,19.1051525 34.6515,20.7533 C35.2800381,21.1179243 35.7908544,21.655116 36.1234,22.3012 C36.9834,24.2812 34.6712,26.6088 31.6888,26.6599 C30.1478155,26.6703066 28.6849698,25.9824883 27.71,24.7891 C26.478,23.384 27.2234,21.6322 28.7547,20.7439 C29.650807,19.0993564 29.6862457,17.1205761 28.8496,15.445 C27.4081,12.845 23.6822,12.5397 22.4303,15.5781 C21.8485291,16.8248219 21.6534824,18.2172114 21.8703,19.5758 C22.262927,22.0752692 22.8309974,24.5440029 23.5703,26.9637 C23.9046184,28.1316674 23.6840483,29.3884709 22.972,30.3728 C21.5326,32.0917 19.0029,37.2555 19.8006,40.6285 C22.5146,53.4992 41.0345,54.2859 43.5974,40.6379 C44.3756,37.2778 41.9608,32.2561 40.425,30.3728 L40.425,30.3728 Z M25.9531,19.31 C24.161,19.26 24.1702,15.7006 25.9531,15.6541 C27.7365,15.701 27.7447,19.26 25.9531,19.31 Z M38.051,19.31 C36.2589,19.26 36.2681,15.7006 38.051,15.6541 C39.8344,15.701 39.8426,19.26 38.051,19.31 Z" id="Shape" fill-rule="nonzero"></path>
        </g>
    </g>
</svg>