<?xml version="1.0" encoding="UTF-8"?>
<svg viewBox="0 0 438 512" version="1.1" xmlns="http://www.w3.org/2000/svg" xmlns:xlink="http://www.w3.org/1999/xlink">
    <g id="Page-1" stroke="none" stroke-width="1" fill="none" fill-rule="evenodd">
        <g id="apple" transform="translate(-37, 0)" fill="currentColor" fill-rule="nonzero">
            <path d="M362.028,119.84 C396.812,119.84 433.644,138.912 459.852,171.776 C373.932,219.168 387.852,342.624 474.668,375.68 C468.991122,388.342634 464.718522,397.668297 460.14261,406.504123 L459.436,407.86 C454.588,417.104 449.308,425.968 441.612,437.76 C420.14,470.656 389.9,511.648 352.364,511.936 C319.052,512.288 310.476,490.112 265.26,490.368 C220.044,490.592 210.636,512.32 177.26,512.0035 C139.756,511.68 111.084,474.688 89.612,441.792 C29.612,349.856 23.276,241.92 60.3,184.512 C86.636,143.744 128.172,119.904 167.18,119.904 C206.892,119.904 231.884,141.824 264.78,141.824 C296.684,141.824 316.108,119.84 362.028,119.84 Z M351.98,0 C356.556,31.104 343.916,61.568 327.212,83.104 C309.356,106.24 278.54,124.128 248.716,123.2 C243.276,93.408 257.228,62.752 274.188,42.112 C292.78,19.36 324.684,1.888 351.98,0 Z" id="Combined-Shape"></path>
        </g>
    </g>
</svg>