<?xml version="1.0" encoding="UTF-8"?>
<svg viewBox="0 0 512 464" version="1.1" xmlns="http://www.w3.org/2000/svg" xmlns:xlink="http://www.w3.org/1999/xlink">
    <title>windows</title>
    <g id="Page-1" stroke="none" stroke-width="1" fill="none" fill-rule="evenodd">
        <path d="M12.5082628,0.87967039 C5.57736443,0.87967039 -8.45858309e-05,6.49007697 -8.45858309e-05,13.424112 L-8.45858309e-05,199.575152 C-8.45858309e-05,206.511383 5.59588412,212.084482 12.5082628,212.084482 L223.542357,212.084482 C230.477027,212.084482 236.087369,206.508091 236.087369,199.575152 L236.087369,13.424112 C236.087369,6.48826279 230.491397,0.87967039 223.542357,0.87967039 L12.5082628,0.87967039 Z M288.428152,0.87967039 C281.490072,0.87967039 275.919812,6.49007697 275.919812,13.424112 L275.919812,199.575152 C275.919812,206.511383 281.515781,212.084482 288.428152,212.084482 L499.491729,212.084482 C506.429808,212.084482 512.000076,206.508091 512.000076,199.575152 L512.000076,13.424112 C512.000076,6.48826279 506.404107,0.87967039 499.491729,0.87967039 L288.428152,0.87967039 Z M12.5082628,251.914434 C5.57736443,251.914434 -8.45858309e-05,257.524504 -8.45858309e-05,264.459253 L-8.45858309e-05,450.610266 C-8.45858309e-05,457.546455 5.59588412,463.120314 12.5082628,463.120314 L223.542357,463.120314 C230.477027,463.120314 236.087369,457.543923 236.087369,450.610266 L236.087369,264.459253 C236.087369,257.523404 230.491397,251.914434 223.542357,251.914434 L12.5082628,251.914434 Z M288.428152,251.914434 C281.490072,251.914434 275.919812,257.524504 275.919812,264.459253 L275.919812,450.610266 C275.919812,457.546455 281.515781,463.120314 288.428152,463.120314 L499.491729,463.120314 C506.429808,463.120314 512.000076,457.543923 512.000076,450.610266 L512.000076,264.459253 C512.000076,257.523404 506.404107,251.914434 499.491729,251.914434 L288.428152,251.914434 Z" id="windows" fill="currentColor" fill-rule="nonzero"></path>
    </g>
</svg>