<svg viewBox="227.5 3079.43 45 36.14" xmlns="http://www.w3.org/2000/svg">
  <title>argonot-white</title>
  <path d="M250,3079.43 C256.01,3079.43 261.66,3081.77 265.91,3086.02 C270.16,3090.27 272.5,3095.92 272.5,3101.93 C272.5,3107.94 270.16,3113.59 265.91,3117.84 C261.66,3122.09 256.01,3124.43 250,3124.43 C243.99,3124.43 238.34,3122.09 234.09,3117.84 C229.84,3113.59 227.5,3107.94 227.5,3101.93 C227.5,3097.87 228.59,3093.9 230.66,3090.43 C232.66,3087.07 235.52,3084.27 238.93,3082.34 C239.25,3082.16 239.65,3082.27 239.83,3082.59 C240.01,3082.9 239.9,3083.3 239.58,3083.48 C236.37,3085.3 233.68,3087.94 231.79,3091.11 C229.85,3094.37 228.82,3098.11 228.82,3101.93 C228.82,3107.59 231.02,3112.91 235.02,3116.91 C239.02,3120.91 244.34,3123.11 250,3123.11 C255.66,3123.11 260.98,3120.91 264.98,3116.91 C268.98,3112.91 271.18,3107.59 271.18,3101.93 C271.18,3096.27 268.98,3090.95 264.98,3086.95 C260.98,3082.95 255.66,3080.75 250,3080.75 C247.22,3080.75 244.52,3081.28 241.97,3082.32 C241.64,3082.46 241.25,3082.3 241.11,3081.96 C240.97,3081.62 241.14,3081.24 241.47,3081.1 C244.18,3079.99 247.05,3079.43 250,3079.43 Z M250,3082.25 C255.26,3082.25 260.2,3084.3 263.91,3088.01 C267.63,3091.73 269.68,3096.67 269.68,3101.93 C269.68,3107.18 267.63,3112.13 263.91,3115.84 C260.2,3119.56 255.26,3121.61 250,3121.61 C247.71,3121.61 245.47,3121.22 243.34,3120.45 C243,3120.33 242.82,3119.95 242.95,3119.61 C243.07,3119.27 243.45,3119.09 243.79,3119.21 C245.78,3119.93 247.87,3120.29 250,3120.29 C260.12,3120.29 268.36,3112.05 268.36,3101.93 C268.36,3091.81 260.12,3083.57 250,3083.57 C239.88,3083.57 231.64,3091.81 231.64,3101.93 C231.64,3108.67 235.32,3114.85 241.25,3118.07 C241.57,3118.25 241.69,3118.65 241.51,3118.97 C241.34,3119.29 240.94,3119.4 240.62,3119.23 C234.27,3115.78 230.32,3109.15 230.32,3101.93 C230.32,3096.67 232.37,3091.73 236.09,3088.01 C239.8,3084.3 244.74,3082.25 250,3082.25 Z M248.63,3088.12 C249.1,3088.12 249.47,3088.49 249.47,3088.95 L249.47,3090.35 L254.9,3090.35 C255.84,3090.35 256.68,3091.04 257.24,3092.29 C258.22,3094.43 258.22,3097.8 257.24,3099.94 C256.68,3101.19 255.84,3101.87 254.9,3101.87 L249.47,3101.87 L249.47,3103.77 L253.77,3103.77 C256.92,3103.77 259.81,3102.06 261.32,3099.29 C261.44,3099.07 261.65,3098.92 261.89,3098.87 C262.14,3098.82 262.39,3098.88 262.59,3099.04 C264.52,3100.62 265.63,3102.97 265.63,3105.47 C265.63,3109.65 262.23,3113.06 258.04,3113.06 L254.88,3113.06 L253.87,3115.25 C253.68,3115.68 253.18,3115.86 252.76,3115.66 C252.34,3115.47 252.15,3114.97 252.35,3114.55 L254.71,3109.43 C254.9,3109.01 254.71,3108.52 254.3,3108.33 C253.88,3108.13 253.38,3108.31 253.18,3108.74 L251.19,3113.06 L249.07,3113.06 L248.05,3115.25 C247.86,3115.68 247.36,3115.86 246.94,3115.66 C246.52,3115.47 246.34,3114.97 246.53,3114.55 L248.89,3109.44 C249.08,3109.02 248.9,3108.52 248.48,3108.33 C248.06,3108.13 247.56,3108.32 247.37,3108.74 L245.37,3113.06 L243.25,3113.06 L242.24,3115.25 C242.04,3115.68 241.54,3115.86 241.12,3115.66 C240.7,3115.47 240.52,3114.97 240.71,3114.55 L243.07,3109.44 C243.27,3109.02 243.08,3108.52 242.66,3108.33 C242.24,3108.13 241.74,3108.31 241.55,3108.74 L239.55,3113.06 L237.84,3113.06 C237.56,3113.06 237.29,3112.91 237.14,3112.68 C236.98,3112.44 236.96,3112.14 237.07,3111.88 L238.34,3109.03 L237.04,3104.86 C236.87,3104.32 237.27,3103.77 237.84,3103.77 L247.79,3103.77 L247.79,3101.87 L241.48,3101.87 C241.01,3101.87 240.64,3101.5 240.64,3101.03 C240.64,3100.57 241.01,3100.2 241.48,3100.2 C241.66,3100.2 242,3099.9 242.29,3099.25 C243.07,3097.55 243.07,3094.68 242.29,3092.98 C242,3092.33 241.66,3092.03 241.48,3092.03 C241.01,3092.03 240.64,3091.65 240.64,3091.19 C240.64,3090.73 241.01,3090.35 241.48,3090.35 L247.79,3090.35 L247.79,3088.95 C247.79,3088.49 248.17,3088.12 248.63,3088.12 Z" fill="#FFFFFF" fill-rule="nonzero"/>
</svg>
