<svg viewBox="0 32 566 119" version="1.1" xmlns="http://www.w3.org/2000/svg">
    <title>argon-outline</title>
    <g id="ARGON" stroke="none" stroke-width="1" fill="currentColor" fill-rule="evenodd">
                <path d="M82.8651222,35.8276567 L119.353759,146.373111 L120.220837,149 L83.5828066,149 L83.1535264,147.578009 L77.1951566,127.840909 L43.7139343,127.840909 L37.7555645,147.578009 L37.3262843,149 L0.688253816,149 L1.55533232,146.373111 L38.0439687,35.8276567 L38.4972027,34.4545455 L82.4118882,34.4545455 Z M39.9431818,36.4545455 L3.45454545,147 L35.8409091,147 L42.2285592,125.840909 L78.6805317,125.840909 L85.0681818,147 L117.454545,147 L80.9659091,36.4545455 Z M71.901801,103.386364 L49.0072899,103.386364 L60.0227273,66.8977273 L60.8863636,66.8977273 Z M51.7002122,101.386364 L69.2088787,101.386364 L60.4545455,72.3876346 Z M198.160253,39.1354065 C204.655443,42.2880426 209.732679,46.8499202 213.353072,52.794986 C216.972122,58.7378474 218.772727,65.8265453 218.772727,74.0227273 C218.772727,82.305957 216.919628,89.3572393 213.190128,95.1331827 C210.075755,99.956467 205.917044,103.793954 200.72533,106.618029 L222.199544,146.043343 L223.809978,149 L186.639406,149 L186.075164,147.939226 L167.230557,112.511364 L160.045455,112.511364 L160.045455,149 L126.034091,149 L126.034091,34.4545455 L175.75,34.4545455 C184.244254,34.4545455 191.720774,36.0098115 198.160253,39.1354065 Z M128.034091,36.4545455 L128.034091,147 L130.034091,147 L156.045455,147 L158.045455,147 L158.045455,110.511364 L168.43206,110.511364 L187.840909,147 L218.165747,147 L219.255109,147 L220.443182,147 L197.988316,105.77427 C203.730946,103.03768 208.23269,99.1238361 211.509943,94.0482955 C215.018466,88.6145833 216.772727,81.9393939 216.772727,74.0227273 C216.772727,66.1780303 215.063447,59.4488636 211.644886,53.8352273 C208.226326,48.2215909 203.440341,43.9214015 197.286932,40.9346591 C191.133523,37.9479167 183.954545,36.4545455 175.75,36.4545455 Z M177.666193,61.8508523 C180.16714,62.8044508 182.09233,64.2798295 183.441761,66.2769886 C184.791193,68.2741477 185.465909,70.8560606 185.465909,74.0227273 C185.465909,77.1534091 184.791193,79.6903409 183.441761,81.6335227 C182.09233,83.5767045 180.16714,84.9891098 177.666193,85.8707386 C175.165246,86.7523674 172.151515,87.1931818 168.625,87.1931818 L158.045455,87.1931819 L158.045455,60.4204545 L168.625,60.4204545 C172.151515,60.4204545 175.165246,60.8972538 177.666193,61.8508523 Z M160.045455,62.4204546 L160.045455,85.1931819 L168.625,85.1931818 C171.938709,85.1931818 174.731285,84.7847155 177.001263,83.9845076 C179.1175,83.2384958 180.696912,82.0797683 181.799021,80.4927311 C182.89638,78.9125342 183.465909,76.7711064 183.465909,74.0227273 C183.465909,71.230764 182.892458,69.0363578 181.784583,67.3967035 C180.672281,65.7504956 179.080365,64.530523 176.953643,63.7196147 C174.69815,62.8596065 171.922378,62.4204545 168.625,62.4204545 Z M301.953292,35.8232309 C307.801341,37.7476687 312.991757,40.4834116 317.51403,44.0299242 C322.051259,47.5881658 325.721295,51.8054054 328.513238,56.6724406 C331.31652,61.5592426 333.021339,66.9199527 333.625656,72.7365021 L333.854921,74.9431818 L299.732417,74.9431818 L299.358715,73.4196249 C298.947493,71.7431073 298.308178,70.2851571 297.442953,69.0336704 C296.574602,67.7776631 295.498278,66.7090821 294.204433,65.8205382 C292.905076,64.9282085 291.387086,64.2482753 289.640608,63.7836161 C287.853616,63.3081779 285.875717,63.0681818 283.704545,63.0681818 C279.052099,63.0681818 275.153238,64.1634593 271.955816,66.3383559 C268.748625,68.5198967 266.295088,71.6767808 264.585703,75.8589663 C262.838184,80.134449 261.954545,85.3504909 261.954545,91.5113636 C261.954545,97.758534 262.798165,103.061282 264.467249,107.42134 C266.093045,111.668317 268.477741,114.86969 271.628171,117.078239 C274.763191,119.275985 278.698505,120.386364 283.488636,120.386364 C287.800925,120.386364 291.338378,119.767519 294.102623,118.557139 C296.784334,117.382899 298.742228,115.757769 300.031359,113.670605 C300.94659,112.188801 301.5446,110.51326 301.813993,108.625 L281.920455,108.625 L281.920455,83.25 L334.931818,83.25 L334.931818,100.579545 C334.931818,111.000001 332.712164,119.962909 328.252783,127.432843 C323.79482,134.9004 317.647932,140.632468 309.845356,144.599561 C302.086707,148.54432 293.221027,150.511364 283.272727,150.511364 C272.181923,150.511364 262.398569,148.144724 253.954869,143.399813 C245.489126,138.642515 238.877062,131.852253 234.146608,123.064453 C229.42905,114.30061 227.079545,103.918215 227.079545,91.9431818 C227.079545,82.5620511 228.516698,74.2172952 231.4029,66.9179959 C234.292387,59.6103904 238.323571,53.4092883 243.493658,48.3328622 C248.65524,43.2647872 254.627783,39.4266331 261.396715,36.8275126 C268.142744,34.2371866 275.366828,32.9431818 283.056818,32.9431818 C289.813349,32.9431818 296.114563,33.9018599 301.953292,35.8232309 Z M262.113636,38.6946023 C255.600379,41.1955492 249.860795,44.8839962 244.894886,49.7599432 C239.928977,54.6358902 236.05161,60.6003788 233.262784,67.6534091 C230.473958,74.7064394 229.079545,82.8030303 229.079545,91.9431818 C229.079545,103.602273 231.355587,113.660038 235.90767,122.116477 C240.459754,130.572917 246.802083,137.086174 254.934659,141.65625 C263.067235,146.226326 272.513258,148.511364 283.272727,148.511364 C292.916667,148.511364 301.472064,146.613163 308.93892,142.816761 C316.405777,139.02036 322.271307,133.550663 326.535511,126.40767 C330.799716,119.264678 332.931818,110.655303 332.931818,100.579545 L332.931818,85.25 L283.920455,85.25 L283.920455,106.625 L303.984344,106.625 C303.914193,109.712611 303.160818,112.409812 301.732955,114.721591 C300.221591,117.168561 297.945549,119.057765 294.90483,120.389205 C291.86411,121.720644 288.058712,122.386364 283.488636,122.386364 C278.306818,122.386364 273.970644,121.162879 270.480114,118.715909 C266.989583,116.268939 264.362689,112.742424 262.599432,108.136364 C260.836174,103.530303 259.954545,97.9886364 259.954545,91.5113636 C259.954545,85.1060606 260.881155,79.6363636 262.734375,75.1022727 C264.587595,70.5681818 267.286458,67.0956439 270.830966,64.6846591 C274.375473,62.2736742 278.666667,61.0681818 283.704545,61.0681818 C286.043561,61.0681818 288.193655,61.329072 290.15483,61.8508523 C292.116004,62.3726326 293.843277,63.1463068 295.336648,64.171875 C296.830019,65.1974432 298.080492,66.4389205 299.088068,67.8963068 C300.095644,69.3536932 300.833333,71.0359848 301.301136,72.9431818 L331.636364,72.9431818 C331.060606,67.4015152 329.441288,62.3096591 326.778409,57.6676136 C324.11553,53.0255682 320.616004,49.0042614 316.27983,45.6036932 C311.943655,42.203125 306.959754,39.5762311 301.328125,37.7230114 C295.696496,35.8697917 289.606061,34.9431818 283.056818,34.9431818 C275.607955,34.9431818 268.626894,36.1936553 262.113636,38.6946023 Z M428.440974,39.6826292 C436.912835,44.1997059 443.646928,50.8587665 448.617514,59.6226948 C453.585875,68.3826996 456.056818,79.0932171 456.056818,91.7272727 C456.056818,104.361328 453.585875,115.071846 448.617514,123.831851 C443.646928,132.595779 436.912835,139.25484 428.440974,143.771916 C420.012338,148.265946 410.620714,150.511364 400.295455,150.511364 C389.895892,150.511364 380.474473,148.246868 372.061278,143.713816 C363.609968,139.160228 356.896026,132.483794 351.944816,123.721086 C346.995807,114.962274 344.534091,104.288646 344.534091,91.7272727 C344.534091,79.0943051 346.995497,68.3848644 351.944816,59.6255052 C356.897075,50.8609411 363.613145,44.201151 372.067346,39.6834957 C380.479135,35.1885045 389.89831,32.9431818 400.295455,32.9431818 C410.620714,32.9431818 420.012338,35.1885999 428.440974,39.6826292 Z M373.009943,41.4474432 C364.89536,45.7836174 358.454072,52.170928 353.68608,60.609375 C348.918087,69.047822 346.534091,79.4204545 346.534091,91.7272727 C346.534091,103.962121 348.918087,114.298769 353.68608,122.737216 C358.454072,131.175663 364.89536,137.580966 373.009943,141.953125 C381.124527,146.325284 390.219697,148.511364 400.295455,148.511364 C410.299242,148.511364 419.367424,146.343277 427.5,142.007102 C435.632576,137.670928 442.091856,131.283617 446.877841,122.84517 C451.663826,114.406723 454.056818,104.034091 454.056818,91.7272727 C454.056818,79.4204545 451.663826,69.047822 446.877841,60.609375 C442.091856,52.170928 435.632576,45.7836174 427.5,41.4474432 C419.367424,37.1112689 410.299242,34.9431818 400.295455,34.9431818 C390.219697,34.9431818 381.124527,37.1112689 373.009943,41.4474432 Z M412.84517,64.6036932 C416.245739,66.9607008 418.818655,70.4152462 420.56392,74.9673295 C422.309186,79.5194129 423.181818,85.1060606 423.181818,91.7272727 C423.181818,98.3484848 422.309186,103.935133 420.56392,108.487216 C418.818655,113.039299 416.245739,116.493845 412.84517,118.850852 C409.444602,121.20786 405.261364,122.386364 400.295455,122.386364 C395.329545,122.386364 391.146307,121.20786 387.745739,118.850852 C384.34517,116.493845 381.772254,113.039299 380.026989,108.487216 C378.281723,103.935133 377.409091,98.3484848 377.409091,91.7272727 C377.409091,85.1060606 378.281723,79.5194129 380.026989,74.9673295 C381.772254,70.4152462 384.34517,66.9607008 387.745739,64.6036932 C391.146307,62.2466856 395.329545,61.0681818 400.295455,61.0681818 C405.261364,61.0681818 409.444602,62.2466856 412.84517,64.6036932 Z M388.885063,66.2474511 C385.830505,68.3646313 383.501509,71.4916759 381.89444,75.6833088 C380.244519,79.9867102 379.409091,85.3351729 379.409091,91.7272727 C379.409091,98.1193725 380.244519,103.467835 381.89444,107.771237 C383.501509,111.96287 385.830505,115.089914 388.885063,117.207094 C391.933296,119.319891 395.718868,120.386364 400.295455,120.386364 C404.872041,120.386364 408.657613,119.319891 411.705846,117.207094 C414.760404,115.089914 417.089401,111.96287 418.696469,107.771237 C420.34639,103.467835 421.181818,98.1193725 421.181818,91.7272727 C421.181818,85.3351729 420.34639,79.9867102 418.696469,75.6833088 C417.089401,71.4916759 414.760404,68.3646313 411.705846,66.2474511 C408.657613,64.1346549 404.872041,63.0681818 400.295455,63.0681818 C395.718868,63.0681818 391.933296,64.1346549 388.885063,66.2474511 Z M495.006814,35.3309388 L531.511364,89.0848905 L531.511364,34.4545455 L565.522727,34.4545455 L565.522727,149 L537.425413,149 L536.829368,148.133318 L499.886364,94.4161929 L499.886364,149 L465.875,149 L465.875,34.4545455 L494.411652,34.4545455 Z M467.875,36.4545455 L467.875,147 L469.875,147 L495.886364,147 L497.886364,147 L497.886364,88.9204545 L498.534091,88.9204545 L538.477273,147 L561.522727,147 L563.522727,147 L563.522727,36.4545455 L533.511364,36.4545455 L533.511364,94.3181818 L532.647727,94.3181818 L493.352273,36.4545455 Z" id="argon-outline" fill-rule="nonzero"></path>
    </g>
</svg>
