<?xml version="1.0" encoding="UTF-8"?>
<svg viewBox="0 0 464 464" version="1.1" xmlns="http://www.w3.org/2000/svg" xmlns:xlink="http://www.w3.org/1999/xlink">
    <title>Combined Shape</title>
    <g id="Page-1" stroke="none" stroke-width="1" fill="none" fill-rule="evenodd">
        <g id="bank(3)" transform="translate(-24, -24)" fill="currentColor" fill-rule="nonzero">
            <path d="M133.65624,322.34376 L149.65624,338.34376 C151.15624,339.84376 152,341.87504 152,344 L152,376 C155.03128,376 157.8008,377.71096 159.15624,380.42184 L167.15624,396.42184 C167.71096,397.53128 168,398.75784 168,400 L168,408 L328,408 L328,400 C328,398.75784 328.28904,397.53128 328.84376,396.42184 L336.84376,380.42184 C338.1992,377.71096 340.96872,376 344,376 L344,352 C344,349.87504 344.84376,347.84376 346.34376,346.34368 L362.34376,330.34368 C365.46872,327.21872 370.53128,327.21872 373.65624,330.34368 L385.02344,341.71088 L395.57032,334.69528 C400.75504,331.26632 408,335.13784 408,341.35952 L408,376 C411.03128,376 413.8008,377.71096 415.15624,380.42184 L423.15624,396.42184 C423.71096,397.53128 424,398.75784 424,400 L424,408 L432,408 C440.82424,408 448,415.17968 448,424 L448,440 L456,440 C464.82424,440 472,447.17968 472,456 L472,480 C472,484.42184 468.418,488 464,488 L32,488 C27.582,488 24,484.42184 24,480 L24,456 C24,447.17968 31.17576,440 40,440 L48,440 L48,424 C48,415.17968 55.17576,408 64,408 L72,408 L72,400 C72,398.75784 72.28904,397.53128 72.84376,396.42184 L80.84376,380.42184 C82.1992,377.71096 84.96872,376 88,376 L88,333.35936 C88,327.15632 95.228,323.2352 100.42976,326.69536 C100.4576,326.71392 110.97656,333.71096 110.97656,333.71096 L122.34376,322.34376 C125.46872,319.2188 130.53128,319.2188 133.65624,322.34376 Z M64,424 L64,440 L392,440 C402.32704,440 402.3248,456 391.99872,456 L40,456 L40,472 L456,472 L456,456 L424,456 C413.534,456 413.95624,440 424,440 L432,440 L432,424 L64,424 Z M92.94528,392 L88,401.89064 L88,408 L152,408 L152,401.89064 L147.05464,392 L92.94528,392 Z M348.94528,392 L344,401.89064 L344,408 L408,408 L408,401.89064 L403.05464,392 L348.94528,392 Z M248,240.0156 C259.60936,240.0156 270.12888,245.97656 276.13672,255.95312 L283.47264,267.99216 C288.85648,276.83704 275.16264,285.10736 269.80848,276.32016 C269.78032,276.27384 262.4492,264.24216 262.4492,264.24216 C259.34376,259.07816 253.94928,256.01568 248.00008,256.01568 C242.05088,256.01568 236.65632,259.07824 233.57432,264.2032 L186.5196,341.82816 C183.23832,347.25 183.14064,353.80472 186.26176,359.34376 C189.32032,364.7656 194.81256,368 200.96096,368 L295.03904,368 C301.18752,368 306.67968,364.7656 309.7384,359.34376 C312.85952,353.80472 312.76184,347.25 309.47672,341.82032 L286.3556,303.67192 C280.99496,294.81688 294.70624,286.56776 300.04328,295.37536 C300.12256,295.50616 323.16416,333.53128 323.16416,333.53128 C329.48056,343.9844 329.67192,356.56248 323.67584,367.20312 C317.74224,377.71872 307.03912,384 295.03912,384 L200.96096,384 C188.96096,384 178.25784,377.71872 172.32424,367.20312 C166.32808,356.56248 166.51952,343.98432 172.83592,333.53904 L219.87888,255.92968 C225.87112,245.97656 236.39064,240.0156 248,240.0156 Z M128,339.31248 L117.65624,349.65624 C114.96488,352.3516 110.74216,352.77344 107.57032,350.66408 L104,348.28904 L104,376 L136,376 L136,347.31248 L128,339.31248 Z M368,347.31248 L360,355.31248 L360,376 L392,376 L392,356.28904 L388.42968,358.66408 C385.25,360.77344 381.02736,360.34376 378.34376,357.65624 L368,347.31248 Z M248,344 C252.418278,344 256,347.581722 256,352 C256,356.418278 252.418278,360 248,360 C243.581722,360 240,356.418278 240,352 C240,347.581722 243.581722,344 248,344 Z M256,280 L256,328 C256,338.35768 240,338.27968 240,327.99984 L240,280 C240,269.65464 255.9996,269.69904 256,280 Z M289.95312,25.68752 L484.91408,177.53128 C487.21096,179.32032 488.35544,182.21096 487.90248,185.08568 L482.94152,216.67944 C482.94152,221.06536 477.62984,223.9196 473.8128,223.34352 C473.81256,223.34352 458.03768,220.886 458.03768,220.886 L455.586,236.66384 C454.19864,245.18136 445.9672,251.35704 437.38696,250.07016 C437.38672,250.07008 429.39112,248.82304 429.39112,248.82304 L428.16016,256.71856 C427.96872,257.94512 427.49216,259.10912 426.77344,260.11696 L416.40624,274.69512 C414.66288,277.1484 411.62432,278.42072 408.65648,277.96856 C408.65528,277.96848 404.13672,306.97632 404.13672,306.97632 C403.72264,309.61696 402.01168,311.88264 399.582,313.0076 L382.1328,321.05448 C378.67296,322.65904 374.47376,321.4568 372.32032,318.5076 C372.31848,318.50504 363.69536,306.69512 363.69536,306.69512 L351.88288,315.32792 C346.24512,319.47584 338.18544,314.51512 339.25792,307.63248 C339.27128,307.54656 345.41656,268.10872 345.41656,268.10872 C342.42088,267.63904 339.9492,265.5228 339.02736,262.64048 L333.58592,245.60144 C333.20704,244.414 333.10936,243.15616 333.3008,241.9296 L334.53224,234.02968 L176.44824,209.37632 L175.21488,217.29672 C175.02344,218.52328 174.54688,219.68736 173.82816,220.70296 L163.45704,235.28112 C161.71688,237.72096 158.67368,238.99984 155.71048,238.5472 L148.32032,285.9764 C147.2456,292.8444 138.08296,295.1144 133.95304,289.46072 L125.32416,277.64832 L113.51168,286.28112 C110.4492,288.53112 106.20704,288.28896 103.38672,285.71864 L89.21488,272.73424 C87.24224,270.92176 86.30472,268.24984 86.71488,265.60144 L92.46736,228.69376 C89.47416,228.22352 87.00344,226.10736 86.08208,223.22648 L80.64064,206.18744 C80.26176,205 80.16408,203.74216 80.35552,202.5156 L81.59184,194.58296 L73.64456,193.34368 C65.05864,192.07024 59.05472,183.914 60.32032,175.17184 L62.78416,159.332 L47.01168,156.86712 C42.6484,156.18744 39.66016,152.10152 40.332,147.74216 L45.2148,116.06248 C45.65624,113.18752 47.62888,110.77344 50.35936,109.77344 L282.27736,24.49224 C284.8672,23.53912 287.77344,23.99224 289.95312,25.68752 Z M361.22616,270.57424 L358.04304,291.00784 C362.28696,287.91016 367.974,285.422 371.89832,290.79672 C371.91896,290.82488 381.37896,303.78128 381.37896,303.78128 L388.9844,300.27344 L392.84336,275.50344 L361.22616,270.57424 Z M108.27736,231.15776 L103.18752,263.836 L109.36328,269.49224 L122.34768,260.00784 C125.8708,257.42368 130.95464,258.2272 133.52736,261.75 C133.53008,261.75368 135.4844,264.42968 135.4844,264.42968 L139.89848,236.086 L108.27736,231.15776 Z M350.34184,236.49552 L349.4024,242.5312 L352.76568,253.06248 L406.2344,261.3984 L412.64064,252.3828 L413.58016,246.35736 L350.34184,236.49552 Z M283.62888,41.03912 L122.27784,100.37504 L131.168,114 L150.43752,104.15608 C155.09072,101.76816 160.83328,104.53392 161.90632,109.63272 L165.586,127.11704 L190.97272,123.828 C201.2536,122.42528 203.24576,138.36008 193.02656,139.68752 L160.30864,143.93744 C156.24144,144.3944 152.30896,141.71168 151.45312,137.64832 C151.44544,137.612 148.40232,123.164 148.40232,123.164 L132.03904,131.52336 C128.40232,133.39056 123.93752,132.1952 121.6992,128.77336 L106.86768,106.04192 L60.30856,123.164 L57.36328,142.2812 L88.8516,147.21872 C99.06136,148.82744 96.54728,164.6088 86.35152,163.0156 C86.3212,163.01088 78.5928,161.8032 78.5928,161.8032 L76.14456,177.54688 L439.79296,234.25008 L442.2344,218.42976 L117.9688,167.90632 C107.72256,166.3116 110.40224,150.53152 120.43096,152.094 C121.10992,152.19976 413.39752,197.7388 413.39752,197.7388 L405.39848,177.35944 L400.42976,181.65632 C397.82824,183.91416 394.07824,184.24232 391.1212,182.48448 L371.68368,170.96104 C362.72328,165.63824 371.02584,151.97208 379.84072,157.19592 C379.96632,157.27032 394.32816,165.78136 394.32816,165.78136 L403.48832,157.86728 C407.6192,154.31016 414.1672,155.91168 416.16424,161.00048 C416.22104,161.14512 431.7012,200.59088 431.7012,200.59088 L468.37504,206.30472 L471.3672,187.25784 L363.5156,103.25832 L347.2812,108.67192 L351.15624,116.42192 C353.1328,120.37504 351.5312,125.17976 347.57808,127.15632 L331.57808,135.15632 C322.71816,139.55616 315.4024,125.3536 324.42232,120.8436 C324.4952,120.80712 333.2656,116.42192 333.2656,116.42192 L328.84376,107.57816 C326.73624,103.3472 328.95664,97.91808 333.4692,96.41392 C333.56344,96.38248 348.3564,91.45168 348.3564,91.45168 L283.62888,41.03912 Z M97.3984,197.07024 L96.45696,203.11712 L99.82024,213.6484 L153.28512,221.97656 L159.69528,212.96096 L160.6328,206.9296 L97.3984,197.07024 Z M270.98824,70.28912 C272.5776,60.07672 288.38712,62.58056 286.80072,72.75784 C286.79584,72.7876 285.5688,80.65968 285.5688,80.65968 C289.75192,81.31152 293.44384,81.88672 293.46872,81.89064 C303.60648,83.46976 301.2324,99.23048 291.00768,97.7032 C284.41544,96.71832 277.8192,95.70712 271.24208,94.62408 C269.06536,94.26568 267.00968,95.80568 266.6796,97.96096 C266.33976,100.1328 267.83584,102.18752 270.01552,102.52344 C270.01552,102.52344 277.91496,103.75688 277.92176,103.75784 C288.6932,105.43952 296.27528,115.82528 294.60144,126.60112 C293.1596,135.88728 285.11464,142.99808 275.78408,143.43952 L274.4804,151.80472 C272.8828,162.01864 257.08104,159.5152 258.66792,149.336 C258.67184,149.3116 259.89984,141.43416 259.89984,141.43416 L251.99992,140.2032 C241.84664,138.62264 244.21432,122.81696 254.46088,124.39072 C261.04584,125.40192 267.68112,126.274 274.23432,127.4708 C276.39792,127.86584 278.46432,126.25552 278.78952,124.12952 C279.1284,121.95616 277.61912,119.90344 275.46088,119.5704 L267.5468,118.336 C256.65224,116.63288 249.17184,106.38288 250.86712,95.49272 C252.33144,86.08552 260.4716,79.07088 269.6928,78.60016 Z" id="Combined-Shape"></path>
        </g>
    </g>
</svg>