<?xml version="1.0" encoding="UTF-8"?>
<svg viewBox="0 0 245 96" version="1.1" xmlns="http://www.w3.org/2000/svg" xmlns:xlink="http://www.w3.org/1999/xlink">
    <defs>
        <path d="M0,0 L3447,0 L3447,1990 L0,1990 L0,0 Z" id="path-1"></path>
    </defs>
    <g id="Argon-Website" stroke="none" stroke-width="1" fill="none" fill-rule="evenodd">
        <g id="Frame-Copy" transform="translate(-1227.2651, -611)" xlink:href="#path-1">
            <path stroke="currentColor" stroke-width="1" d="M3446.5,0.5 L3446.5,1989.5 L0.5,1989.5 L0.5,0.5 L3446.5,0.5 Z" stroke-linejoin="square"></path>
            <path d="M1274.32553,660.454904 C1287.0679,660.454904 1297.39763,670.76245 1297.39763,683.477452 C1297.39763,696.192454 1287.0679,706.5 1274.32553,706.5 C1261.58317,706.5 1251.25344,696.192454 1251.25344,683.477452 C1251.25344,670.76245 1261.58317,660.454904 1274.32553,660.454904 Z M1433.26661,660.454904 C1446.00898,660.454904 1456.33871,670.76245 1456.33871,683.477452 C1456.33871,696.192454 1446.00898,706.5 1433.26661,706.5 C1420.52425,706.5 1410.19452,696.192454 1410.19452,683.477452 C1410.19452,670.76245 1420.52425,660.454904 1433.26661,660.454904 Z M1260.48228,632.316234 C1288.6815,610.31691 1330.21127,609.293685 1365.58848,613.386583 C1369.17747,613.898195 1373.27917,614.921419 1376.35545,616.967868 C1403.25239,633.247368 1405.50115,635.148109 1406.90808,635.686653 L1407.00517,635.722179 L1407.10132,635.754267 C1407.2618,635.805429 1407.42587,635.846358 1407.63096,635.897519 C1411.73266,637.432355 1429.67762,636.409131 1458.90227,644.083314 C1467.10568,646.129762 1472.74553,653.803945 1472.23281,663.012964 L1472.23281,678.872942 C1472.23281,683.477452 1469.66925,688.081961 1465.56754,690.12841 C1466.08026,688.081961 1466.08026,686.035513 1466.08026,683.989064 C1466.08026,665.571025 1451.21157,650.734272 1432.7539,650.734272 C1414.29623,650.734272 1399.42755,665.571025 1399.42755,683.989064 C1399.42755,686.547125 1399.94026,688.593574 1400.45297,691.151635 L1306.62646,691.151635 C1307.13918,689.105186 1307.65189,686.547125 1307.65189,683.989064 C1307.65189,665.571025 1292.78321,650.734272 1274.32553,650.734272 C1255.86786,650.734272 1240.99918,665.571025 1240.99918,683.989064 C1240.99918,685.523901 1241.51189,686.547125 1241.51189,688.081961 L1237.41019,687.058737 C1233.30848,686.035513 1229.71949,682.96584 1228.69406,678.36133 C1225.61778,667.105862 1227.66864,654.82717 1233.30848,645.106538 C1234.33391,642.548477 1236.89747,640.502028 1239.97375,639.478804 L1256.38057,634.362682 C1257.91871,634.362682 1258.94414,633.339458 1260.48228,632.316234 Z M1331.2367,621.060766 C1316.36801,621.060766 1303.03747,623.107214 1291.75778,626.6885 L1304.0629,641.525253 C1305.08832,643.060089 1306.62646,643.571702 1308.1646,643.571702 L1337.38925,643.571702 Z M1342.00367,621.572378 L1348.15623,643.571702 L1389.914,643.571469 C1390.79333,643.568674 1391.30301,643.532347 1392.24956,643.060089 L1395.32584,640.502028 L1370.2029,625.153663 C1368.15204,624.130439 1365.58848,623.107214 1363.53762,623.107214 C1356.35964,622.595602 1349.18166,622.08399 1342.00367,621.572378 Z" id="Combined-Shape" fill="#000000" fill-rule="nonzero"></path>
        </g>
    </g>
</svg>