<?xml version="1.0" encoding="UTF-8"?>
<svg viewBox="0 0 30 30" version="1.1" xmlns="http://www.w3.org/2000/svg" xmlns:xlink="http://www.w3.org/1999/xlink">
    <title>Shape</title>
    <g stroke="none" stroke-width="1" fill="none" fill-rule="evenodd">
        <g id="Dashboard-Copy-2" transform="translate(-679, -329)" fill="currentColor" fill-rule="nonzero">
            <g id="Group" transform="translate(189, 289.6428)">
                <path d="M516.101562,68.9196732 L500.695312,68.9196732 C498.821216,68.9196732 497.296875,67.3953324 497.296875,65.5212357 L497.296875,50.1149857 C497.296875,48.240889 498.821216,46.7165482 500.695312,46.7165482 L516.101562,46.7165482 C517.975659,46.7165482 519.5,48.240889 519.5,50.1149857 L519.5,65.5212357 C519.5,67.3953324 517.975659,68.9196732 516.101562,68.9196732 Z M500.695312,48.9821732 C500.070673,48.9821732 499.5625,49.4903458 499.5625,50.1149857 L499.5625,65.5212357 C499.5625,66.1458756 500.070673,66.6540482 500.695312,66.6540482 L516.101562,66.6540482 C516.726202,66.6540482 517.234375,66.1458756 517.234375,65.5212357 L517.234375,50.1149857 C517.234375,49.4903458 516.726202,48.9821732 516.101562,48.9821732 L500.695312,48.9821732 Z M495.03125,59.8571732 L493.898438,59.8571732 C493.273798,59.8571732 492.765625,59.3490006 492.765625,58.7243607 L492.765625,43.3181107 C492.765625,42.6934708 493.273798,42.1852982 493.898438,42.1852982 L509.304688,42.1852982 C509.929327,42.1852982 510.4375,42.6934708 510.4375,43.3181107 L510.4375,44.3942826 L512.703125,44.3942826 L512.703125,43.3181107 C512.703125,41.444014 511.178784,39.9196732 509.304688,39.9196732 L493.898438,39.9196732 C492.024341,39.9196732 490.5,41.444014 490.5,43.3181107 L490.5,58.7243607 C490.5,60.5984574 492.024341,62.1227982 493.898438,62.1227982 L495.03125,62.1227982 L495.03125,59.8571732 Z" id="Shape"></path>
            </g>
        </g>
    </g>
</svg>