<?xml version="1.0" encoding="UTF-8"?>
<svg viewBox="0 0 459 460" version="1.1" xmlns="http://www.w3.org/2000/svg" xmlns:xlink="http://www.w3.org/1999/xlink">
    <title>Combined Shape</title>
    <g id="Page-1" stroke="none" stroke-width="1" fill="none" fill-rule="evenodd">
        <g id="side-bar" transform="translate(-26, -26)" fill="currentColor" fill-rule="nonzero">
            <path d="M319.374933,26.6666667 C435.214933,26.6666667 484.708267,76.16 484.708267,192 L484.708267,320 C484.708267,435.84 435.428267,485.333333 319.374933,485.333333 L191.374933,485.333333 C185.296623,485.333333 179.400983,485.197065 173.685579,484.922093 C172.520767,485.190232 171.300123,485.333333 170.0416,485.333333 C168.128873,485.333333 166.287559,484.98647 164.577894,484.352979 C67.8573849,476.898982 26.0416,426.476882 26.0416,320 L26.0416,192 C26.0416,85.5216428 67.8585439,35.0996199 164.581062,27.6453014 C166.290434,27.0129888 168.130366,26.6666667 170.0416,26.6666667 C171.274478,26.6666667 172.477686,26.8107761 173.635093,27.0828643 C179.363728,26.8037976 185.277417,26.6666667 191.374933,26.6666667 L319.374933,26.6666667 Z M191.374933,58.6666667 C189.574914,58.6666667 187.79612,58.6783869 186.038377,58.7020014 L186.038377,453.297999 C187.79612,453.321613 189.574914,453.333333 191.374933,453.333333 L319.374933,453.333333 C417.7216,453.333333 452.708267,418.346667 452.708267,320 L452.708267,192 C452.708267,93.6533333 417.7216,58.6666667 319.374933,58.6666667 L191.374933,58.6666667 Z M58.0416,192 L58.0416,320 C58.0416,404.708033 83.9972835,442.410956 154.03896,451.239078 L154.03896,60.7609217 C83.9972835,69.5890443 58.0416,107.291967 58.0416,192 Z M330.658133,190.07744 C336.8448,196.264107 336.8448,206.504107 330.658133,212.690773 L287.5648,255.997867 L330.871467,299.304533 C337.058133,305.4912 337.058133,315.7312 330.871467,321.917867 C327.671467,325.117867 323.618133,326.6112 319.351467,326.6112 C315.298133,326.6112 311.2448,325.117867 308.0448,321.917867 L253.431467,267.304533 C247.2448,261.117867 247.2448,250.877867 253.431467,244.6912 L308.0448,190.07744 C314.231467,183.890773 324.471467,183.890773 330.658133,190.07744 Z" id="Combined-Shape"></path>
        </g>
    </g>
</svg>