<?xml version="1.0" encoding="UTF-8"?>
<svg viewBox="0 0 172 172" version="1.1" xmlns="http://www.w3.org/2000/svg" xmlns:xlink="http://www.w3.org/1999/xlink">
    <defs>
        <path d="M0,0 L1440,0 L1440,7588 L0,7588 L0,0 Z" id="path-1"></path>
        <filter x="-0.7%" y="-0.1%" width="101.9%" height="100.4%" filterUnits="objectBoundingBox" id="filter-2">
            <feOffset dx="4" dy="4" in="SourceAlpha" result="shadowOffsetOuter1"></feOffset>
            <feGaussianBlur stdDeviation="4" in="shadowOffsetOuter1" result="shadowBlurOuter1"></feGaussianBlur>
            <feComposite in="shadowBlurOuter1" in2="SourceAlpha" operator="out" result="shadowBlurOuter1"></feComposite>
            <feColorMatrix values="0 0 0 0 0   0 0 0 0 0   0 0 0 0 0  0 0 0 0.25 0" type="matrix" in="shadowBlurOuter1"></feColorMatrix>
        </filter>
    </defs>
    <g id="Argon-Website" stroke="none" stroke-width="1" fill="none" fill-rule="evenodd">
        <g id="Dashboard" transform="translate(-636, -318)" xlink:href="#path-1">
            <use fill="black" fill-opacity="1" filter="url(#filter-2)" xlink:href="#path-1"></use>
            <path stroke-opacity="0.20703125" stroke="#4E4E4E" stroke-width="1" d="M1439.5,0.5 L1439.5,7587.5 L0.5,7587.5 L0.5,0.5 L1439.5,0.5 Z" stroke-linejoin="square"></path>
            <path d="M722,318.995708 C744.704305,318.995708 766.049602,327.837376 782.104285,343.891394 C798.158332,359.946106 807,381.291403 807,403.995708 C807,426.700013 798.158332,448.045311 782.104314,464.099993 C766.049602,480.154041 744.704305,488.995708 722,488.995708 C699.295695,488.995708 677.950398,480.154041 661.895715,464.100022 C645.841668,448.045311 637,426.700013 637,403.995708 C637,388.67313 641.122358,373.652549 648.922659,360.558083 C656.495943,347.843414 667.303331,337.270087 680.175841,329.980678 C680.541404,329.773972 680.95614,329.734743 681.331188,329.838614 C681.70578,329.942357 682.040758,330.188896 682.247433,330.55402 C682.454169,330.919075 682.493285,331.333406 682.389498,331.708153 C682.285686,332.08299 682.038905,332.418255 681.673808,332.625015 C669.259508,339.654627 658.836984,349.851644 651.533272,362.113255 C644.014155,374.736487 640.039062,389.219271 640.039062,403.995708 C640.039062,425.888461 648.564362,446.470518 664.044776,461.950932 C679.52519,477.431346 700.107247,485.956646 722,485.956646 C743.892753,485.956646 764.47481,477.431346 779.955224,461.950932 C795.435638,446.470518 803.960938,425.888461 803.960938,403.995708 C803.960938,382.102956 795.435638,361.520898 779.955224,346.040484 C764.47481,330.56007 743.892753,322.034771 722,322.034771 C711.247668,322.034771 700.796068,324.084502 690.936096,328.126366 C690.547722,328.285444 690.131631,328.272135 689.772843,328.121932 C689.414152,327.971768 689.112756,327.684777 688.953532,327.296297 C688.794326,326.908105 688.807563,326.492212 688.957664,326.133581 C689.107818,325.774825 689.394905,325.47339 689.783264,325.314217 C700.012069,321.12136 710.851518,318.995708 722,318.995708 Z M722,329.784341 C741.822628,329.784341 760.45859,337.50364 774.475486,351.520205 C788.492069,365.537119 796.211367,384.17308 796.211367,403.995708 C796.211367,423.818337 788.492069,442.454298 774.475503,456.471195 C760.45859,470.487777 741.822628,478.207075 722,478.207075 C713.379456,478.207075 704.931877,476.741913 696.891638,473.851458 C696.496783,473.709541 696.196845,473.420996 696.03109,473.069248 C695.865345,472.717521 695.833757,472.302582 695.975723,471.907692 C696.117617,471.512798 696.40609,471.212884 696.757805,471.047162 C697.109659,470.881374 697.524775,470.849876 697.919699,470.991818 C705.62823,473.762582 713.729923,475.168013 722,475.168013 C741.622172,475.168013 759.415495,467.18644 772.303114,454.298822 C785.190732,441.411204 793.172305,423.61788 793.172305,403.995708 C793.172305,384.373536 785.190732,366.580213 772.303114,353.692595 C759.415495,340.804976 741.622172,332.823403 722,332.823403 C702.377828,332.823403 684.584505,340.804976 671.696886,353.692595 C658.809268,366.580213 650.827695,384.373536 650.827695,403.995708 C650.827695,417.056526 654.396013,429.582035 660.836248,440.402535 C667.276336,451.222787 676.58826,460.338179 688.076011,466.578733 C688.444654,466.77901 688.697239,467.109776 688.807598,467.482648 C688.917956,467.85552 688.886085,468.270503 688.685865,468.639141 C688.485589,469.007784 688.154823,469.260369 687.781951,469.370728 C687.409079,469.481086 686.994096,469.449215 686.625417,469.248973 C674.647662,462.742412 664.938326,453.238251 658.223527,441.956003 C651.508833,430.673934 647.788633,417.613905 647.788633,403.995708 C647.788633,384.17308 655.507931,365.537119 669.524497,351.520222 C683.54141,337.50364 702.177372,329.784341 722,329.784341 Z M718.920881,359.081481 L719.451296,359.84502 L738.679735,387.525684 L752.497116,383.824197 L754.985052,393.1093 L744.508401,395.915981 L749.07156,402.484836 L756.93283,400.378507 L759.420722,409.663444 L754.899807,410.873994 L768.135837,429.927053 L769.209172,431.472133 L754.060352,435.531247 L753.532547,434.750626 L740.072914,414.847099 L713.173913,422.054665 L711.472764,446.020595 L711.40598,446.960452 L696.257168,451.019564 L696.414168,449.144762 L698.348835,426.026781 L693.82987,427.23846 L691.341978,417.953522 L699.20176,415.847409 L699.869145,407.877034 L689.3942,410.684316 L686.906265,401.399213 L700.721738,397.696499 L703.535194,364.109744 L703.612779,363.183274 L718.920881,359.081481 Z M729.916109,399.826043 L714.458456,403.967909 L713.895002,411.910375 L734.376623,406.422341 L729.916109,399.826043 Z M716.193815,379.531616 L715.17817,393.822952 L724.218468,391.400612 L716.193815,379.531616 Z" id="logo" stroke="#7B1088" stroke-width="2" fill="currentColor" fill-rule="nonzero" opacity="0.899999976"></path>
        </g>
    </g>
</svg>