<?xml version="1.0" encoding="UTF-8"?>
<svg viewBox="0 0 50 60" version="1.1" xmlns="http://www.w3.org/2000/svg" xmlns:xlink="http://www.w3.org/1999/xlink">
    <title>mac-old</title>
    <g id="Page-1" stroke="none" stroke-width="1" fill="none" fill-rule="evenodd">
        <g id="computer" transform="translate(-5, 0)" fill="currentColor" fill-rule="nonzero">
            <path d="M52,0 C53.6568542,0 55,1.34314575 55,3 L55,49 C54.9947486,50.2667854 54.1943509,51.3937454 53,51.816 L53,57 C53,58.6568542 51.6568542,60 50,60 L10,60 C8.34314575,60 7,58.6568542 7,57 L7,51.816 C5.80564913,51.3937454 5.00525139,50.2667854 5,49 L5,3 C5,1.34314575 6.34314575,0 8,0 Z M9,52 L9,57 C9,57.5522847 9.44771525,58 10,58 L50,58 C50.5522847,58 51,57.5522847 51,57 L51,52 L9,52 Z M15,54 C15.5522847,54 16,54.4477153 16,55 C16,55.5522847 15.5522847,56 15,56 L13,56 C12.4477153,56 12,55.5522847 12,55 C12,54.4477153 12.4477153,54 13,54 Z M42,54 C42.5522847,54 43,54.4477153 43,55 C43,55.5522847 42.5522847,56 42,56 L41,56 C40.4477153,56 40,55.5522847 40,55 C40,54.4477153 40.4477153,54 41,54 Z M47,54 C47.5522847,54 48,54.4477153 48,55 C48,55.5522847 47.5522847,56 47,56 L46,56 C45.4477153,56 45,55.5522847 45,55 C45,54.4477153 45.4477153,54 46,54 Z M8,2 C7.44771525,2 7,2.44771525 7,3 L7,49 C7,49.5522847 7.44771525,50 8,50 L52,50 C52.5522847,50 53,49.5522847 53,49 L53,3 C53,2.44771525 52.5522847,2 52,2 Z M49,37 C50.1045695,37 51,37.8954305 51,39 L51,45 C51,46.1045695 50.1045695,47 49,47 L45,47 C43.8954305,47 43,46.1045695 43,45 L35,45 C33.8954305,45 33,44.1045695 33,43 L33,41 C33,39.8954305 33.8954305,39 35,39 L43,39 C43,37.8954305 43.8954305,37 45,37 Z M12.293,37.293 C12.6853789,36.9140278 13.3090848,36.9194476 13.6948186,37.3051814 C14.0805524,37.6909152 14.0859722,38.3146211 13.707,38.707 C13.5332529,38.8799323 13.3829681,39.0749328 13.26,39.287 C14.5382616,39.8762538 15.2334737,41.2763274 14.9303264,42.6508361 C14.627179,44.0253449 13.4075379,45.0030983 12,45.0000073 C10.510075,45.0030702 9.24492613,43.9094406 9.03242304,42.4347445 C8.81991995,40.9600485 9.72482517,39.553715 11.155,39.136 C11.3770507,38.437453 11.7679209,37.8044356 12.293,37.293 Z M45,39 L45,40 C45,40.5522847 44.5522847,41 44,41 L35,41 L35,43 L44,43 C44.5522847,43 45,43.4477153 45,44 L45,45 L49,45 L49,39 L45,39 Z M12,41 C11.4477153,41 11,41.4477153 11,42 C11,42.5522847 11.4477153,43 12,43 C12.5522847,43 13,42.5522847 13,42 C13,41.4477153 12.5522847,41 12,41 Z M19,41 C19.5522847,41 20,41.4477153 20,42 C20,42.5522847 19.5522847,43 19,43 L18,43 C17.4477153,43 17,42.5522847 17,42 C17,41.4477153 17.4477153,41 18,41 Z M23,41 L28,41 C28.5522847,41 29,41.4477153 29,42 C29,42.5522847 28.5522847,43 28,43 L23,43 C22.4477153,43 22,42.5522847 22,42 C22,41.4477153 22.4477153,41 23,41 Z M49,4 C50.1045695,4 51,4.8954305 51,6 L51,30 C51,31.1045695 50.1045695,32 49,32 L11,32 C9.8954305,32 9,31.1045695 9,30 L9,6 C9,4.8954305 9.8954305,4 11,4 Z M11,6 L11,30 L49,30 L49,6 L11,6 Z M28.293,8.293 C28.6853789,7.91402779 29.3090848,7.91944763 29.6948186,8.30518142 C30.0805524,8.69091522 30.0859722,9.31462111 29.707,9.707 L14.707,24.707 C14.4559255,24.9669566 14.0841221,25.0712126 13.7344927,24.9796972 C13.3848632,24.8881817 13.1118183,24.6151368 13.0203028,24.2655073 C12.9287874,23.9158779 13.0330434,23.5440745 13.293,23.293 Z M22.293,8.293 C22.6853789,7.91402779 23.3090848,7.91944763 23.6948186,8.30518142 C24.0805524,8.69091522 24.0859722,9.31462111 23.707,9.707 L14.707,18.707 C14.5195073,18.8945494 14.2651948,19 14,19 C13.5956041,19 13.2310659,18.7562725 13.076322,18.3826546 C12.9215781,18.0090366 13.0070921,17.5789943 13.293,17.293 Z M16.293,8.293 C16.6853789,7.91402779 17.3090848,7.91944763 17.6948186,8.30518142 C18.0805524,8.69091522 18.0859722,9.31462111 17.707,9.707 L14.707,12.707 C14.5195073,12.8945494 14.2651948,12.9999434 14,13 C13.5956041,12.9999137 13.2310659,12.7562725 13.076322,12.3826546 C12.9215781,12.0090366 13.0070921,11.5789943 13.293,11.293 Z" id="mac-old"></path>
        </g>
    </g>
</svg>