<?xml version="1.0" encoding="UTF-8"?>
<svg width="655px" height="156px" viewBox="0 0 655 156" version="1.1" xmlns="http://www.w3.org/2000/svg" xmlns:xlink="http://www.w3.org/1999/xlink">
    <title>START</title>
    <defs>
        <path d="M0,0 L1440,0 L1440,1933 L0,1933 L0,0 Z" id="path-1"></path>
        <filter x="-0.7%" y="-0.5%" width="101.9%" height="101.4%" filterUnits="objectBoundingBox" id="filter-2">
            <feOffset dx="4" dy="4" in="SourceAlpha" result="shadowOffsetOuter1"></feOffset>
            <feGaussianBlur stdDeviation="4" in="shadowOffsetOuter1" result="shadowBlurOuter1"></feGaussianBlur>
            <feComposite in="shadowBlurOuter1" in2="SourceAlpha" operator="out" result="shadowBlurOuter1"></feComposite>
            <feColorMatrix values="0 0 0 0 0   0 0 0 0 0   0 0 0 0 0  0 0 0 0.25 0" type="matrix" in="shadowBlurOuter1"></feColorMatrix>
        </filter>
    </defs>
    <g id="Argon-Website" stroke="none" stroke-width="1" fill="none" fill-rule="evenodd">
        <g id="Dashboard-Copy-2" transform="translate(-160, -182)" xlink:href="#path-1">
            <use fill="black" fill-opacity="1" filter="url(#filter-2)" xlink:href="#path-1"></use>
            <path stroke-opacity="0.20703125" stroke="#4E4E4E" stroke-width="1" d="M1439.5,0.5 L1439.5,1932.5 L0.5,1932.5 L0.5,0.5 L1439.5,0.5 Z" stroke-linejoin="square"></path>
            <g id="START" stroke-width="1" fill-rule="evenodd" transform="translate(152, 135.5188)" stroke="#7C1189">
                <path d="M67.3359375,47.3925781 C82.6896489,47.3925781 95.7894625,51.4551968 106.63047,59.59419 C117.316031,67.6164804 122.961006,79.2252114 123.593996,94.4042969 L95.0964847,94.4042969 C94.4459427,85.6193143 90.5064352,79.3686482 83.3027532,75.6334093 C78.4602202,73.1448855 72.4421721,71.8925781 65.2441406,71.8925781 C57.2212448,71.8925781 50.8229298,73.5249427 46.0383224,76.7596068 C41.1771617,80.0460253 38.7460938,84.6331449 38.7460938,90.5214844 C38.7460938,93.2429263 39.3539881,95.6179379 40.5592305,97.6496322 C41.7634305,99.6795693 43.5660434,101.369819 45.9686112,102.708323 C48.9782546,104.447228 55.3949681,106.496782 65.2269911,108.837739 L90.528065,114.913981 C101.529591,117.549077 109.836019,121.064062 115.436658,125.478683 C124.08746,132.294467 128.394531,142.164214 128.394531,155.068359 C128.394531,168.330906 123.321594,179.344103 113.177977,188.108976 C102.995351,196.907556 88.6047706,201.285156 70.0253906,201.285156 C51.0375525,201.285156 36.0953291,196.967627 25.2139682,188.295512 C14.4957922,179.75345 9.08711705,168.044282 8.9687821,153.177734 L37.3180517,153.177734 C38.2822228,159.784244 40.1344476,164.731659 42.8446261,168.036752 C47.9001615,174.170802 56.5437971,177.283203 68.8300781,177.283203 C76.1374999,177.283203 82.0691015,176.472866 86.6288744,174.863532 C91.0187786,173.298139 94.3035085,171.052434 96.4973026,168.144381 C98.7004155,165.223976 99.8105469,161.631054 99.8105469,157.359375 C99.8105469,152.33097 97.6106404,148.435825 93.195732,145.676545 C88.9128226,143.066647 82.1903283,140.74992 73.0235209,138.742597 L57.4852606,135.25645 C42.2999544,131.82325 31.7950391,128.105414 25.98166,124.075696 C16.2156037,117.390207 11.3574219,106.926155 11.3574219,92.7128906 C11.3574219,79.713337 16.083057,68.9123008 25.5376361,60.31126 C35.0237754,51.6815083 48.96464,47.3925781 67.3359375,47.3925781 Z" id="Path" fill-rule="nonzero"></path>
                <path d="M257.787109,51.6757812 L257.787109,76.6738281 L213.859375,76.6738281 L213.859375,197.5 L183.980469,197.5 L183.980469,76.6738281 L139.853516,76.6738281 L139.853516,51.6757812 L257.787109,51.6757812 Z" id="Path" fill-rule="nonzero"></path>
                <path d="M347.138672,167.818359 L293.050781,167.818359 L282.890625,198 L250.816406,198 L303.210938,51.1757812 L337.875,51.1757812 L389.871094,198 L356.601562,198 L347.138672,167.818359 Z M338.572266,142.517578 L320.244141,84.7441406 L301.318359,142.517578 L338.572266,142.517578 Z" id="Shape" fill-rule="nonzero"></path>
                <path d="M470.853516,140.425781 L439.177734,140.425781 L439.177734,198 L409.195312,198 L409.195312,51.1757812 L481.212891,51.1757812 C491.505859,51.375 499.424805,52.6367188 504.969727,54.9609375 C510.514648,57.2851562 515.212891,60.7050781 519.064453,65.2207031 C522.251953,68.9394531 524.775391,73.0566406 526.634766,77.5722656 C528.494141,82.0878906 529.423828,87.234375 529.423828,93.0117188 C529.423828,99.984375 527.664062,106.84082 524.144531,113.581055 C520.625,120.321289 514.814453,125.085938 506.712891,127.875 C513.486328,130.597656 518.28418,134.46582 521.106445,139.479492 C523.928711,144.493164 525.339844,152.146484 525.339844,162.439453 L525.339844,172.300781 C525.339844,179.007812 525.605469,183.556641 526.136719,185.947266 C526.933594,189.732422 528.792969,192.521484 531.714844,194.314453 L531.714844,198 L497.947266,198 C497.017578,194.746094 496.353516,192.123047 495.955078,190.130859 C495.158203,186.013672 494.726562,181.796875 494.660156,177.480469 L494.460938,163.833984 C494.328125,154.470703 492.618164,148.228516 489.331055,145.107422 C486.043945,141.986328 479.884766,140.425781 470.853516,140.425781 Z M489.480469,113.730469 C495.589844,110.941406 498.644531,105.429688 498.644531,97.1953125 C498.644531,88.296875 495.689453,82.3203125 489.779297,79.265625 C486.458984,77.5390625 481.478516,76.6757812 474.837891,76.6757812 L439.177734,76.6757812 L439.177734,116.121094 L473.941406,116.121094 C480.847656,116.121094 486.027344,115.324219 489.480469,113.730469 Z" id="Shape" fill-rule="nonzero"></path>
                <path d="M662.001953,51.6757812 L662.001953,76.6738281 L618.074219,76.6738281 L618.074219,197.5 L588.195312,197.5 L588.195312,76.6738281 L544.068359,76.6738281 L544.068359,51.6757812 L662.001953,51.6757812 Z" id="Path" fill-rule="nonzero"></path>
            </g>
        </g>
    </g>
</svg>