<?xml version="1.0" encoding="UTF-8"?>
<svg viewBox="0 0 76 73" version="1.1" xmlns="http://www.w3.org/2000/svg" xmlns:xlink="http://www.w3.org/1999/xlink">
    <defs>
        <path d="M0,0 L1440,0 L1440,7588 L0,7588 L0,0 Z" id="path-1"></path>
        <filter x="-0.7%" y="-0.1%" width="101.9%" height="100.4%" filterUnits="objectBoundingBox" id="filter-2">
            <feOffset dx="4" dy="4" in="SourceAlpha" result="shadowOffsetOuter1"></feOffset>
            <feGaussianBlur stdDeviation="4" in="shadowOffsetOuter1" result="shadowBlurOuter1"></feGaussianBlur>
            <feComposite in="shadowBlurOuter1" in2="SourceAlpha" operator="out" result="shadowBlurOuter1"></feComposite>
            <feColorMatrix values="0 0 0 0 0   0 0 0 0 0   0 0 0 0 0  0 0 0 0.25 0" type="matrix" in="shadowBlurOuter1"></feColorMatrix>
        </filter>
    </defs>
    <g id="Argon-Website" stroke="none" stroke-width="1" fill="none" fill-rule="evenodd">
        <g id="Dashboard" transform="translate(-683, -7276)" xlink:href="#path-1">
            <use fill="black" fill-opacity="1" filter="url(#filter-2)" xlink:href="#path-1"></use>
            <path stroke-opacity="0.20703125" stroke="#4E4E4E" stroke-width="1" d="M1439.5,0.5 L1439.5,7587.5 L0.5,7587.5 L0.5,0.5 L1439.5,0.5 Z" stroke-linejoin="square"></path>
            <g id="Group-2" stroke-width="1" fill-rule="evenodd" transform="translate(-0.1234, 7182)" fill="currentColor">
                <path d="M750.492915,122.616327 C749.98609,122.205317 749.322531,122.039164 748.680943,122.164508 C748.039356,122.289851 747.487122,122.692116 747.173653,123.263449 C743.221592,130.472154 735.641195,134.949537 727.388449,134.949537 L716.144559,134.949537 L716.144559,129.9941 L730.353227,129.9941 C732.830222,129.9941 735.012791,128.204312 736.496644,124.955585 C739.048345,119.368037 739.048345,110.596038 736.496644,105.00849 C735.012791,101.759763 732.830222,99.9699758 730.353227,99.9699758 L716.144559,99.9699758 L716.144559,96.3262714 C716.144559,95.1188935 715.160791,94.1400488 713.947342,94.1400488 C712.733892,94.1400488 711.750125,95.1188935 711.750125,96.3262714 L711.750125,99.9699758 L695.19776,99.9699758 C693.984896,99.9699758 693.000543,100.949403 693.000543,102.156198 C693.000543,103.362993 693.984896,104.342421 695.19776,104.342421 C695.685542,104.342421 696.562963,105.116344 697.340778,106.817225 C699.363829,111.24622 699.363829,118.717855 697.340778,123.14685 C696.562963,124.847732 695.685542,125.621654 695.19776,125.621654 C693.984896,125.621654 693.000543,126.601082 693.000543,127.807877 C693.000543,129.014672 693.984896,129.9941 695.19776,129.9941 L711.750125,129.9941 L711.750125,134.949537 L685.676487,134.949537 C684.195417,134.949537 683.137677,136.380493 683.578878,137.787254 L686.993352,148.658611 L683.669696,156.06699 C683.36648,156.743262 683.428002,157.52593 683.833755,158.146817 C684.238043,158.769162 684.932363,159.143734 685.676487,159.143734 L690.167598,159.143734 L695.392579,147.878858 C695.900869,146.782832 697.20748,146.304778 698.309018,146.810524 C699.410556,147.31627 699.891014,148.614886 699.382725,149.71237 L693.202687,163.037251 C692.694251,164.133423 693.175148,165.432477 694.276979,165.938368 C695.37881,166.44426 696.68425,165.965623 697.192686,164.869451 L699.848681,159.143589 L705.404563,159.143589 L710.62515,147.888915 C711.13344,146.791431 712.438586,146.313377 713.540124,146.819123 C714.640491,147.324286 715.122413,148.622174 714.615296,149.717325 L708.436722,163.037105 C707.928287,164.133277 708.409184,165.432331 709.511015,165.938223 C710.612846,166.444115 711.918286,165.965478 712.426722,164.869306 L715.082717,159.143443 L720.638599,159.143443 L725.86358,147.878566 C726.37187,146.78254 727.677017,146.304486 728.780019,146.810232 C729.870571,147.310877 730.350883,148.58836 729.867202,149.678848 L723.670905,163.037105 C723.162469,164.133277 723.643366,165.432331 724.745197,165.938223 C725.847028,166.444115 727.152468,165.965478 727.660904,164.869306 L730.316899,159.143443 L738.592936,159.143443 C749.557047,159.143443 758.477747,150.267379 758.477747,139.358128 C758.477747,132.840561 755.567021,126.738085 750.492915,122.616327 L750.492915,122.616327 Z" id="argonots" fill-rule="nonzero"></path>
            </g>
        </g>
    </g>
</svg>