<?xml version="1.0" encoding="UTF-8"?>
<svg viewBox="0 0 84 73" version="1.1" xmlns="http://www.w3.org/2000/svg" xmlns:xlink="http://www.w3.org/1999/xlink">
    <title>community</title>
    <defs>
        <path d="M0,0 L1440,0 L1440,7588 L0,7588 L0,0 Z" id="path-1"></path>
        <filter x="-0.7%" y="-0.1%" width="101.9%" height="100.4%" filterUnits="objectBoundingBox" id="filter-2">
            <feOffset dx="4" dy="4" in="SourceAlpha" result="shadowOffsetOuter1"></feOffset>
            <feGaussianBlur stdDeviation="4" in="shadowOffsetOuter1" result="shadowBlurOuter1"></feGaussianBlur>
            <feComposite in="shadowBlurOuter1" in2="SourceAlpha" operator="out" result="shadowBlurOuter1"></feComposite>
            <feColorMatrix values="0 0 0 0 0   0 0 0 0 0   0 0 0 0 0  0 0 0 0.25 0" type="matrix" in="shadowBlurOuter1"></feColorMatrix>
        </filter>
    </defs>
    <g id="Argon-Website" stroke="none" stroke-width="1" fill="none" fill-rule="evenodd">
        <g id="Dashboard" transform="translate(-1148, -7276)" xlink:href="#path-1">
            <use fill="black" fill-opacity="1" filter="url(#filter-2)" xlink:href="#path-1"></use>
            <path stroke-opacity="0.20703125" stroke="#4E4E4E" stroke-width="1" d="M1439.5,0.5 L1439.5,7587.5 L0.5,7587.5 L0.5,0.5 L1439.5,0.5 Z" stroke-linejoin="square"></path>
            <g id="Group-2" stroke-width="1" fill-rule="evenodd" transform="translate(-0.1234, 7182)" fill="currentColor">
                <path d="M1224.85337,146.826468 C1223.96491,146.512413 1223.07646,146.199985 1222.24322,145.811077 C1221.80631,145.602792 1221.41974,145.290364 1221.15661,144.878675 C1220.9081,144.491395 1220.77492,144.016244 1220.77492,143.495531 L1220.77492,143.153812 C1221.01043,142.965054 1221.23945,142.76165 1221.45222,142.545229 C1222.47874,141.51682 1223.23888,140.219919 1223.61083,138.771685 L1224.26864,138.771685 C1225.11649,138.771685 1225.88476,138.425085 1226.437,137.866946 C1226.99411,137.308806 1227.34007,136.542381 1227.34007,135.694595 C1227.34007,134.397693 1227.33033,133.107301 1227.35469,131.810399 C1227.4424,127.304602 1227.50737,124.019227 1222.30819,123.226767 L1222.63466,122.78416 C1222.86531,122.470105 1222.99849,122.110487 1223.02611,121.745988 C1223.04884,121.376607 1222.97088,121.003972 1222.78247,120.657372 C1222.60218,120.325417 1222.34068,120.056925 1222.02233,119.873048 C1221.71372,119.692425 1221.35964,119.596419 1220.98607,119.596419 L1214.17728,119.596419 C1211.3641,119.596419 1208.62889,120.509294 1206.6457,122.188594 C1204.77621,123.770261 1203.57915,126.002819 1203.57915,128.770736 L1203.57915,135.694595 C1203.57915,136.544008 1203.92511,137.308806 1204.48222,137.866946 C1205.03446,138.425085 1205.80435,138.771685 1206.65057,138.771685 L1207.30839,138.771685 C1207.68196,140.219919 1208.44048,141.51682 1209.467,142.545229 C1209.69764,142.776295 1209.9364,142.992717 1210.18978,143.191239 L1210.18978,143.495531 C1210.18978,144.016244 1210.05659,144.491395 1209.80809,144.878675 C1209.54496,145.288737 1209.16326,145.602792 1208.72147,145.811077 C1207.88824,146.198358 1206.99978,146.512413 1206.1162,146.826468 C1204.146,147.518041 1202.18393,148.209613 1200.81632,149.464206 C1202.76378,150.146015 1204.75347,150.861996 1206.39232,152.15727 C1208.6029,153.896778 1209.6148,156.257887 1209.6148,159.061603 L1209.6148,161.077739 L1229.99245,161.077739 C1230.54469,161.077739 1231.04657,160.856436 1231.4104,160.491937 C1231.77423,160.127438 1232,159.624624 1232,159.071366 L1232,154.002548 C1231.99838,149.345419 1228.43481,148.090825 1224.85337,146.826468 Z M1223.87233,132.957596 L1224.26864,132.957596 C1224.40183,132.957596 1224.51715,133.012922 1224.60486,133.100792 C1224.69257,133.183781 1224.74779,133.304196 1224.74779,133.432747 L1224.74779,135.697849 C1224.74779,135.8264 1224.69257,135.946815 1224.60486,136.034686 C1224.51715,136.117674 1224.40183,136.173 1224.26864,136.173 L1223.87233,136.173 L1223.87233,132.957596 Z M1207.04851,136.171373 L1206.64733,136.171373 C1206.51901,136.171373 1206.39882,136.116047 1206.31111,136.033059 C1206.2234,135.945188 1206.17305,135.824773 1206.17305,135.696222 L1206.17305,133.431119 C1206.17305,133.302568 1206.2234,133.182153 1206.31111,133.099165 C1206.39882,133.011294 1206.51901,132.955969 1206.64733,132.955969 L1207.04851,132.955969 L1207.04851,136.171373 Z M1217.93738,148.022482 C1217.24708,148.520414 1216.39923,148.811688 1215.48316,148.811688 C1214.56222,148.811688 1213.71437,148.520414 1213.02407,148.022482 C1212.50431,147.648219 1212.07064,147.16005 1211.76204,146.597029 C1211.84,146.491259 1211.91472,146.380607 1211.98294,146.269956 C1212.31915,145.749243 1212.55467,145.168322 1212.67811,144.549975 C1213.49835,144.826604 1214.37706,144.974682 1215.28825,144.974682 L1215.62447,144.974682 C1216.55516,144.974682 1217.44361,144.818468 1218.27684,144.536957 C1218.40191,145.160186 1218.64067,145.745988 1218.97689,146.271583 C1219.04673,146.382235 1219.11982,146.492886 1219.19778,146.598656 C1218.8908,147.158423 1218.45713,147.648219 1217.93738,148.022482 L1217.93738,148.022482 Z M1215.62609,142.375997 L1215.28988,142.375997 C1213.78421,142.375997 1212.35651,141.767413 1211.30238,140.711342 C1210.23851,139.645507 1209.64079,138.211918 1209.64079,136.711613 L1209.64079,131.947087 C1209.64079,131.711138 1209.73337,131.486581 1209.90392,131.315722 C1210.06471,131.154626 1210.29048,131.052111 1210.53412,131.052111 L1211.1091,131.052111 C1211.5379,131.052111 1211.95208,130.991903 1212.36626,130.868234 C1212.76744,130.742937 1213.14426,130.563942 1213.51296,130.319858 L1214.494,129.66083 C1214.79286,129.462308 1215.12421,129.36142 1215.46042,129.36142 C1215.79177,129.36142 1216.12798,129.462308 1216.42684,129.66083 L1217.40788,130.319858 C1217.77171,130.563942 1218.14853,130.744564 1218.55459,130.868234 C1218.96877,130.99353 1219.38295,131.052111 1219.81175,131.052111 L1220.38672,131.052111 C1220.63036,131.052111 1220.85126,131.152999 1221.01693,131.315722 C1221.1826,131.486581 1221.28005,131.712766 1221.28005,131.947087 L1221.28005,136.711613 C1221.28005,138.210291 1220.68071,139.645507 1219.61846,140.711342 C1218.55946,141.767413 1217.13663,142.375997 1215.62609,142.375997 L1215.62609,142.375997 Z M1180.18368,149.465834 C1178.81607,148.21124 1176.85562,147.519668 1174.8838,146.828095 C1173.99534,146.51404 1173.10689,146.201612 1172.27365,145.812705 C1171.83674,145.604419 1171.45017,145.291991 1171.18704,144.880302 C1170.93853,144.493022 1170.80535,144.017871 1170.80535,143.497158 L1170.80535,143.192866 C1171.05873,142.994344 1171.30236,142.777923 1171.52813,142.546856 C1172.55465,141.518447 1173.31479,140.221546 1173.68674,138.773312 L1174.34943,138.773312 C1175.1924,138.773312 1175.96067,138.426712 1176.51778,137.868573 C1177.07002,137.310433 1177.41598,136.544008 1177.41598,135.696222 C1177.41598,133.390439 1177.41598,131.078146 1177.42085,128.772363 C1177.42085,126.004446 1176.21892,123.771888 1174.3543,122.190222 C1172.36948,120.510921 1169.63427,119.598046 1166.81785,119.598046 L1160.00906,119.598046 C1159.64036,119.598046 1159.28628,119.69568 1158.9728,119.874675 C1158.65445,120.058552 1158.39782,120.327045 1158.21266,120.658999 C1158.02912,121.005599 1157.94628,121.378234 1157.97389,121.747615 C1158.00151,122.112115 1158.12982,122.471732 1158.36534,122.785788 L1158.69181,123.228394 C1153.48938,124.022482 1153.55435,127.30623 1153.64044,131.812027 C1153.66805,133.108928 1153.65506,134.399321 1153.65506,135.696222 C1153.65506,136.545636 1154.00102,137.310433 1154.55813,137.868573 C1155.11524,138.426712 1155.88026,138.773312 1156.72648,138.773312 L1157.3843,138.773312 C1157.75787,140.221546 1158.51639,141.518447 1159.54291,142.546856 C1159.75893,142.763278 1159.9847,142.966681 1160.22508,143.15544 L1160.22508,143.497158 C1160.22508,144.017871 1160.08702,144.493022 1159.84339,144.880302 C1159.58026,145.290364 1159.19369,145.604419 1158.7519,145.812705 C1157.91867,146.199985 1157.03021,146.51404 1156.14663,146.828095 C1152.5587,148.090825 1149,149.345419 1149,154.004175 L1149,159.072993 C1149,159.626251 1149.22577,160.129065 1149.58472,160.493564 C1149.94855,160.858064 1150.45044,161.079367 1151.00268,161.079367 L1171.39494,161.079367 L1171.39494,159.06323 C1171.39494,156.259515 1172.40359,153.896778 1174.61255,152.158898 C1176.2514,150.868505 1178.23622,150.152524 1180.18368,149.465834 Z M1173.94986,132.957596 L1174.35105,132.957596 C1174.47936,132.957596 1174.59956,133.012922 1174.68239,133.100792 C1174.7701,133.183781 1174.82533,133.304196 1174.82533,133.432747 L1174.82533,135.697849 C1174.82533,135.8264 1174.7701,135.946815 1174.68239,136.034686 C1174.59956,136.117674 1174.47936,136.173 1174.35105,136.173 L1173.94986,136.173 L1173.94986,132.957596 Z M1157.12117,136.171373 L1156.72486,136.171373 C1156.59654,136.171373 1156.47635,136.116047 1156.38864,136.033059 C1156.30093,135.945188 1156.25058,135.824773 1156.25058,135.696222 L1156.25058,133.431119 C1156.25058,133.302568 1156.30093,133.182153 1156.38864,133.099165 C1156.47635,133.011294 1156.59654,132.955969 1156.72486,132.955969 L1157.12117,132.955969 L1157.12117,136.171373 Z M1167.96943,148.022482 C1167.28401,148.520414 1166.43128,148.811688 1165.51521,148.811688 C1164.59427,148.811688 1163.74642,148.520414 1163.05612,148.022482 C1162.53637,147.648219 1162.1027,147.16005 1161.79409,146.597029 C1161.87206,146.491259 1161.94677,146.380607 1162.01986,146.269956 C1162.35608,145.744361 1162.59159,145.158559 1162.71503,144.53533 C1163.54827,144.81684 1164.4416,144.973054 1165.36741,144.973054 L1165.70363,144.973054 C1166.61482,144.973054 1167.49516,144.824977 1168.31377,144.548348 C1168.44209,145.166695 1168.6776,145.747615 1169.00894,146.268329 C1169.07879,146.37898 1169.15675,146.489632 1169.23471,146.595402 C1168.92611,147.158423 1168.48919,147.648219 1167.96943,148.022482 L1167.96943,148.022482 Z M1165.70363,142.375997 L1165.36741,142.375997 C1163.86174,142.375997 1162.43404,141.767413 1161.37991,140.711342 C1160.31117,139.645507 1159.71832,138.211918 1159.71832,136.711613 L1159.71832,131.947087 C1159.71832,131.711138 1159.8109,131.486581 1159.98145,131.315722 C1160.14225,131.154626 1160.36802,131.052111 1160.61165,131.052111 L1161.18338,131.052111 C1161.61543,131.052111 1162.03123,130.991903 1162.44054,130.868234 C1162.84497,130.742937 1163.22342,130.563942 1163.59212,130.319858 L1164.57316,129.66083 C1164.87202,129.462308 1165.20336,129.36142 1165.53958,129.36142 C1165.87092,129.36142 1166.20714,129.462308 1166.506,129.66083 L1167.48704,130.319858 C1167.85086,130.563942 1168.22769,130.744564 1168.63374,130.868234 C1169.04792,130.99353 1169.4621,131.052111 1169.8909,131.052111 L1170.46588,131.052111 C1170.70952,131.052111 1170.93041,131.152999 1171.09608,131.315722 C1171.26176,131.486581 1171.35921,131.712766 1171.35921,131.947087 L1171.35921,136.711613 C1171.35921,138.210291 1170.75987,139.645507 1169.69762,140.711342 C1168.63699,141.767413 1167.20929,142.375997 1165.70363,142.375997 Z M1199.87102,151.88715 C1198.98744,151.573095 1198.09411,151.25904 1197.26575,150.871759 C1196.82396,150.663474 1196.43739,150.351046 1196.17426,149.939357 C1195.93063,149.547195 1195.79257,149.076926 1195.79257,148.556213 L1195.79257,148.214495 C1196.03133,148.025736 1196.2571,147.822332 1196.47475,147.605911 C1197.50126,146.577502 1198.2614,145.280601 1198.63335,143.827485 L1199.29117,143.827485 C1200.13902,143.827485 1200.90241,143.480885 1201.45952,142.927628 C1202.01663,142.369488 1202.3626,141.599809 1202.3626,140.755277 C1202.3626,139.458375 1202.34798,138.167983 1202.37559,136.871081 C1202.4633,132.365284 1202.52827,129.079909 1197.32422,128.287449 L1197.65069,127.844842 C1197.88621,127.530787 1198.01452,127.17117 1198.04213,126.801789 C1198.06974,126.437289 1197.98691,126.063027 1197.80337,125.718054 C1197.61983,125.381218 1197.35671,125.117607 1197.04323,124.93373 C1196.72975,124.753107 1196.37567,124.652219 1196.00697,124.652219 L1189.19818,124.652219 C1186.38013,124.652219 1183.64492,125.569976 1181.66173,127.249277 C1179.79711,128.826061 1178.59517,131.063501 1178.59517,133.831418 C1178.60005,136.137201 1178.60005,138.444612 1178.60005,140.755277 C1178.60005,141.599809 1178.94601,142.369488 1179.49825,142.927628 C1180.05536,143.480885 1180.82362,143.827485 1181.6666,143.827485 L1182.32929,143.827485 C1182.70286,145.280601 1183.46138,146.575875 1184.4879,147.605911 C1184.71367,147.836977 1184.9573,148.048517 1185.21068,148.251921 L1185.21068,148.556213 C1185.21068,149.076926 1185.07749,149.547195 1184.82899,149.939357 C1184.56586,150.349419 1184.17929,150.663474 1183.74237,150.871759 C1182.90914,151.25904 1182.02068,151.573095 1181.13223,151.88715 C1177.54592,153.151507 1173.98722,154.406101 1173.98722,159.064857 L1173.98722,164.133675 C1173.98722,164.686933 1174.21299,165.189747 1174.57682,165.554246 C1174.93577,165.913864 1175.43766,166.140049 1175.9899,166.140049 L1181.35312,166.140049 L1181.35312,161.578926 C1181.35312,160.859691 1181.93298,160.27877 1182.64764,160.27877 C1183.36555,160.27877 1183.9454,160.859691 1183.9454,161.578926 L1183.9454,166.140049 L1197.05785,166.140049 L1197.05785,161.578926 C1197.05785,160.859691 1197.6377,160.27877 1198.35561,160.27877 C1199.06865,160.27877 1199.65012,160.859691 1199.65012,161.578926 L1199.65012,166.140049 L1205.01335,166.140049 C1205.56559,166.140049 1206.06747,165.913864 1206.4313,165.554246 C1206.79026,165.189747 1207.01603,164.686933 1207.01603,164.133675 L1207.01603,159.064857 C1207.01603,154.406101 1203.45733,153.151507 1199.87102,151.88715 L1199.87102,151.88715 Z M1198.88998,138.016651 L1199.29117,138.016651 C1199.41948,138.016651 1199.53968,138.071976 1199.62738,138.154965 C1199.71022,138.242835 1199.76544,138.36325 1199.76544,138.491801 L1199.76544,140.756904 C1199.76544,140.885455 1199.71022,141.00587 1199.62738,141.088859 C1199.53968,141.176729 1199.41948,141.232055 1199.29117,141.232055 L1198.88998,141.232055 L1198.88998,138.016651 Z M1182.06616,141.232055 L1181.66498,141.232055 C1181.53666,141.232055 1181.41647,141.176729 1181.33363,141.088859 C1181.24592,141.00587 1181.1907,140.885455 1181.1907,140.756904 L1181.1907,138.491801 C1181.1907,138.36325 1181.24592,138.242835 1181.33363,138.154965 C1181.41647,138.071976 1181.53666,138.016651 1181.66498,138.016651 L1182.06616,138.016651 L1182.06616,141.232055 Z M1192.9599,153.081536 C1192.2696,153.579468 1191.42175,153.870742 1190.50081,153.870742 C1189.58474,153.870742 1188.73202,153.579468 1188.04659,153.081536 C1187.52684,152.707274 1187.0883,152.219105 1186.77969,151.651202 C1186.85765,151.550314 1186.93562,151.439662 1187.00546,151.329011 C1187.3368,150.808298 1187.57232,150.227377 1187.70063,149.604148 C1188.52087,149.880777 1189.39958,150.033737 1190.31078,150.033737 L1190.64699,150.033737 C1191.57281,150.033737 1192.46614,149.877523 1193.29937,149.59113 C1193.42443,150.217613 1193.65832,150.805043 1193.99454,151.330638 C1194.06763,151.44129 1194.14235,151.551941 1194.22031,151.652829 C1193.91333,152.219105 1193.47966,152.708901 1192.9599,153.081536 L1192.9599,153.081536 Z M1190.64862,147.436679 L1190.3124,147.436679 C1188.80674,147.436679 1187.37903,146.828095 1186.32003,145.772024 C1185.25616,144.706189 1184.65844,143.2726 1184.65844,141.772295 L1184.65844,137.007769 C1184.65844,136.77182 1184.7559,136.547263 1184.92157,136.376404 C1185.08724,136.215308 1185.30813,136.112793 1185.55177,136.112793 L1186.12675,136.112793 C1186.55555,136.112793 1186.96973,136.052585 1187.38391,135.928916 C1187.78834,135.803619 1188.16679,135.624624 1188.53062,135.375658 L1189.51165,134.719885 C1189.81051,134.521363 1190.14673,134.420475 1190.47807,134.420475 C1190.81429,134.420475 1191.14563,134.521363 1191.44449,134.719885 L1192.42553,135.375658 C1192.79423,135.624624 1193.17105,135.805246 1193.57224,135.928916 C1193.98642,136.054212 1194.4006,136.112793 1194.83427,136.112793 L1195.406,136.112793 C1195.64964,136.112793 1195.8754,136.213681 1196.0362,136.376404 C1196.20675,136.547263 1196.29933,136.773448 1196.29933,137.007769 L1196.29933,141.772295 C1196.29933,143.270973 1195.70486,144.706189 1194.63774,145.772024 C1193.58198,146.826468 1192.15428,147.436679 1190.64862,147.436679 L1190.64862,147.436679 Z M1193.31074,144.450714 C1193.08984,144.792432 1192.80398,145.091842 1192.46776,145.335926 C1192.14616,145.571875 1191.77259,145.75087 1191.36328,145.861521 C1190.65349,146.055162 1189.93558,145.999836 1189.29563,145.755752 C1188.64106,145.506786 1188.07096,145.054416 1187.67952,144.450714 C1187.28808,143.850266 1187.45375,143.048043 1188.05309,142.65588 C1188.65243,142.263718 1189.45318,142.429696 1189.84787,143.030143 C1189.93558,143.168458 1190.06877,143.274227 1190.22144,143.329553 C1190.36925,143.389761 1190.53492,143.399524 1190.69572,143.357216 C1190.79317,143.329553 1190.87601,143.287245 1190.9491,143.236801 C1191.02706,143.181475 1191.09203,143.111505 1191.14238,143.028516 C1191.53383,142.428068 1192.33945,142.262091 1192.93716,142.654253 C1193.53488,143.04967 1193.70055,143.851894 1193.31074,144.450714 L1193.31074,144.450714 Z M1218.2736,139.391659 C1218.0527,139.733377 1217.77171,140.032787 1217.43062,140.276872 C1217.10902,140.51282 1216.73545,140.696697 1216.33101,140.802467 C1215.61797,140.996107 1214.89844,140.940781 1214.26336,140.696697 C1213.60555,140.447731 1213.03382,139.995361 1212.64237,139.391659 C1212.25093,138.791212 1212.41661,137.988988 1213.01595,137.596826 C1213.61854,137.204663 1214.42091,137.370641 1214.81235,137.971088 C1214.90493,138.109403 1215.03325,138.215173 1215.18593,138.270498 C1215.33373,138.330706 1215.4994,138.338842 1215.66508,138.298161 C1215.75766,138.270498 1215.84049,138.22819 1215.91358,138.177746 C1215.99155,138.12242 1216.05652,138.05245 1216.11174,137.969461 C1216.50318,137.369013 1217.30393,137.203036 1217.90327,137.595198 C1218.49936,137.988988 1218.66991,138.791212 1218.2736,139.391659 L1218.2736,139.391659 Z M1168.35113,139.391659 C1168.13023,139.733377 1167.84437,140.032787 1167.50815,140.276872 C1167.18655,140.51282 1166.81298,140.696697 1166.40854,140.802467 C1165.6955,140.996107 1164.97597,140.940781 1164.34089,140.696697 C1163.68308,140.447731 1163.11135,139.995361 1162.71991,139.391659 C1162.32847,138.791212 1162.49414,137.988988 1163.09348,137.596826 C1163.69282,137.204663 1164.49844,137.370641 1164.88988,137.971088 C1164.97759,138.109403 1165.11078,138.215173 1165.26346,138.270498 C1165.41126,138.330706 1165.57694,138.338842 1165.73774,138.298161 C1165.83519,138.270498 1165.91803,138.22819 1165.99112,138.177746 C1166.06908,138.12242 1166.13405,138.05245 1166.18927,137.969461 C1166.58071,137.369013 1167.38146,137.203036 1167.9808,137.595198 C1168.5769,137.988988 1168.74257,138.791212 1168.35113,139.391659 L1168.35113,139.391659 Z M1190.50081,108.394575 C1191.21872,108.394575 1191.79858,108.975495 1191.79858,109.691476 L1191.79858,115.456748 C1191.79858,116.171102 1191.21872,116.75365 1190.50081,116.75365 C1189.78777,116.75365 1189.20305,116.172729 1189.20305,115.456748 L1189.20305,109.691476 C1189.20305,108.975495 1189.78777,108.394575 1190.50081,108.394575 Z M1198.64635,118.08635 L1201.52449,113.095639 C1201.87857,112.477292 1202.66633,112.260871 1203.28841,112.615606 C1203.90562,112.975224 1204.11677,113.76443 1203.76269,114.382777 L1200.88454,119.373488 C1200.53046,119.996717 1199.74271,120.208257 1199.12062,119.853521 C1198.50341,119.497158 1198.29226,118.704697 1198.64635,118.08635 Z M1177.24219,114.386032 C1176.88323,113.767685 1177.09438,112.975224 1177.71646,112.615606 C1178.33367,112.260871 1179.12467,112.467529 1179.48525,113.090757 L1182.35853,118.081469 C1182.71748,118.699816 1182.50633,119.492276 1181.88912,119.853521 C1181.27191,120.213139 1180.48091,120.001599 1180.12033,119.383252 L1177.24219,114.386032 Z M1212.34839,107.620014 C1212.34839,107.333621 1212.4767,107.089537 1212.71709,106.936577 C1213.68351,106.313349 1214.50375,105.488344 1215.12583,104.523397 C1215.28176,104.284194 1215.52214,104.149134 1215.80801,104.149134 C1216.09387,104.149134 1216.33751,104.282567 1216.49019,104.523397 C1217.11227,105.486716 1217.93575,106.313349 1218.89893,106.936577 C1219.13769,107.089537 1219.2725,107.333621 1219.2725,107.620014 C1219.2725,107.901524 1219.13931,108.145609 1218.89893,108.30345 C1217.93738,108.921797 1217.11227,109.746802 1216.49019,110.711749 C1216.33751,110.950951 1216.09387,111.086011 1215.80801,111.086011 C1215.52214,111.086011 1215.28338,110.952578 1215.12583,110.711749 C1214.50375,109.748429 1213.68513,108.921797 1212.71709,108.30345 C1212.4767,108.145609 1212.34839,107.901524 1212.34839,107.620014 L1212.34839,107.620014 Z M1161.73562,107.620014 C1161.73562,107.333621 1161.86881,107.089537 1162.1092,106.936577 C1163.07561,106.313349 1163.89585,105.488344 1164.51794,104.523397 C1164.67061,104.284194 1164.91425,104.149134 1165.20011,104.149134 C1165.48598,104.149134 1165.72961,104.282567 1165.88229,104.523397 C1166.50437,105.486716 1167.32299,106.313349 1168.29103,106.936577 C1168.52979,107.089537 1168.66461,107.333621 1168.66461,107.620014 C1168.66461,107.901524 1168.53142,108.145609 1168.29103,108.30345 C1167.32461,108.921797 1166.50437,109.746802 1165.88229,110.711749 C1165.72961,110.950951 1165.48598,111.086011 1165.20011,111.086011 C1164.91425,111.086011 1164.67061,110.952578 1164.51794,110.711749 C1163.89585,109.748429 1163.07724,108.921797 1162.1092,108.30345 C1161.86881,108.145609 1161.73562,107.901524 1161.73562,107.620014 L1161.73562,107.620014 Z M1187.03957,97.6060465 C1187.03957,97.3245359 1187.17276,97.0804515 1187.41314,96.9226103 C1188.37956,96.2993816 1189.1998,95.4792582 1189.82188,94.5094298 C1189.97456,94.2702271 1190.2182,94.1400488 1190.50406,94.1400488 C1190.78993,94.1400488 1191.03356,94.2685999 1191.18624,94.5094298 C1191.80832,95.477631 1192.62693,96.2993816 1193.59498,96.9226103 C1193.83374,97.0788243 1193.96855,97.3245359 1193.96855,97.6060465 C1193.96855,97.8924388 1193.83537,98.1365231 1193.59498,98.2894827 C1192.62856,98.9127114 1191.80832,99.7377164 1191.18624,100.702663 C1191.03356,100.941866 1190.78993,101.076926 1190.50406,101.076926 C1190.2182,101.076926 1189.97456,100.943493 1189.82188,100.702663 C1189.1998,99.7393437 1188.38119,98.9127114 1187.41314,98.2894827 C1187.17276,98.1365231 1187.03957,97.8924388 1187.03957,97.6060465 Z" id="community" fill-rule="nonzero"></path>
            </g>
        </g>
    </g>
</svg>