<?xml version="1.0" encoding="UTF-8"?>
<svg viewBox="0 0 93 73" version="1.1" xmlns="http://www.w3.org/2000/svg" xmlns:xlink="http://www.w3.org/1999/xlink">
    <title>whitepapers</title>
    <g id="Argon-Website" stroke="none" stroke-width="1" fill="none" fill-rule="evenodd">
        <g id="Dashboard" transform="translate(-205, -7276)" xlink:href="#path-1">
            <g id="Group-2" stroke-width="1" fill-rule="evenodd" transform="translate(-0.1234, 7182)" fill="currentColor">
                <path d="M290.892254,115.890923 C290.520223,113.087041 290.467782,108.257734 293.065406,106.636128 C293.111807,106.606399 293.146402,106.563457 293.187037,106.526571 C295.310768,105.845558 296.780495,104.889826 295.626788,103.603773 L264.298799,94.1400488 L213.571683,101.210865 C213.571683,101.210865 207.76279,102.043277 208.281711,111.091345 C208.56341,116.015895 210.103974,118.434402 211.451246,119.624662 L207.288622,120.882363 C206.133269,122.168417 207.602721,123.124424 209.726727,123.804336 C209.767087,123.842323 209.801133,123.88499 209.848357,123.914719 C212.444334,125.537701 212.394364,130.366457 212.02096,133.17089 C202.694938,135.825853 206.042663,136.691021 206.042663,136.691021 L208.088419,137.18733 C206.649444,138.491001 205.220352,140.963185 205.48805,145.65183 C206.007245,154.698247 210.778571,155.322556 210.778571,155.322556 L243.974126,166.140049 L294.078812,153.97264 C294.078812,153.97264 297.427636,153.106095 288.099142,150.450857 C287.724091,147.650828 287.671925,142.822622 290.273942,141.195512 C290.321716,141.166608 290.356585,141.122841 290.395298,141.086505 C292.519304,140.405492 293.987658,139.450586 292.833677,138.164532 L290.655857,137.505265 C292.108286,136.627159 294.28995,134.332247 294.631778,128.371037 C294.867626,124.270641 293.800681,121.8692 292.565705,120.455422 L296.870276,119.411054 C296.870551,119.412706 300.219375,118.546161 290.892254,115.890923 Z M248.982673,115.775035 L257.408409,114.038918 L285.882609,108.1724 L290.124855,107.297598 C288.769346,109.784922 288.82618,113.18889 289.050497,115.376722 C289.099643,115.871655 289.156203,116.323645 289.211115,116.66718 L284.567735,117.824683 L248.628489,126.788244 L248.982673,115.775035 Z M212.789183,124.578941 L217.03088,125.453744 L244.376359,131.089587 L246.765316,131.580115 L246.765316,131.580115 L246.765316,131.580115 L253.929443,133.056379 L254.282804,144.069863 L217.344978,134.856358 L213.703472,133.949074 C213.757011,133.604988 213.813571,133.153548 213.864914,132.65724 C214.087858,130.471059 214.14579,127.066265 212.789183,124.578941 Z M211.141266,110.655871 C211.089923,108.2492 211.51769,106.508679 212.382283,105.623967 C212.932504,105.059116 213.581841,104.941577 214.02718,104.941577 C214.262479,104.941577 214.431883,104.974333 214.443415,104.974333 L236.300413,112.118371 L247.205163,115.682821 L246.84741,126.773105 L216.255244,118.174274 L214.640824,117.720907 C214.581519,117.704116 214.501072,117.692554 214.439022,117.689802 C214.312998,117.680718 211.288431,117.401596 211.141266,110.655871 Z M244.0532,161.335241 L211.847438,152.282768 C211.787858,152.265426 211.708235,152.253865 211.646184,152.250837 C211.517964,152.242303 208.492025,151.963457 208.345683,145.219383 C208.293517,142.809685 208.72348,141.070815 209.586426,140.185277 C210.138019,139.620426 210.787631,139.502887 211.232146,139.502887 C211.467994,139.502887 211.636849,139.534543 211.649205,139.534543 C211.649205,139.534543 211.650577,139.534543 211.649205,139.534543 L244.408757,150.244681 L244.0532,161.335241 Z M286.25464,149.937207 C286.305433,150.433791 286.361993,150.884955 286.416905,151.229041 L245.833455,161.350931 L246.188188,150.337447 L254.864599,148.549029 L256.145976,148.859807 L260.948602,147.294906 L283.086752,142.733986 L287.330645,141.858633 C285.973763,144.345682 286.030048,147.751026 286.25464,149.937207 Z M288.490117,134.969493 C288.41626,134.971145 288.342403,134.981055 288.272939,135.003076 L285.21213,135.862188 L256.068001,144.055274 L255.71162,132.96499 L265.273491,129.838217 L288.426419,122.268064 C288.429439,122.266688 289.644373,121.996099 290.536148,122.90531 C291.399369,123.790022 291.827684,125.530544 291.777165,127.937214 C291.626156,134.680737 288.600216,134.96096 288.490117,134.969493 Z" id="whitepapers" fill-rule="nonzero"></path>
            </g>
        </g>
    </g>
</svg>